<svg width="48" height="48" viewBox="0 0 48 48" fill="none" xmlns="http://www.w3.org/2000/svg">
<rect width="48" height="48" rx="24" fill="#226A47" fill-opacity="0.3"/>
<path d="M34.92 24.38C35.02 24.1365 35.02 23.8635 34.92 23.62C34.8724 23.4972 34.801 23.3851 34.71 23.29L31.71 20.29C31.6168 20.1968 31.5061 20.1228 31.3842 20.0723C31.2624 20.0219 31.1319 19.9959 31 19.9959C30.7337 19.9959 30.4783 20.1017 30.29 20.29C30.1968 20.3832 30.1228 20.4939 30.0723 20.6158C30.0219 20.7376 29.9959 20.8681 29.9959 21C29.9959 21.2663 30.1017 21.5217 30.29 21.71L31.59 23H28V14C28 13.7348 27.8946 13.4804 27.7071 13.2929C27.5196 13.1054 27.2652 13 27 13H14C13.7348 13 13.4804 13.1054 13.2929 13.2929C13.1054 13.4804 13 13.7348 13 14V28C13.0016 28.1307 13.0288 28.2598 13.08 28.38C13.1258 28.5036 13.1974 28.6161 13.29 28.71L19.29 34.71C19.3822 34.7999 19.4908 34.8713 19.61 34.92C19.734 34.9704 19.8662 34.9975 20 35H27C27.2652 35 27.5196 34.8946 27.7071 34.7071C27.8946 34.5196 28 34.2652 28 34V25H31.59L30.29 26.29C30.1963 26.383 30.1219 26.4936 30.0711 26.6154C30.0203 26.7373 29.9942 26.868 29.9942 27C29.9942 27.132 30.0203 27.2627 30.0711 27.3846C30.1219 27.5064 30.1963 27.617 30.29 27.71C30.383 27.8037 30.4936 27.8781 30.6154 27.9289C30.7373 27.9797 30.868 28.0058 31 28.0058C31.132 28.0058 31.2627 27.9797 31.3846 27.9289C31.5064 27.8781 31.617 27.8037 31.71 27.71L34.71 24.71C34.801 24.6149 34.8724 24.5028 34.92 24.38ZM19 31.59L16.41 29H19V31.59ZM26 33H21V28C21 27.7348 20.8946 27.4804 20.7071 27.2929C20.5196 27.1054 20.2652 27 20 27H15V15H26V23H22C21.7348 23 21.4804 23.1054 21.2929 23.2929C21.1054 23.4804 21 23.7348 21 24C21 24.2652 21.1054 24.5196 21.2929 24.7071C21.4804 24.8946 21.7348 25 22 25H26V33Z" fill="white"/>
</svg>
