<svg width="48" height="48" viewBox="0 0 48 48" fill="none" xmlns="http://www.w3.org/2000/svg">
<rect width="48" height="48" rx="24" fill="#226A47"/>
<g clip-path="url(#clip0_583_81184)">
<path d="M28.5215 22.3125C28.5215 21.7947 28.1018 21.375 27.584 21.375H17.9277C17.41 21.375 16.9902 21.7947 16.9902 22.3125C16.9902 22.8303 17.41 23.25 17.9277 23.25H27.584C28.1018 23.25 28.5215 22.8303 28.5215 22.3125Z" fill="white"/>
<path d="M17.9277 25.125C17.41 25.125 16.9902 25.5447 16.9902 26.0625C16.9902 26.5803 17.41 27 17.9277 27H23.7923C24.3101 27 24.7298 26.5803 24.7298 26.0625C24.7298 25.5447 24.3101 25.125 23.7923 25.125H17.9277Z" fill="white"/>
<path d="M20.1315 34.125H16.9961C15.9622 34.125 15.1211 33.2839 15.1211 32.25V15.75C15.1211 14.7161 15.9622 13.875 16.9961 13.875H28.5221C29.556 13.875 30.3971 14.7161 30.3971 15.75V21.5156C30.3971 22.0334 30.8169 22.4531 31.3346 22.4531C31.8524 22.4531 32.2721 22.0334 32.2721 21.5156V15.75C32.2721 13.6823 30.5899 12 28.5221 12H16.9961C14.9283 12 13.2461 13.6823 13.2461 15.75V32.25C13.2461 34.3177 14.9283 36 16.9961 36H20.1315C20.6493 36 21.069 35.5803 21.069 35.0625C21.069 34.5447 20.6493 34.125 20.1315 34.125Z" fill="white"/>
<path d="M33.9341 25.5745C32.8375 24.4779 31.0532 24.4779 29.9573 25.5738L24.8103 30.7094C24.701 30.8185 24.6204 30.9528 24.5755 31.1005L23.4546 34.7908C23.3552 35.118 23.4418 35.4732 23.6805 35.718C23.8594 35.9013 24.1024 36.0008 24.3517 36.0008C24.435 36.0008 24.5192 35.9897 24.6019 35.9667L28.3859 34.9186C28.5416 34.8754 28.6835 34.7928 28.7979 34.6786L33.9341 29.552C35.0307 28.4554 35.0307 26.6712 33.9341 25.5745ZM27.6478 33.1774L25.7441 33.7048L26.3012 31.8706L29.7741 28.4054L31.1002 29.7315L27.6478 33.1774ZM32.609 28.2257L32.4273 28.4069L31.1015 27.0811L31.2825 26.9004C31.648 26.5349 32.2428 26.5349 32.6083 26.9004C32.9738 27.2659 32.9738 27.8607 32.609 28.2257Z" fill="white"/>
<path d="M27.584 17.625H17.9277C17.41 17.625 16.9902 18.0447 16.9902 18.5625C16.9902 19.0803 17.41 19.5 17.9277 19.5H27.584C28.1018 19.5 28.5215 19.0803 28.5215 18.5625C28.5215 18.0447 28.1018 17.625 27.584 17.625Z" fill="white"/>
</g>
<defs>
<clipPath id="clip0_583_81184">
<rect width="24" height="24" fill="white" transform="translate(12 12)"/>
</clipPath>
</defs>
</svg>
