<svg width="48" height="48" viewBox="0 0 48 48" fill="none" xmlns="http://www.w3.org/2000/svg">
<rect width="48" height="48" rx="24" fill="#226A47"/>
<path d="M32.25 16.5005C28.08 16.5005 24.5025 13.6955 24.465 13.6655C24.3326 13.5608 24.1688 13.5039 24 13.5039C23.8312 13.5039 23.6674 13.5608 23.535 13.6655C23.4975 13.6955 19.935 16.5005 15.75 16.5005C15.5511 16.5005 15.3603 16.5795 15.2197 16.7201C15.079 16.8608 15 17.0515 15 17.2505V24.0005C15 29.033 17.0325 31.5005 23.6925 34.433C23.7892 34.4764 23.894 34.4989 24 34.4989C24.106 34.4989 24.2108 34.4764 24.3075 34.433C30.9675 31.5005 33 29.033 33 24.0005V17.2505C33 17.0515 32.921 16.8608 32.7803 16.7201C32.6397 16.5795 32.4489 16.5005 32.25 16.5005ZM31.5 24.0005C31.5 27.8855 30.45 30.0005 24 32.9255C17.55 30.0005 16.5 27.8855 16.5 24.0005V18.0005C19.2018 17.7247 21.7859 16.7531 24 15.1805C26.2141 16.7531 28.7982 17.7247 31.5 18.0005V24.0005Z" fill="white" stroke="white" stroke-width="0.2"/>
<path d="M20.7836 23.4686C20.7137 23.3987 20.6307 23.3432 20.5393 23.3054C20.4479 23.2675 20.35 23.248 20.2511 23.248C20.1522 23.248 20.0543 23.2675 19.9629 23.3054C19.8716 23.3432 19.7885 23.3987 19.7186 23.4686C19.6487 23.5385 19.5932 23.6216 19.5554 23.7129C19.5175 23.8043 19.498 23.9022 19.498 24.0011C19.498 24.1 19.5175 24.1979 19.5554 24.2893C19.5932 24.3807 19.6487 24.4637 19.7186 24.5336L21.9686 26.7836C22.0383 26.8539 22.1213 26.9097 22.2127 26.9478C22.3041 26.9859 22.4021 27.0055 22.5011 27.0055C22.6001 27.0055 22.6982 26.9859 22.7895 26.9478C22.8809 26.9097 22.9639 26.8539 23.0336 26.7836L28.2836 21.5336C28.3535 21.4637 28.409 21.3807 28.4469 21.2893C28.4847 21.1979 28.5042 21.1 28.5042 21.0011C28.5042 20.9022 28.4847 20.8043 28.4469 20.7129C28.409 20.6216 28.3535 20.5385 28.2836 20.4686C28.2137 20.3987 28.1307 20.3432 28.0393 20.3054C27.9479 20.2675 27.85 20.248 27.7511 20.248C27.6522 20.248 27.5543 20.2675 27.4629 20.3054C27.3716 20.3432 27.2885 20.3987 27.2186 20.4686L22.5011 25.1936L20.7836 23.4686Z" fill="white" stroke="white" stroke-width="0.2"/>
</svg>
