<svg width="25" height="24" viewBox="0 0 25 24" fill="none" xmlns="http://www.w3.org/2000/svg">
<path d="M19.8238 9.4668C19.8238 9.4668 19.2808 16.2018 18.9658 19.0388C18.8158 20.3938 17.9788 21.1878 16.6078 21.2128C13.9988 21.2598 11.3868 21.2628 8.77881 21.2078C7.45981 21.1808 6.63681 20.3768 6.48981 19.0458C6.17281 16.1838 5.63281 9.4668 5.63281 9.4668" stroke="#EB5757" stroke-width="1.5" stroke-linecap="round" stroke-linejoin="round"/>
<path d="M21.208 6.23828H4.25" stroke="#EB5757" stroke-width="1.5" stroke-linecap="round" stroke-linejoin="round"/>
<path d="M17.9406 6.239C17.1556 6.239 16.4796 5.684 16.3256 4.915L16.0826 3.699C15.9326 3.138 15.4246 2.75 14.8456 2.75H10.6126C10.0336 2.75 9.52558 3.138 9.37558 3.699L9.13258 4.915C8.97858 5.684 8.30258 6.239 7.51758 6.239" stroke="#EB5757" stroke-width="1.5" stroke-linecap="round" stroke-linejoin="round"/>
</svg>
