<svg width="19" height="19" viewBox="0 0 19 19" fill="none" xmlns="http://www.w3.org/2000/svg">
<g clip-path="url(#clip0_4_309)">
<path d="M18.7146 0H0.290492C0.213656 0.000659488 0.140154 0.0314713 0.0858201 0.0857975C0.0314866 0.140124 0.000670754 0.213616 1.11783e-05 0.290442V18.7121C-0.000325761 18.7503 0.00695753 18.7882 0.0214363 18.8236C0.035915 18.859 0.057299 18.8912 0.0843401 18.9182C0.111381 18.9452 0.143538 18.9666 0.178933 18.9811C0.214328 18.9956 0.252252 19.0029 0.290492 19.0025H18.7146C18.7524 19.0022 18.7898 18.9944 18.8246 18.9796C18.8594 18.9649 18.891 18.9434 18.9175 18.9164C18.944 18.8894 18.9649 18.8575 18.9791 18.8225C18.9932 18.7874 19.0003 18.7499 19 18.7121V0.290442C18.9994 0.214475 18.9693 0.141724 18.916 0.0875358C18.8628 0.033348 18.7905 0.00196212 18.7146 0ZM0.578448 0.580885H18.4241V2.87917H0.578448V0.580885ZM18.4241 18.4216H0.578448V3.46005H18.4241V18.4216Z" fill="#05544F"/>
<path d="M16.9969 1.52041C16.9469 1.57824 16.9175 1.65112 16.9136 1.72751C16.9133 1.80402 16.9433 1.87753 16.9969 1.93208C17.0235 1.95942 17.0553 1.98115 17.0905 1.99599C17.1256 2.01083 17.1634 2.01848 17.2015 2.01848C17.2397 2.01848 17.2774 2.01083 17.3126 1.99599C17.3477 1.98115 17.3795 1.95942 17.4061 1.93208C17.4591 1.87727 17.4882 1.80371 17.487 1.72751C17.4857 1.65403 17.4568 1.58372 17.4061 1.53051C17.3515 1.478 17.2792 1.44784 17.2035 1.44597C17.1278 1.4441 17.0541 1.47066 16.9969 1.52041Z" fill="#05544F"/>
<path d="M15.6155 1.44464C15.5584 1.44515 15.5028 1.46259 15.4557 1.49476C15.4085 1.52693 15.372 1.57237 15.3508 1.62531C15.3295 1.67826 15.3245 1.73632 15.3363 1.79214C15.3481 1.84795 15.3763 1.899 15.4171 1.9388C15.458 1.97861 15.5098 2.00537 15.5659 2.0157C15.622 2.02603 15.6799 2.01946 15.7323 1.99682C15.7847 1.97418 15.8291 1.93649 15.8601 1.88855C15.891 1.8406 15.9069 1.78454 15.9059 1.7275C15.9046 1.65158 15.8733 1.57926 15.8189 1.52628C15.7645 1.4733 15.6914 1.44396 15.6155 1.44464Z" fill="#05544F"/>
<path d="M13.8293 1.53051C13.7786 1.58371 13.7498 1.65402 13.7485 1.7275C13.7451 1.78749 13.7606 1.84702 13.7928 1.89776C13.825 1.9485 13.8722 1.98791 13.9279 2.01046C13.9836 2.03301 14.045 2.03758 14.1034 2.02352C14.1618 2.00947 14.2143 1.97749 14.2537 1.93208C14.3053 1.87641 14.3341 1.80341 14.3345 1.7275C14.3317 1.65134 14.3032 1.57837 14.2537 1.5204C14.1954 1.4668 14.1186 1.4379 14.0395 1.43978C13.9603 1.44167 13.885 1.47419 13.8293 1.53051Z" fill="#05544F"/>
<path d="M4.71805 8.87743C4.99371 8.87743 5.26319 8.79573 5.49242 8.64266C5.72166 8.48958 5.90037 8.272 6.00598 8.0174C6.11159 7.76281 6.13934 7.48262 6.08575 7.21226C6.03215 6.9419 5.89961 6.69348 5.70486 6.49841C5.51012 6.30334 5.26191 6.17036 4.99161 6.11628C4.72131 6.06221 4.44104 6.08946 4.18622 6.19459C3.9314 6.29972 3.71346 6.47801 3.55995 6.70694C3.40644 6.93587 3.32424 7.20516 3.32374 7.48079C3.32307 7.66417 3.35867 7.84588 3.42847 8.01546C3.49827 8.18505 3.60091 8.33917 3.73048 8.46896C3.86006 8.59875 4.01401 8.70165 4.18349 8.77175C4.35297 8.84185 4.53464 8.87777 4.71805 8.87743ZM4.71805 6.6726C4.87963 6.67311 5.03742 6.72157 5.17141 6.81185C5.30541 6.90213 5.40957 7.03016 5.47071 7.17971C5.53184 7.32925 5.54719 7.49358 5.51481 7.65186C5.48242 7.81014 5.40376 7.95524 5.2888 8.06876C5.17384 8.18229 5.02776 8.25913 4.86907 8.28954C4.71038 8.31995 4.54623 8.30256 4.39744 8.23959C4.24864 8.17661 4.1219 8.07087 4.03328 7.93578C3.94466 7.80069 3.89815 7.64234 3.89965 7.48079C3.90165 7.26531 3.98884 7.05938 4.14217 6.90795C4.29551 6.75653 4.50254 6.67192 4.71805 6.6726Z" fill="#05544F"/>
<path d="M2.84664 15.2091C2.8085 15.2091 2.77073 15.2166 2.73548 15.2312C2.70024 15.2458 2.66822 15.2672 2.64124 15.2941C2.61427 15.3211 2.59287 15.3531 2.57827 15.3884C2.56368 15.4236 2.55616 15.4614 2.55616 15.4995C2.55616 15.5377 2.56368 15.5754 2.57827 15.6107C2.59287 15.6459 2.61427 15.6779 2.64124 15.7049C2.66822 15.7319 2.70024 15.7533 2.73548 15.7679C2.77073 15.7825 2.8085 15.79 2.84664 15.79H6.58501C6.66205 15.79 6.73594 15.7594 6.79041 15.7049C6.84489 15.6504 6.87549 15.5766 6.87549 15.4995C6.87549 15.4225 6.84489 15.3486 6.79041 15.2941C6.73594 15.2397 6.66205 15.2091 6.58501 15.2091H6.10509V9.88514C6.10509 9.84789 6.09768 9.81102 6.08327 9.77668C6.06887 9.74233 6.04776 9.7112 6.02119 9.6851C5.99461 9.659 5.96311 9.63846 5.9285 9.62467C5.8939 9.61088 5.8569 9.60413 5.81966 9.6048H2.84664C2.80898 9.60344 2.77144 9.60969 2.73624 9.62317C2.70105 9.63664 2.66894 9.65708 2.64182 9.68325C2.61471 9.70942 2.59315 9.74078 2.57843 9.77547C2.56371 9.81016 2.55614 9.84746 2.55616 9.88514C2.55583 9.92337 2.56311 9.96129 2.57759 9.99668C2.59207 10.0321 2.61345 10.0642 2.64049 10.0913C2.66753 10.1183 2.69969 10.1397 2.73508 10.1542C2.77048 10.1686 2.8084 10.1759 2.84664 10.1756H3.32404V15.2091H2.84664ZM3.89995 10.1756H5.52918V15.2091H3.89995V10.1756Z" fill="#05544F"/>
<path d="M8.82085 8.35718H15.8682C15.9448 8.35588 16.0179 8.32486 16.0721 8.27067C16.1263 8.21648 16.1574 8.14336 16.1587 8.06673C16.159 8.0285 16.1517 7.99058 16.1372 7.95519C16.1228 7.9198 16.1014 7.88765 16.0743 7.86061C16.0473 7.83357 16.0151 7.81219 15.9797 7.79771C15.9443 7.78324 15.9064 7.77595 15.8682 7.77629H8.82085C8.7824 7.77561 8.7442 7.78265 8.70851 7.79697C8.67282 7.8113 8.64037 7.83262 8.61306 7.8597C8.58574 7.88677 8.56413 7.91904 8.5495 7.95459C8.53486 7.99015 8.5275 8.02828 8.52784 8.06673C8.52916 8.14379 8.56053 8.21728 8.61527 8.27154C8.67 8.3258 8.74378 8.35653 8.82085 8.35718Z" fill="#05544F"/>
<path d="M15.8678 9.68816H12.8367C12.7607 9.69012 12.6885 9.72151 12.6353 9.7757C12.582 9.82988 12.5519 9.90263 12.5513 9.9786C12.5519 10.0165 12.5601 10.0539 12.5754 10.0886C12.5907 10.1233 12.6127 10.1547 12.6402 10.1808C12.6677 10.2069 12.7002 10.2272 12.7356 10.2406C12.7711 10.2541 12.8089 10.2603 12.8468 10.2589H15.8779C15.9161 10.2593 15.9541 10.252 15.9895 10.2375C16.0249 10.223 16.057 10.2017 16.0841 10.1746C16.1111 10.1476 16.1325 10.1154 16.147 10.08C16.1614 10.0447 16.1687 10.0067 16.1684 9.9685C16.1645 9.8919 16.1309 9.81983 16.0748 9.76752C16.0187 9.71521 15.9445 9.68675 15.8678 9.68816Z" fill="#05544F"/>
<path d="M8.82084 10.2589H11.2685C11.3067 10.2593 11.3446 10.252 11.38 10.2375C11.4154 10.223 11.4476 10.2017 11.4746 10.1746C11.5017 10.1476 11.523 10.1154 11.5375 10.08C11.552 10.0447 11.5593 10.0067 11.5589 9.9685C11.5557 9.89344 11.5238 9.8225 11.4697 9.77032C11.4156 9.71815 11.3436 9.68873 11.2685 9.68816H8.82084C8.74376 9.6888 8.66999 9.71953 8.61526 9.77379C8.56052 9.82805 8.52915 9.90154 8.52783 9.9786C8.52982 10.0545 8.56173 10.1266 8.61661 10.1791C8.67149 10.2316 8.74489 10.2603 8.82084 10.2589Z" fill="#05544F"/>
<path d="M8.82085 12.1834H15.8682C15.9058 12.1844 15.9431 12.178 15.9782 12.1644C16.0132 12.1507 16.0452 12.1303 16.0722 12.1042C16.0993 12.0781 16.1209 12.0469 16.1357 12.0123C16.1505 11.9778 16.1583 11.9407 16.1587 11.9031C16.159 11.8647 16.1517 11.8267 16.1373 11.7912C16.1228 11.7556 16.1015 11.7233 16.0745 11.6961C16.0475 11.6689 16.0153 11.6472 15.9799 11.6325C15.9445 11.6177 15.9065 11.6101 15.8682 11.6101H8.82085C8.78228 11.6098 8.74402 11.6171 8.70832 11.6317C8.67262 11.6464 8.64019 11.6679 8.61291 11.6952C8.58564 11.7225 8.56407 11.7549 8.54946 11.7906C8.53485 11.8263 8.52751 11.8645 8.52784 11.9031C8.5278 11.941 8.53545 11.9785 8.55033 12.0134C8.5652 12.0482 8.58699 12.0797 8.61438 12.1059C8.64176 12.1321 8.67418 12.1525 8.70967 12.1658C8.74516 12.1792 8.78298 12.1851 8.82085 12.1834Z" fill="#05544F"/>
<path d="M8.82059 14.1054H14.0316C14.1073 14.1054 14.1799 14.0753 14.2334 14.0218C14.2869 13.9683 14.317 13.8957 14.317 13.82C14.317 13.7443 14.2869 13.6717 14.2334 13.6182C14.1799 13.5647 14.1073 13.5346 14.0316 13.5346H8.82059C8.74489 13.5346 8.67229 13.5647 8.61876 13.6182C8.56523 13.6717 8.53516 13.7443 8.53516 13.82C8.53516 13.8957 8.56523 13.9683 8.61876 14.0218C8.67229 14.0753 8.74489 14.1054 8.82059 14.1054Z" fill="#05544F"/>
</g>
<defs>
<clipPath id="clip0_4_309">
<rect width="19" height="19" fill="white"/>
</clipPath>
</defs>
</svg>
