<svg width="23" height="23" viewBox="0 0 23 23" fill="none" xmlns="http://www.w3.org/2000/svg">
<g clip-path="url(#clip0_4_288)">
<path d="M3.16329 15.0351H5.59979C5.6479 15.0394 5.69639 15.0337 5.74217 15.0183C5.78795 15.0029 5.83002 14.9781 5.86569 14.9455C5.90136 14.913 5.92985 14.8733 5.94934 14.8291C5.96883 14.7849 5.9789 14.7371 5.9789 14.6888C5.9789 14.6405 5.96883 14.5927 5.94934 14.5485C5.92985 14.5043 5.90136 14.4647 5.86569 14.4321C5.83002 14.3995 5.78795 14.3747 5.74217 14.3593C5.69639 14.3439 5.6479 14.3382 5.59979 14.3426H3.16329C3.11518 14.3382 3.06669 14.3439 3.02091 14.3593C2.97512 14.3747 2.93306 14.3995 2.89739 14.4321C2.86172 14.4647 2.83323 14.5043 2.81374 14.5485C2.79425 14.5927 2.78418 14.6405 2.78418 14.6888C2.78418 14.7371 2.79425 14.7849 2.81374 14.8291C2.83323 14.8733 2.86172 14.913 2.89739 14.9455C2.93306 14.9781 2.97512 15.0029 3.02091 15.0183C3.06669 15.0337 3.11518 15.0394 3.16329 15.0351Z" fill="#05544F"/>
<path d="M12.9236 17.084H11.8749C11.8289 17.084 11.7833 17.0931 11.7408 17.1107C11.6983 17.1283 11.6596 17.1541 11.6271 17.1866C11.5945 17.2192 11.5687 17.2578 11.5511 17.3004C11.5335 17.3429 11.5244 17.3885 11.5244 17.4345C11.5244 17.4805 11.5335 17.5261 11.5511 17.5686C11.5687 17.6112 11.5945 17.6498 11.6271 17.6824C11.6596 17.7149 11.6983 17.7407 11.7408 17.7583C11.7833 17.7759 11.8289 17.785 11.8749 17.785H12.9236C13.0166 17.785 13.1057 17.7481 13.1715 17.6823C13.2372 17.6166 13.2741 17.5275 13.2741 17.4345C13.2741 17.3415 13.2372 17.2524 13.1715 17.1866C13.1057 17.1209 13.0166 17.084 12.9236 17.084Z" fill="#05544F"/>
<path d="M8.38653 17.084H3.16301C3.07005 17.084 2.9809 17.1209 2.91516 17.1866C2.84943 17.2524 2.8125 17.3415 2.8125 17.4345C2.8125 17.5275 2.84943 17.6166 2.91516 17.6823C2.9809 17.7481 3.07005 17.785 3.16301 17.785H8.38653C8.47949 17.785 8.56865 17.7481 8.63438 17.6823C8.70011 17.6166 8.73704 17.5275 8.73704 17.4345C8.73704 17.3415 8.70011 17.2524 8.63438 17.1866C8.56865 17.1209 8.47949 17.084 8.38653 17.084Z" fill="#05544F"/>
<path d="M21.6008 5.72788H16.0809V1.38492C16.0794 1.01659 15.9318 0.663905 15.6706 0.404256C15.4093 0.144607 15.0557 -0.000791934 14.6874 -3.40603e-05H1.39352C1.21103 -0.00078389 1.03018 0.0344653 0.861336 0.103695C0.692487 0.172925 0.538949 0.274776 0.409512 0.403419C0.280076 0.532062 0.177281 0.68497 0.107014 0.85339C0.0367462 1.02181 0.00038489 1.20243 1.17065e-05 1.38492V7.54885C0.00152049 7.91718 0.149093 8.26986 0.410345 8.52951C0.671596 8.78916 1.02519 8.93456 1.39352 8.9338H6.91056V11.5926H1.39352C1.02391 11.5941 0.669907 11.7418 0.408817 12.0034C0.147727 12.265 0.000761422 12.6193 1.17065e-05 12.9889V19.1301C-0.00150478 19.5014 0.14437 19.8582 0.405623 20.1221C0.666876 20.3861 1.02216 20.5356 1.39352 20.5378H9.50379L12.8835 22.9259C12.9442 22.97 13.0166 22.9948 13.0916 22.9971C13.145 22.994 13.1973 22.9804 13.2455 22.9572C13.3025 22.9277 13.3504 22.8832 13.3841 22.8284C13.4177 22.7737 13.4358 22.7108 13.4364 22.6466V20.5378H14.6874C15.0585 20.5348 15.4134 20.3851 15.6745 20.1213C15.9356 19.8576 16.0817 19.5012 16.0809 19.1301V14.6731H21.6008C21.9707 14.6716 22.325 14.524 22.5865 14.2625C22.8481 14.0009 22.9957 13.6466 22.9972 13.2768V7.12424C22.9957 6.75436 22.8481 6.40007 22.5865 6.13852C22.325 5.87698 21.9707 5.72938 21.6008 5.72788ZM0.695341 7.54885V1.38492C0.695714 1.29361 0.714069 1.20327 0.749358 1.11905C0.784647 1.03483 0.836179 0.958389 0.901011 0.894086C0.965843 0.829783 1.04271 0.77888 1.12721 0.744282C1.21172 0.709685 1.30221 0.69207 1.39352 0.692445H14.6874C14.7787 0.69207 14.8692 0.709685 14.9537 0.744282C15.0382 0.77888 15.1151 0.829783 15.1799 0.894086C15.2447 0.958389 15.2963 1.03483 15.3316 1.11905C15.3669 1.20327 15.3852 1.29361 15.3856 1.38492V7.54885C15.3833 7.73279 15.3089 7.90849 15.1783 8.03803C15.0477 8.16758 14.8714 8.24059 14.6874 8.24133H13.0916C13.0459 8.24057 13.0006 8.24882 12.9581 8.2656C12.9156 8.28237 12.8769 8.30735 12.8441 8.33911C12.8112 8.37086 12.785 8.40877 12.7668 8.45067C12.7487 8.49257 12.739 8.53763 12.7382 8.58329V10.3587L9.82296 8.30402C9.76412 8.26168 9.69309 8.23967 9.62063 8.24133H1.39352C1.20979 8.23986 1.03391 8.16661 0.903454 8.03722C0.772999 7.90783 0.69831 7.73256 0.695341 7.54885ZM15.3856 19.1301C15.3863 19.2222 15.3688 19.3136 15.3341 19.399C15.2993 19.4844 15.248 19.562 15.1831 19.6274C15.1182 19.6929 15.041 19.7448 14.9559 19.7803C14.8708 19.8157 14.7796 19.8339 14.6874 19.8339H13.0916C13.0453 19.8336 12.9994 19.8424 12.9566 19.8598C12.9137 19.8772 12.8747 19.903 12.8419 19.9356C12.809 19.9682 12.783 20.0069 12.7652 20.0497C12.7474 20.0924 12.7382 20.1382 12.7382 20.1845V21.9627L9.82296 19.8966C9.76412 19.8543 9.69309 19.8323 9.62063 19.8339H1.39352C1.30146 19.8336 1.21037 19.8151 1.12546 19.7795C1.04055 19.7439 0.963482 19.692 0.89865 19.6266C0.833818 19.5612 0.782495 19.4838 0.747611 19.3986C0.712727 19.3134 0.694966 19.2221 0.695341 19.1301V12.9889C0.696075 12.8035 0.76969 12.6257 0.900303 12.494C1.03092 12.3624 1.20806 12.2873 1.39352 12.2851H6.91056V13.2768C6.91206 13.6471 7.06005 14.0019 7.32221 14.2635C7.58437 14.5251 7.93939 14.6724 8.30976 14.6731H9.55793V16.7819C9.55761 16.846 9.57501 16.9089 9.6082 16.9637C9.64139 17.0185 9.68908 17.0631 9.74601 17.0925C9.79631 17.116 9.85032 17.1304 9.9056 17.1353C9.97922 17.1328 10.0501 17.1068 10.1079 17.0612L13.4934 14.6731H15.3941L15.3856 19.1301ZM22.2961 13.2768C22.2961 13.4612 22.2229 13.638 22.0925 13.7684C21.9621 13.8988 21.7852 13.9721 21.6008 13.9721H13.3708C13.2994 13.9741 13.2304 13.9991 13.1742 14.0433L10.2533 16.1122V14.3226C10.2525 14.2304 10.2158 14.1421 10.1508 14.0766C10.0858 14.0111 9.99783 13.9736 9.9056 13.9721H8.30976C8.21808 13.9725 8.12721 13.9548 8.04236 13.92C7.95751 13.8853 7.88034 13.8342 7.81524 13.7696C7.75014 13.705 7.6984 13.6283 7.66297 13.5437C7.62754 13.4592 7.60911 13.3684 7.60873 13.2768V8.9338H9.50379L12.875 11.3333C12.9369 11.3736 13.0091 11.3953 13.083 11.396C13.1373 11.3967 13.1907 11.3818 13.2369 11.3532C13.2948 11.3247 13.3434 11.2804 13.3772 11.2255C13.411 11.1705 13.4286 11.1071 13.4278 11.0426V8.9338H14.6789C15.0472 8.93456 15.4008 8.78916 15.662 8.52951C15.9233 8.26986 16.0709 7.91718 16.0724 7.54885V6.43176H21.6008C21.692 6.43139 21.7823 6.44902 21.8667 6.48365C21.951 6.51828 22.0277 6.56923 22.0923 6.63357C22.1569 6.69791 22.2082 6.77438 22.2431 6.85858C22.2781 6.94278 22.2961 7.03306 22.2961 7.12424V13.2768Z" fill="#05544F"/>
<path d="M19.8339 8.47787H17.3946C17.3484 8.47787 17.3028 8.48705 17.2602 8.50487C17.2177 8.5227 17.1791 8.54882 17.1467 8.58171C17.1144 8.6146 17.0889 8.6536 17.0717 8.69644C17.0546 8.73928 17.0462 8.7851 17.0469 8.83124C17.0477 8.92348 17.0844 9.01178 17.1494 9.07728C17.2144 9.14277 17.3024 9.18027 17.3946 9.18175H19.8339C19.9259 9.17955 20.0135 9.14183 20.0783 9.07649C20.1431 9.01115 20.1802 8.92326 20.1816 8.83124C20.182 8.78521 20.1733 8.73955 20.156 8.69688C20.1387 8.65421 20.1132 8.61536 20.081 8.58255C20.0487 8.54974 20.0102 8.5236 19.9679 8.50564C19.9255 8.48768 19.88 8.47825 19.8339 8.47787Z" fill="#05544F"/>
<path d="M11.1224 11.2307H10.0738C9.98279 11.2299 9.89521 11.2651 9.83009 11.3287C9.76497 11.3922 9.72759 11.4789 9.72609 11.5698C9.72571 11.6158 9.7344 11.6615 9.75167 11.7042C9.76894 11.7468 9.79445 11.7857 9.82673 11.8185C9.85901 11.8513 9.89745 11.8774 9.93983 11.8954C9.98221 11.9134 10.0277 11.9228 10.0738 11.9232H11.1196C11.1655 11.9228 11.2109 11.9133 11.2531 11.8954C11.2953 11.8774 11.3336 11.8512 11.3656 11.8183C11.3977 11.7855 11.4229 11.7466 11.4399 11.7039C11.4568 11.6613 11.4652 11.6157 11.4644 11.5698C11.4637 11.4796 11.4273 11.3934 11.3632 11.3298C11.2992 11.2663 11.2126 11.2307 11.1224 11.2307Z" fill="#05544F"/>
<path d="M18.4375 11.2307H14.6046C14.5597 11.2303 14.5152 11.2388 14.4735 11.2556C14.4319 11.2725 14.394 11.2973 14.362 11.3288C14.33 11.3603 14.3045 11.3978 14.2869 11.4392C14.2694 11.4805 14.2602 11.5249 14.2598 11.5698C14.2591 11.6157 14.2674 11.6613 14.2844 11.7039C14.3013 11.7466 14.3265 11.7855 14.3586 11.8183C14.3907 11.8512 14.4289 11.8774 14.4711 11.8954C14.5134 11.9133 14.5587 11.9228 14.6046 11.9232H18.4375C18.5307 11.9224 18.6199 11.8849 18.6855 11.8187C18.7512 11.7525 18.788 11.663 18.788 11.5698C18.7858 11.4786 18.7478 11.3919 18.6822 11.3285C18.6166 11.265 18.5287 11.2299 18.4375 11.2307Z" fill="#05544F"/>
<path d="M8.39243 3.44245H12.9235C12.969 3.44208 13.014 3.4327 13.0559 3.41485C13.0978 3.39699 13.1357 3.37103 13.1675 3.33844C13.1993 3.30585 13.2243 3.26729 13.2411 3.22498C13.2579 3.18267 13.2662 3.13746 13.2654 3.09194C13.2655 3.00016 13.2298 2.91196 13.166 2.84601C13.1022 2.78006 13.0152 2.74153 12.9235 2.73857H8.39243C8.29917 2.74004 8.21014 2.77774 8.14419 2.84369C8.07823 2.90965 8.04053 2.99868 8.03906 3.09194C8.03906 3.13821 8.04822 3.18402 8.06601 3.22673C8.08381 3.26945 8.10988 3.30821 8.14273 3.3408C8.17558 3.37339 8.21456 3.39914 8.25742 3.41659C8.30027 3.43404 8.34616 3.44283 8.39243 3.44245Z" fill="#05544F"/>
<path d="M3.16327 3.44245H6.29795C6.34456 3.4436 6.39092 3.43536 6.43429 3.41822C6.47765 3.40109 6.51712 3.3754 6.55035 3.3427C6.58359 3.31 6.6099 3.27095 6.62774 3.22787C6.64557 3.18479 6.65456 3.13856 6.65416 3.09193C6.65416 2.99871 6.61732 2.90926 6.55167 2.84307C6.48602 2.77688 6.39687 2.73932 6.30365 2.73857H3.16897C3.07647 2.74079 2.98847 2.77891 2.92358 2.84486C2.8587 2.91081 2.82201 2.99942 2.8213 3.09193C2.82054 3.18365 2.85605 3.27196 2.9201 3.33761C2.98415 3.40327 3.07156 3.44095 3.16327 3.44245Z" fill="#05544F"/>
<path d="M10.826 5.84189C10.8267 5.79589 10.8183 5.7502 10.8011 5.70752C10.784 5.66483 10.7584 5.62602 10.726 5.59335C10.6936 5.56069 10.655 5.53484 10.6125 5.51733C10.5699 5.49981 10.5243 5.49099 10.4783 5.49138H3.16311C3.11721 5.49137 3.07177 5.50046 3.0294 5.51811C2.98703 5.53576 2.94858 5.56162 2.91626 5.59421C2.88394 5.6268 2.85839 5.66546 2.84108 5.70797C2.82378 5.75048 2.81507 5.79599 2.81544 5.84189C2.81544 5.88728 2.82447 5.93222 2.84201 5.97408C2.85955 6.01595 2.88525 6.0539 2.91761 6.08573C2.94997 6.11756 2.98834 6.14263 3.03049 6.15948C3.07264 6.17632 3.11772 6.18461 3.16311 6.18385H10.4783C10.5238 6.185 10.5691 6.17699 10.6114 6.16028C10.6537 6.14357 10.6922 6.11852 10.7247 6.08661C10.7571 6.0547 10.7828 6.01659 10.8002 5.97455C10.8176 5.93251 10.8264 5.88739 10.826 5.84189Z" fill="#05544F"/>
</g>
<defs>
<clipPath id="clip0_4_288">
<rect width="23" height="23" fill="white"/>
</clipPath>
</defs>
</svg>
