<svg width="16" height="19" viewBox="0 0 16 19" fill="none" xmlns="http://www.w3.org/2000/svg">
<g clip-path="url(#clip0_4_299)">
<path d="M15.9977 3.5539C15.9952 3.52785 15.9905 3.50207 15.9836 3.47685C15.9849 3.46833 15.9849 3.45967 15.9836 3.45116C15.9715 3.41855 15.9523 3.38903 15.9273 3.36476L12.6336 0.0957469C12.6101 0.0724428 12.5832 0.0527671 12.5538 0.0373716C12.5499 0.0394195 12.5454 0.0404881 12.541 0.0404881C12.5365 0.0404881 12.532 0.0394195 12.5281 0.0373716C12.5034 0.027599 12.4772 0.0220721 12.4507 0.0210266H2.13568C2.09781 0.021332 2.06037 0.0290637 2.02551 0.04378C1.99064 0.0584964 1.95902 0.0799092 1.93247 0.106796C1.90591 0.133683 1.88493 0.165516 1.87072 0.20048C1.85651 0.235443 1.84936 0.272851 1.84967 0.310568V1.5598H0.288352C0.212682 1.55979 0.14004 1.58941 0.086096 1.64226C0.0321524 1.69512 0.00123041 1.76698 0 1.84234V18.7081C0.00119021 18.7842 0.0318802 18.8568 0.0856363 18.9107C0.139392 18.9647 0.212041 18.9959 0.288352 18.9977H13.8854C13.9617 18.9965 14.0344 18.9654 14.0879 18.9112C14.1415 18.8571 14.1714 18.7841 14.1714 18.7081V17.4379H15.7116C15.7498 17.4395 15.7878 17.4333 15.8235 17.4198C15.8591 17.4063 15.8916 17.3857 15.919 17.3593C15.9465 17.3328 15.9682 17.3011 15.9829 17.2661C15.9976 17.231 16.005 17.1933 16.0047 17.1554V3.57025C16.0034 3.5644 16.001 3.55885 15.9977 3.5539ZM15.0154 3.2807H12.7039V0.980717L15.0154 3.2807ZM13.5924 18.4186H0.581392V2.13655H1.83326V17.1437C1.83133 17.182 1.83733 17.2204 1.85089 17.2563C1.86446 17.2923 1.8853 17.3251 1.91212 17.3526C1.93894 17.3802 1.97117 17.402 2.0068 17.4167C2.04244 17.4314 2.08072 17.4386 2.11927 17.4379H13.5924V18.4186ZM15.4233 16.8541H2.40762V0.57209H12.1248V3.57025C12.126 3.64666 12.1571 3.71961 12.2113 3.77365C12.2656 3.82769 12.3388 3.85858 12.4155 3.85979H15.4233V16.8541Z" fill="#05544F"/>
<path d="M4.70242 3.85979H9.75678C9.8341 3.8598 9.90828 3.82937 9.96317 3.77513C10.0181 3.7209 10.0492 3.64726 10.0498 3.57025C10.0498 3.53203 10.0422 3.49419 10.0275 3.45891C10.0127 3.42363 9.9911 3.3916 9.96385 3.36468C9.93661 3.33777 9.90429 3.31649 9.86875 3.30208C9.83321 3.28766 9.79516 3.2804 9.75678 3.28071H4.70242C4.66436 3.28071 4.62667 3.28821 4.59153 3.30279C4.55639 3.31737 4.5245 3.33874 4.4977 3.36565C4.47089 3.39257 4.4497 3.42451 4.43534 3.45963C4.42099 3.49474 4.41376 3.53234 4.41407 3.57025C4.41467 3.64645 4.44517 3.7194 4.49906 3.7735C4.55294 3.82761 4.62592 3.85858 4.70242 3.85979Z" fill="#05544F"/>
<path d="M4.41407 5.58535C4.41466 5.66178 4.44508 5.73497 4.4989 5.78945C4.55272 5.84393 4.62571 5.87541 4.70242 5.87723H13.2264C13.3031 5.87541 13.3761 5.84393 13.4299 5.78945C13.4837 5.73497 13.5141 5.66178 13.5147 5.58535C13.515 5.54744 13.5078 5.50984 13.4935 5.47472C13.4791 5.43961 13.4579 5.40767 13.4311 5.38075C13.4043 5.35383 13.3724 5.33247 13.3373 5.31789C13.3021 5.30331 13.2644 5.29581 13.2264 5.29581H4.70242C4.66436 5.29581 4.62667 5.30331 4.59153 5.31789C4.55639 5.33247 4.5245 5.35383 4.4977 5.38075C4.47089 5.40767 4.4497 5.43961 4.43534 5.47472C4.42099 5.50984 4.41376 5.54744 4.41407 5.58535Z" fill="#05544F"/>
<path d="M4.70251 7.88535H12.3614C12.4331 7.87889 12.4998 7.84596 12.5483 7.79303C12.5969 7.74011 12.6238 7.671 12.6238 7.59931C12.6238 7.52762 12.5969 7.45852 12.5483 7.40559C12.4998 7.35266 12.4331 7.31973 12.3614 7.31327H4.70251C4.66262 7.30968 4.62241 7.3144 4.58445 7.32714C4.54649 7.33988 4.51161 7.36036 4.48204 7.38728C4.45247 7.41419 4.42885 7.44694 4.41269 7.48345C4.39653 7.51995 4.38818 7.55941 4.38818 7.59931C4.38818 7.63921 4.39653 7.67867 4.41269 7.71518C4.42885 7.75168 4.45247 7.78444 4.48204 7.81135C4.51161 7.83826 4.54649 7.85874 4.58445 7.87148C4.62241 7.88422 4.66262 7.88894 4.70251 7.88535Z" fill="#05544F"/>
<path d="M4.70251 9.90046H8.02441C8.06431 9.90405 8.10451 9.89933 8.14247 9.88658C8.18043 9.87384 8.21531 9.85336 8.24488 9.82645C8.27445 9.79954 8.29807 9.76679 8.31423 9.73028C8.33039 9.69377 8.33874 9.65431 8.33874 9.61442C8.33874 9.57452 8.33039 9.53506 8.31423 9.49855C8.29807 9.46205 8.27445 9.42929 8.24488 9.40238C8.21531 9.37547 8.18043 9.35499 8.14247 9.34225C8.10451 9.32951 8.06431 9.32478 8.02441 9.32838H4.70251C4.66262 9.32478 4.62241 9.32951 4.58445 9.34225C4.54649 9.35499 4.51161 9.37547 4.48204 9.40238C4.45247 9.42929 4.42885 9.46205 4.41269 9.49855C4.39653 9.53506 4.38818 9.57452 4.38818 9.61442C4.38818 9.65431 4.39653 9.69377 4.41269 9.73028C4.42885 9.76679 4.45247 9.79954 4.48204 9.82645C4.51161 9.85336 4.54649 9.87384 4.58445 9.88658C4.62241 9.89933 4.66262 9.90405 4.70251 9.90046Z" fill="#05544F"/>
<path d="M13.2268 9.32838H9.61657C9.57668 9.32478 9.53647 9.32951 9.49851 9.34225C9.46055 9.35499 9.42567 9.37547 9.3961 9.40238C9.36653 9.42929 9.34291 9.46205 9.32675 9.49855C9.31059 9.53506 9.30225 9.57452 9.30225 9.61442C9.30225 9.65431 9.31059 9.69377 9.32675 9.73028C9.34291 9.76679 9.36653 9.79954 9.3961 9.82645C9.42567 9.85336 9.46055 9.87384 9.49851 9.88658C9.53647 9.89933 9.57668 9.90405 9.61657 9.90046H13.2268C13.2667 9.90405 13.3069 9.89933 13.3449 9.88658C13.3828 9.87384 13.4177 9.85336 13.4473 9.82645C13.4769 9.79954 13.5005 9.76679 13.5166 9.73028C13.5328 9.69377 13.5412 9.65431 13.5412 9.61442C13.5412 9.57452 13.5328 9.53506 13.5166 9.49855C13.5005 9.46205 13.4769 9.42929 13.4473 9.40238C13.4177 9.37547 13.3828 9.35499 13.3449 9.34225C13.3069 9.32951 13.2667 9.32478 13.2268 9.32838Z" fill="#05544F"/>
<path d="M4.70251 11.9156H11.4893C11.5292 11.9192 11.5694 11.9144 11.6074 11.9017C11.6453 11.8889 11.6802 11.8685 11.7098 11.8416C11.7394 11.8146 11.763 11.7819 11.7791 11.7454C11.7953 11.7089 11.8036 11.6694 11.8036 11.6295C11.8036 11.5896 11.7953 11.5502 11.7791 11.5137C11.763 11.4772 11.7394 11.4444 11.7098 11.4175C11.6802 11.3906 11.6453 11.3701 11.6074 11.3574C11.5694 11.3446 11.5292 11.3399 11.4893 11.3435H4.70251C4.66262 11.3399 4.62241 11.3446 4.58445 11.3574C4.54649 11.3701 4.51161 11.3906 4.48204 11.4175C4.45247 11.4444 4.42885 11.4772 4.41269 11.5137C4.39653 11.5502 4.38818 11.5896 4.38818 11.6295C4.38818 11.6694 4.39653 11.7089 4.41269 11.7454C4.42885 11.7819 4.45247 11.8146 4.48204 11.8416C4.51161 11.8685 4.54649 11.8889 4.58445 11.9017C4.62241 11.9144 4.66262 11.9192 4.70251 11.9156Z" fill="#05544F"/>
<path d="M7.73879 13.3516H4.69117C4.61828 13.3581 4.55047 13.3916 4.50109 13.4454C4.4517 13.4991 4.42432 13.5694 4.42432 13.6423C4.42432 13.7152 4.4517 13.7855 4.50109 13.8393C4.55047 13.8931 4.61828 13.9265 4.69117 13.933H7.73879C7.81169 13.9265 7.87949 13.8931 7.92888 13.8393C7.97826 13.7855 8.00565 13.7152 8.00565 13.6423C8.00565 13.5694 7.97826 13.4991 7.92888 13.4454C7.87949 13.3916 7.81169 13.3581 7.73879 13.3516Z" fill="#05544F"/>
<path d="M13.2268 13.3516H11.3513C11.2784 13.3581 11.2106 13.3916 11.1612 13.4454C11.1119 13.4991 11.0845 13.5694 11.0845 13.6423C11.0845 13.7152 11.1119 13.7855 11.1612 13.8393C11.2106 13.8931 11.2784 13.9265 11.3513 13.933H13.2268C13.2997 13.9265 13.3675 13.8931 13.4169 13.8393C13.4663 13.7855 13.4936 13.7152 13.4936 13.6423C13.4936 13.5694 13.4663 13.4991 13.4169 13.4454C13.3675 13.3916 13.2997 13.3581 13.2268 13.3516Z" fill="#05544F"/>
</g>
<defs>
<clipPath id="clip0_4_299">
<rect width="16" height="19" fill="white"/>
</clipPath>
</defs>
</svg>
