<svg width="32" height="32" viewBox="0 0 32 32" fill="none" xmlns="http://www.w3.org/2000/svg">
<rect x="0.5" y="0.5" width="31" height="31" rx="3.5" fill="#226A47" fill-opacity="0.05"/>
<path d="M17.7678 17.7678C18.2366 17.2989 18.5 16.663 18.5 16C18.5 15.337 18.2366 14.7011 17.7678 14.2322C17.2989 13.7634 16.663 13.5 16 13.5C15.337 13.5 14.7011 13.7634 14.2322 14.2322C13.7634 14.7011 13.5 15.337 13.5 16C13.5 16.663 13.7634 17.2989 14.2322 17.7678C14.7011 18.2366 15.337 18.5 16 18.5C16.663 18.5 17.2989 18.2366 17.7678 17.7678Z" stroke="#226A47" stroke-width="1.5" stroke-linecap="round" stroke-linejoin="round"/>
<path d="M8.04883 16.0003C9.11049 12.6195 12.2697 10.167 16.0005 10.167C19.7322 10.167 22.8905 12.6195 23.9522 16.0003C22.8905 19.3812 19.7322 21.8337 16.0005 21.8337C12.2697 21.8337 9.11049 19.3812 8.04883 16.0003Z" stroke="#226A47" stroke-width="1.5" stroke-linecap="round" stroke-linejoin="round"/>
<rect x="0.5" y="0.5" width="31" height="31" rx="3.5" stroke="#226A47"/>
</svg>
