<svg width="24" height="28" viewBox="0 0 24 28" fill="none" xmlns="http://www.w3.org/2000/svg">
<mask id="mask0_1673_8019" style="mask-type:alpha" maskUnits="userSpaceOnUse" x="0" y="0" width="24" height="28">
<path d="M22.0588 28H1.94118C0.869095 28 0 27.1046 0 26V2C0 0.895431 0.869095 0 1.94118 0H15L24 9.27273V26C24 27.1046 23.1309 28 22.0588 28Z" fill="url(#paint0_linear_1673_8019)"/>
</mask>
<g mask="url(#mask0_1673_8019)">
<path d="M22.0588 28H1.94118C0.869095 28 0 27.1046 0 26V2C0 0.895431 0.869095 0 1.94118 0H15L24 9.27273V26C24 27.1046 23.1309 28 22.0588 28Z" fill="#FF7981"/>
<path d="M5.49141 19.7627C5.40312 19.7627 5.32876 19.7316 5.26835 19.6693C5.20794 19.6071 5.17773 19.5305 5.17773 19.4395V15.0442C5.17773 14.9533 5.20794 14.8767 5.26835 14.8144C5.32876 14.7474 5.40312 14.7139 5.49141 14.7139H7.0807C7.52218 14.7139 7.88232 14.7905 8.16115 14.9437C8.43997 15.0969 8.63979 15.2932 8.76062 15.5326C8.88144 15.772 8.94185 16.0305 8.94185 16.3082C8.94185 16.5859 8.88144 16.8445 8.76062 17.0839C8.63979 17.3233 8.43997 17.5196 8.16115 17.6728C7.88232 17.826 7.52218 17.9026 7.0807 17.9026H5.81206V19.4395C5.81206 19.5305 5.77953 19.6071 5.71447 19.6693C5.65406 19.7316 5.57971 19.7627 5.49141 19.7627ZM7.01797 17.285C7.49197 17.285 7.82423 17.1916 8.01476 17.0049C8.20994 16.8181 8.30753 16.5859 8.30753 16.3082C8.30753 16.0305 8.20994 15.7983 8.01476 15.6116C7.82423 15.4249 7.49197 15.3315 7.01797 15.3315H5.81206V17.285H7.01797Z" fill="white"/>
<path d="M10.6627 19.7268C10.5744 19.7268 10.5001 19.6957 10.4397 19.6334C10.3792 19.5712 10.349 19.4946 10.349 19.4036V15.0442C10.349 14.9533 10.3792 14.8767 10.4397 14.8144C10.5001 14.7474 10.5744 14.7139 10.6627 14.7139H12.0638C12.5936 14.7139 13.042 14.836 13.4091 15.0801C13.7809 15.3195 14.0597 15.6307 14.2456 16.0138C14.4315 16.3968 14.5244 16.799 14.5244 17.2203C14.5244 17.6417 14.4315 18.0438 14.2456 18.4269C14.0597 18.8099 13.7809 19.1235 13.4091 19.3677C13.042 19.6071 12.5936 19.7268 12.0638 19.7268H10.6627ZM11.9871 19.1163C12.3682 19.1163 12.7028 19.0373 12.9909 18.8793C13.279 18.7165 13.5021 18.4939 13.6601 18.2114C13.8181 17.9241 13.8971 17.5938 13.8971 17.2203C13.8971 16.8469 13.8181 16.5189 13.6601 16.2364C13.5021 15.9491 13.279 15.7265 12.9909 15.5685C12.7028 15.4057 12.3682 15.3243 11.9871 15.3243H10.9834V19.1163H11.9871Z" fill="white"/>
<path d="M16.3854 19.7627C16.2971 19.7627 16.2228 19.7316 16.1623 19.6693C16.1019 19.6071 16.0717 19.5305 16.0717 19.4395V15.0442C16.0717 14.9533 16.1019 14.8767 16.1623 14.8144C16.2228 14.7474 16.2971 14.7139 16.3854 14.7139H19.097C19.1806 14.7139 19.2503 14.745 19.3061 14.8072C19.3665 14.8647 19.3967 14.9365 19.3967 15.0227C19.3967 15.1089 19.3665 15.1807 19.3061 15.2381C19.2503 15.2956 19.1806 15.3243 19.097 15.3243H16.7061V16.9115H18.853C18.9366 16.9115 19.0063 16.9426 19.0621 17.0049C19.1225 17.0623 19.1527 17.1341 19.1527 17.2203C19.1527 17.3065 19.1225 17.3783 19.0621 17.4358C19.0063 17.4932 18.9366 17.522 18.853 17.522H16.7061V19.4395C16.7061 19.5305 16.6735 19.6071 16.6085 19.6693C16.5481 19.7316 16.4737 19.7627 16.3854 19.7627Z" fill="white"/>
<path fill-rule="evenodd" clip-rule="evenodd" d="M7.89264 16.8726L7.89342 16.8718C8.05215 16.7199 8.12979 16.5362 8.12979 16.3084C8.12979 16.0806 8.05215 15.8969 7.89342 15.745L7.89264 15.7443L7.89187 15.7435C7.75205 15.6065 7.47835 15.5135 7.01671 15.5135H5.98726V17.1033H7.01671C7.47835 17.1033 7.75205 17.0103 7.89187 16.8733L7.89264 16.8726ZM5.81079 17.2851V15.3317H7.01671C7.49071 15.3317 7.82297 15.425 8.0135 15.6118C8.20868 15.7985 8.30626 16.0307 8.30626 16.3084C8.30626 16.5861 8.20868 16.8183 8.0135 17.005C7.82297 17.1918 7.49071 17.2851 7.01671 17.2851H5.81079ZM13.5027 19.5212L13.5022 19.5215C13.1013 19.783 12.6184 19.9088 12.0625 19.9088H10.6615C10.5281 19.9088 10.4083 19.8597 10.3136 19.7622C10.2189 19.6646 10.1713 19.5412 10.1713 19.4038V15.0444C10.1713 14.9081 10.2181 14.7856 10.3113 14.6884C10.4046 14.5862 10.5249 14.5322 10.6615 14.5322H12.0625C12.6185 14.5322 13.1015 14.6605 13.5025 14.9268C13.8997 15.1829 14.2011 15.5184 14.4022 15.9326C14.6001 16.3405 14.6996 16.7705 14.6996 17.2205C14.6996 17.6705 14.6001 18.1005 14.4022 18.5084C14.2011 18.9226 13.8997 19.2604 13.5027 19.5212ZM13.4079 15.0803C13.0407 14.8361 12.5923 14.714 12.0625 14.714H10.6615C10.5732 14.714 10.4988 14.7476 10.4384 14.8146C10.378 14.8768 10.3478 14.9534 10.3478 15.0444V19.4038C10.3478 19.4947 10.378 19.5713 10.4384 19.6336C10.4988 19.6958 10.5732 19.727 10.6615 19.727H12.0625C12.5923 19.727 13.0407 19.6073 13.4079 19.3679C13.7796 19.1237 14.0585 18.8101 14.2443 18.427C14.4302 18.044 14.5232 17.6418 14.5232 17.2205C14.5232 16.7992 14.4302 16.397 14.2443 16.014C14.0585 15.6309 13.7796 15.3197 13.4079 15.0803ZM13.5056 16.3268L13.5053 16.3262C13.3641 16.0696 13.1658 15.8713 12.9067 15.7292L12.9057 15.7286L12.9048 15.7281C12.6466 15.5822 12.342 15.5063 11.9859 15.5063H11.1586V18.9347H11.9859C12.3424 18.9347 12.6473 18.861 12.9057 18.7195C13.166 18.5723 13.3646 18.3733 13.5056 18.1214C13.6465 17.865 13.7193 17.5665 13.7193 17.2205C13.7193 16.8742 13.6463 16.5784 13.5059 16.3274L13.5056 16.3268ZM13.6588 18.2116C13.5008 18.4941 13.2777 18.7167 12.9896 18.8795C12.7015 19.0375 12.3669 19.1165 11.9859 19.1165H10.9821V15.3245H11.9859C12.3669 15.3245 12.7015 15.4059 12.9896 15.5687C13.2777 15.7267 13.5008 15.9493 13.6588 16.2366C13.8168 16.5191 13.8958 16.847 13.8958 17.2205C13.8958 17.594 13.8168 17.9243 13.6588 18.2116ZM5.49015 19.9447C5.3568 19.9447 5.23703 19.8957 5.1423 19.7981C5.04758 19.7005 5 19.5771 5 19.4397V15.0444C5 14.9081 5.04681 14.7856 5.14 14.6884C5.23328 14.5862 5.35356 14.5322 5.49015 14.5322H7.07944C7.53901 14.5322 7.93042 14.6117 8.24293 14.7834C8.5466 14.9503 8.77551 15.1707 8.91592 15.4489C9.05021 15.715 9.11706 16.0024 9.11706 16.3084C9.11706 16.6144 9.05021 16.9019 8.91592 17.1679C8.77551 17.4461 8.5466 17.6665 8.24293 17.8334C7.93042 18.0051 7.53901 18.0846 7.07944 18.0846H5.98726V19.4397C5.98726 19.5804 5.93491 19.7043 5.83567 19.8004C5.74131 19.8965 5.62241 19.9447 5.49015 19.9447ZM5.71321 19.6695C5.65279 19.7317 5.57844 19.7629 5.49015 19.7629C5.40185 19.7629 5.3275 19.7317 5.26709 19.6695C5.20668 19.6073 5.17647 19.5307 5.17647 19.4397V15.0444C5.17647 14.9534 5.20668 14.8768 5.26709 14.8146C5.3275 14.7476 5.40185 14.714 5.49015 14.714H7.07944C7.52091 14.714 7.88106 14.7907 8.15988 14.9439C8.43871 15.0971 8.63853 15.2934 8.75935 15.5328C8.88018 15.7722 8.94059 16.0307 8.94059 16.3084C8.94059 16.5861 8.88018 16.8447 8.75935 17.084C8.63853 17.3234 8.43871 17.5197 8.15988 17.673C7.88106 17.8262 7.52091 17.9028 7.07944 17.9028H5.81079V19.4397C5.81079 19.5307 5.77826 19.6073 5.71321 19.6695ZM16.3841 19.9447C16.2508 19.9447 16.131 19.8957 16.0363 19.7981C15.9416 19.7005 15.894 19.5771 15.894 19.4397V15.0444C15.894 14.9081 15.9408 14.7856 16.034 14.6884C16.1273 14.5862 16.2476 14.5322 16.3841 14.5322H19.0957C19.2253 14.5322 19.3405 14.582 19.4297 14.6788C19.5236 14.7707 19.5719 14.8894 19.5719 15.0229C19.5719 15.1576 19.5227 15.2772 19.4271 15.3694C19.3365 15.4615 19.2218 15.5063 19.0957 15.5063H16.8813V16.7299H18.8517C18.9813 16.7299 19.0965 16.7796 19.1857 16.8764C19.2796 16.9683 19.3279 17.087 19.3279 17.2205C19.3279 17.3552 19.2787 17.4749 19.1831 17.5671C19.0925 17.6591 18.9779 17.704 18.8517 17.704H16.8813V19.4397C16.8813 19.5804 16.8289 19.7043 16.7297 19.8004C16.6353 19.8965 16.5164 19.9447 16.3841 19.9447ZM16.6072 19.6695C16.6723 19.6073 16.7048 19.5307 16.7048 19.4397V17.5221H18.8517C18.9354 17.5221 19.0051 17.4934 19.0608 17.436C19.1213 17.3785 19.1515 17.3067 19.1515 17.2205C19.1515 17.1343 19.1213 17.0625 19.0608 17.005C19.0051 16.9428 18.9354 16.9117 18.8517 16.9117H16.7048V15.3245H19.0957C19.1793 15.3245 19.2491 15.2958 19.3048 15.2383C19.3652 15.1809 19.3954 15.109 19.3954 15.0229C19.3954 14.9367 19.3652 14.8649 19.3048 14.8074C19.2491 14.7452 19.1793 14.714 19.0957 14.714H16.3841C16.2958 14.714 16.2215 14.7476 16.1611 14.8146C16.1007 14.8768 16.0705 14.9534 16.0705 15.0444V19.4397C16.0705 19.5307 16.1007 19.6073 16.1611 19.6695C16.2215 19.7317 16.2958 19.7629 16.3841 19.7629C16.4724 19.7629 16.5468 19.7317 16.6072 19.6695Z" fill="white"/>
<g opacity="0.7" filter="url(#filter0_d_1673_8019)">
<path d="M24 9.27273H16.9412C15.8691 9.27273 15 8.3773 15 7.27273V0L24 9.27273Z" fill="#D03954"/>
</g>
</g>
<defs>
<filter id="filter0_d_1673_8019" x="-8" y="-24" width="59" height="59.2725" filterUnits="userSpaceOnUse" color-interpolation-filters="sRGB">
<feFlood flood-opacity="0" result="BackgroundImageFix"/>
<feColorMatrix in="SourceAlpha" type="matrix" values="0 0 0 0 0 0 0 0 0 0 0 0 0 0 0 0 0 0 127 0" result="hardAlpha"/>
<feOffset dx="2" dy="1"/>
<feGaussianBlur stdDeviation="12.5"/>
<feColorMatrix type="matrix" values="0 0 0 0 0 0 0 0 0 0 0 0 0 0 0 0 0 0 0.33 0"/>
<feBlend mode="normal" in2="BackgroundImageFix" result="effect1_dropShadow_1673_8019"/>
<feBlend mode="normal" in="SourceGraphic" in2="effect1_dropShadow_1673_8019" result="shape"/>
</filter>
<linearGradient id="paint0_linear_1673_8019" x1="12" y1="0" x2="12" y2="28" gradientUnits="userSpaceOnUse">
<stop stop-color="#FF7979"/>
<stop offset="1" stop-color="#E85555"/>
</linearGradient>
</defs>
</svg>
