<svg width="188" height="70" viewBox="0 0 188 70" fill="none" xmlns="http://www.w3.org/2000/svg">
<path d="M36.2924 34.9032H14.9106L10.6941 44.7555H2.52441L21.7529 2.18677H29.5763L48.8806 44.7555H40.5847L36.2924 34.9032ZM33.663 28.7025L25.6087 10.093L17.5977 28.7025H33.663Z" fill="white"/>
<path d="M82.9013 22.9792H90.4145V39.9442C88.1173 41.7401 85.5083 43.1008 82.7173 43.9584C79.7957 44.8894 76.746 45.3606 73.6784 45.3551C69.5717 45.4164 65.516 44.4445 61.8873 42.5294C58.4713 40.7268 55.6188 38.024 53.6419 34.7165C51.6232 31.3112 50.5873 27.4175 50.6482 23.4639C50.5858 19.5091 51.6218 15.6138 53.6419 12.2078C55.6253 8.89399 58.49 6.19021 61.9198 4.39489C65.5807 2.48049 69.6662 1.51253 73.801 1.57996C77.1429 1.53602 80.4618 2.13461 83.5758 3.34288C86.4172 4.45681 88.9509 6.22928 90.9663 8.51317L85.9563 13.3783C84.4289 11.8088 82.5947 10.5674 80.5668 9.73064C78.5389 8.89391 76.3603 8.47956 74.1653 8.51317C71.3701 8.4654 68.6077 9.11857 66.1327 10.4125C63.8371 11.6256 61.9318 13.4588 60.6357 15.7013C59.2854 18.0722 58.599 20.7605 58.6483 23.4855C58.6087 26.1707 59.2951 28.8171 60.6357 31.1476C61.9403 33.4 63.8419 35.2519 66.1327 36.501C68.5767 37.8233 71.3227 38.4937 74.104 38.447C77.444 38.447 80.3764 37.7169 82.9013 36.2568V22.9792Z" fill="white"/>
<path d="M128.842 44.7555L120.11 32.2893C119.749 32.3288 119.194 32.3504 118.458 32.3504H108.802V44.7555H100.867V2.18677H118.458C122.166 2.18677 125.394 2.79595 128.143 4.01432C130.726 5.09142 132.928 6.91172 134.466 9.24206C135.93 11.516 136.662 14.2125 136.662 17.3314C136.662 20.5341 135.878 23.2868 134.311 25.5895C132.743 27.8922 130.492 29.6192 127.558 30.7706L137.395 44.7734L128.842 44.7555ZM125.957 11.066C124.163 9.60829 121.536 8.87942 118.076 8.87942H108.802V25.8516H118.09C121.55 25.8516 124.178 25.112 125.971 23.6327C127.765 22.1534 128.661 20.0554 128.659 17.3386C128.659 14.617 127.763 12.5262 125.971 11.066H125.957Z" fill="white"/>
<path d="M12.1268 53.3798C13.0749 53.7722 13.8828 54.4389 14.446 55.2935C14.9751 56.1925 15.254 57.2156 15.254 58.2575C15.254 59.2994 14.9751 60.3224 14.446 61.2214C13.8845 62.0818 13.0766 62.7547 12.1268 63.1531C11.0012 63.6207 9.78968 63.8482 8.57035 63.8209H5.02474V68.3342H2.11035V52.7084H8.57035C9.79011 52.6802 11.0021 52.909 12.1268 53.3798ZM11.3296 60.5608C11.6418 60.2637 11.8903 59.9068 12.06 59.5116C12.2298 59.1163 12.3173 58.6909 12.3173 58.2611C12.3173 57.8312 12.2298 57.4058 12.06 57.0105C11.8903 56.6153 11.6418 56.2584 11.3296 55.9613C10.6684 55.4252 9.70653 55.1571 8.44411 55.1571H5.02474V61.365H8.43689C9.70653 61.3722 10.6696 61.1065 11.3296 60.5679V60.5608Z" fill="white"/>
<path d="M18.1719 52.7083H21.0863V65.8853H29.2992V68.3412H18.1719V52.7083Z" fill="white"/>
<path d="M41.9052 64.722H34.0529L32.5055 68.3412H29.501L36.5669 52.7083H39.4525L46.5293 68.3412H43.4814L41.9052 64.722ZM40.9421 62.4456L37.9808 55.6237L35.0412 62.4456H40.9421Z" fill="white"/>
<path d="M50.9226 55.1641H45.7178V52.7083H59.0454V55.1641H53.8406V68.3412H50.9226V55.1641Z" fill="white"/>
<path d="M64.1602 55.1426V59.9H71.7347V62.3559H64.1602V68.3412H61.2422V52.7083H72.7086V55.1426H64.1602Z" fill="white"/>
<path d="M78.3607 67.5261C77.1043 66.8646 76.0559 65.8706 75.3309 64.6538C74.6097 63.396 74.2305 61.9729 74.2305 60.5247C74.2305 59.0765 74.6097 57.6534 75.3309 56.3957C76.0559 55.1788 77.1043 54.1848 78.3607 53.5233C79.7008 52.8419 81.1842 52.4866 82.689 52.4866C84.1938 52.4866 85.6772 52.8419 87.0173 53.5233C88.2711 54.187 89.3179 55.1806 90.0435 56.3957C90.7633 57.6538 91.1417 59.0768 91.1417 60.5247C91.1417 61.9726 90.7633 63.3956 90.0435 64.6538C89.3179 65.8689 88.2711 66.8624 87.0173 67.5261C85.6772 68.2075 84.1938 68.5628 82.689 68.5628C81.1842 68.5628 79.7008 68.2075 78.3607 67.5261ZM85.5168 65.3144C86.3447 64.8546 87.0279 64.1746 87.4898 63.3504C87.9608 62.4824 88.2074 61.5113 88.2074 60.5247C88.2074 59.5381 87.9608 58.567 87.4898 57.699C87.0289 56.874 86.3456 56.1938 85.5168 55.735C84.6472 55.273 83.6766 55.0313 82.6908 55.0313C81.705 55.0313 80.7344 55.273 79.8648 55.735C79.0349 56.1935 78.3503 56.8738 77.8882 57.699C77.4172 58.567 77.1705 59.5381 77.1705 60.5247C77.1705 61.5113 77.4172 62.4824 77.8882 63.3504C78.3514 64.1748 79.0357 64.8548 79.8648 65.3144C80.7344 65.7764 81.705 66.0181 82.6908 66.0181C83.6766 66.0181 84.6472 65.7764 85.5168 65.3144Z" fill="white"/>
<path d="M104.517 68.3411L101.311 63.7632C101.174 63.7776 100.972 63.7848 100.705 63.7848H97.1592V68.3411H94.2412V52.7082H100.705C101.923 52.6798 103.134 52.9087 104.258 53.3796C105.208 53.7739 106.017 54.4431 106.58 55.3005C107.134 56.191 107.415 57.2229 107.388 58.2698C107.416 59.3458 107.116 60.4048 106.526 61.3073C105.917 62.1802 105.05 62.8428 104.045 63.2031L107.652 68.3411H104.517ZM103.464 55.9683C102.804 55.4333 101.841 55.164 100.579 55.164H97.17V61.3971H100.579C101.852 61.3971 102.815 61.1242 103.464 60.5821C103.795 60.2974 104.056 59.9409 104.227 59.54C104.398 59.1391 104.473 58.7045 104.449 58.2698C104.475 57.8365 104.399 57.4031 104.229 57.0037C104.058 56.6043 103.796 56.2499 103.464 55.9683Z" fill="white"/>
<path d="M125.067 68.3412L125.045 57.9791L119.884 66.5531H118.585L113.424 58.1119V68.3412H110.643V52.7083H113.041L119.278 63.0704L125.409 52.7083H127.812L127.833 68.3412H125.067Z" fill="white"/>
<path d="M142.25 64.722H134.398L132.851 68.3412H129.85L136.916 52.7083H139.801L146.889 68.3412H143.841L142.25 64.722ZM141.287 62.4456L138.326 55.6237L135.386 62.4456H141.287Z" fill="white"/>
<path d="M148.936 67.9714C148.758 67.7996 148.618 67.5927 148.525 67.364C148.432 67.1352 148.388 66.8896 148.395 66.6429C148.398 66.2786 148.508 65.9231 148.713 65.6214C148.918 65.3197 149.209 65.0853 149.548 64.9479C149.887 64.8104 150.259 64.7761 150.617 64.8493C150.976 64.9225 151.304 65.0998 151.562 65.3589C151.819 65.618 151.993 65.9472 152.063 66.3049C152.132 66.6626 152.093 67.0327 151.951 67.3685C151.809 67.7042 151.57 67.9905 151.265 68.1911C150.959 68.3917 150.601 68.4977 150.235 68.4956C149.994 68.5005 149.755 68.4566 149.531 68.3664C149.308 68.2763 149.106 68.1419 148.936 67.9714Z" fill="white"/>
<path d="M156.584 66.7434C155.381 65.5299 154.78 63.7921 154.78 61.5301V52.7083H157.695V61.4188C157.695 64.485 159.026 66.0182 161.688 66.0182C164.349 66.0182 165.672 64.485 165.655 61.4188V52.7083H168.541V61.5301C168.541 63.7921 167.939 65.5299 166.737 66.7434C165.535 67.957 163.852 68.5638 161.688 68.5638C159.499 68.5734 157.798 67.9666 156.584 66.7434Z" fill="white"/>
<path d="M184.804 65.8853V68.3412H171.411V66.3988L180.656 55.1641H171.57V52.7083H184.515V54.6507L175.271 65.8853H184.804Z" fill="white"/>
<path d="M180.902 33.0326L180.783 33.2301L180.999 33.2121L180.902 33.0326ZM180.902 33.0326L180.783 33.2301L180.999 33.2121L180.902 33.0326ZM180.902 33.0326L180.783 33.2301L180.999 33.2121L180.902 33.0326ZM147.119 33.0326C147.018 33.2157 146.917 33.3916 146.82 33.5783C147.008 33.546 147.199 33.5173 147.39 33.4922C147.3 33.3378 147.206 33.1834 147.119 33.0326ZM180.902 33.0326L180.783 33.2301L180.999 33.2121L180.902 33.0326ZM146.82 33.5783C147.008 33.546 147.199 33.5173 147.39 33.4922C147.3 33.3414 147.206 33.187 147.119 33.0326C147.018 33.2121 146.917 33.3916 146.82 33.5747V33.5783ZM183.113 13.8594C182.911 13.4609 182.698 13.0659 182.471 12.6817C180.591 9.46725 177.896 6.79993 174.657 4.94602C171.417 3.09211 167.746 2.11646 164.009 2.11646C160.272 2.11646 156.601 3.09211 153.361 4.94602C150.121 6.79993 147.427 9.46725 145.547 12.6817C145.32 13.0659 145.103 13.4609 144.901 13.8594C143.417 16.8134 142.646 20.0714 142.65 23.3742C142.65 23.5788 142.65 23.7871 142.65 23.9882C142.65 24.3687 142.683 24.7493 142.715 25.1228C142.952 28.0829 143.812 30.9603 145.24 33.5676C145.316 33.7004 145.388 33.8368 145.467 33.9697C145.615 34.2246 145.767 34.4759 145.922 34.7201L146.102 35.0037C147.133 36.5701 148.366 37.9946 149.77 39.2405C150.052 39.4919 150.344 39.736 150.636 39.9586C152.804 41.6904 155.292 42.9833 157.958 43.7645C158.387 43.8902 158.824 44.0051 159.264 44.102C164.636 45.3052 170.267 44.4053 174.99 41.5887C175.351 41.3804 175.679 41.1614 176.014 40.9352C177.043 40.241 178.008 39.4589 178.9 38.5978C179.174 38.3321 179.441 38.0592 179.697 37.7828C180.579 36.8311 181.373 35.8025 182.07 34.7093L182.204 34.4939C182.395 34.1851 182.565 33.8728 182.752 33.5568L182.875 33.3234C184.293 30.6798 185.128 27.7652 185.324 24.7745C185.349 24.4154 185.364 24.0241 185.367 23.6471V23.3957C185.375 20.0853 184.603 16.8192 183.113 13.8594ZM183.441 24.6093C183.284 27.1325 182.631 29.6004 181.519 31.8729C181.324 32.2642 181.122 32.6484 180.902 33.029L180.783 33.2265C180.545 33.6322 180.289 34.0271 180.022 34.4149C179.536 35.1101 179.006 35.7733 178.435 36.4004C178.186 36.6733 177.93 36.939 177.663 37.1975C176.711 38.132 175.664 38.9658 174.539 39.6857C174.198 39.9083 173.848 40.1166 173.49 40.3105C169.612 42.4554 165.117 43.2251 160.743 42.4935C160.274 42.4145 159.812 42.3176 159.358 42.2063C156.599 41.5329 154.023 40.2642 151.812 38.4901C151.527 38.2603 151.246 38.0233 150.972 37.772C149.881 36.7934 148.906 35.6949 148.064 34.4975C147.83 34.1672 147.606 33.8261 147.39 33.4814C147.3 33.3306 147.206 33.1762 147.119 33.0218C146.898 32.6436 146.693 32.2594 146.503 31.8693C145.428 29.6765 144.78 27.3007 144.595 24.8678C144.566 24.5088 144.548 24.1497 144.544 23.762C144.544 23.6327 144.544 23.5034 144.544 23.3742C144.54 20.0954 145.376 16.8698 146.975 14.003C147.188 13.6189 147.412 13.2454 147.653 12.8792C149.419 10.1604 151.842 7.92514 154.698 6.37746C157.555 4.82978 160.756 4.01894 164.009 4.01894C167.261 4.01894 170.462 4.82978 173.319 6.37746C176.176 7.92514 178.598 10.1604 180.364 12.8792C180.602 13.2383 180.83 13.6189 181.039 13.9994C182.647 16.8735 183.487 20.1098 183.481 23.3993V23.525C183.477 23.8769 183.466 24.2431 183.441 24.6093ZM147.119 33.0326C147.018 33.2157 146.917 33.3916 146.82 33.5783C147.008 33.546 147.199 33.5173 147.39 33.4922C147.3 33.3378 147.206 33.1834 147.119 33.0326ZM180.902 33.0326L180.783 33.2301L180.999 33.2121L180.902 33.0326ZM147.119 33.0326C147.018 33.2157 146.917 33.3916 146.82 33.5783C147.008 33.546 147.199 33.5173 147.39 33.4922C147.3 33.3378 147.206 33.1834 147.119 33.0326ZM180.902 33.0326L180.783 33.2301L180.999 33.2121L180.902 33.0326ZM180.902 33.0326L180.783 33.2301L180.999 33.2121L180.902 33.0326Z" fill="white"/>
<path fill-rule="evenodd" clip-rule="evenodd" d="M164.696 32.7846C166.077 32.6412 167.366 32.0303 168.349 31.054C168.935 30.5072 169.405 29.849 169.731 29.1181C170.057 28.3873 170.232 27.5987 170.247 26.7992C171.249 29.5496 171.184 32.3968 168.771 34.7988C167.68 35.8857 166.24 36.5577 164.703 36.6982V32.7846H164.696ZM159.357 34.7988C158.948 34.4011 158.585 33.9591 158.275 33.4811C158.51 33.5673 158.744 33.6607 158.975 33.7684C160.382 34.4044 161.618 35.3629 162.582 36.5654C161.358 36.2942 160.237 35.6815 159.35 34.7988H159.357ZM156.288 20.0097C156.162 20.0392 156.03 20.0363 155.906 20.0012C155.781 19.9661 155.668 19.9 155.576 19.8091C155.484 19.7181 155.417 19.6054 155.382 19.4815C155.346 19.3577 155.342 19.2268 155.372 19.1013C155.402 18.963 155.472 18.8362 155.572 18.7358C155.672 18.6354 155.799 18.5654 155.938 18.534C156.035 18.5104 156.136 18.5061 156.235 18.5214C156.334 18.5367 156.429 18.5713 156.515 18.6231C156.6 18.675 156.675 18.7431 156.734 18.8236C156.793 18.9041 156.836 18.9954 156.859 19.0923C156.883 19.1892 156.887 19.2898 156.872 19.3883C156.857 19.4869 156.822 19.5814 156.77 19.6666C156.718 19.7518 156.649 19.8259 156.569 19.8848C156.488 19.9436 156.396 19.9861 156.299 20.0097H156.288ZM176.151 24.5049C176.189 24.6653 176.173 24.8337 176.107 24.9845C176.04 25.1352 175.925 25.2602 175.781 25.3404C175.636 25.4206 175.469 25.4517 175.305 25.429C175.141 25.4062 174.989 25.3309 174.872 25.2143C174.755 25.0978 174.679 24.9465 174.657 24.7832C174.634 24.62 174.665 24.4538 174.745 24.3099C174.826 24.1659 174.952 24.052 175.103 23.9855C175.255 23.919 175.424 23.9034 175.585 23.9412C175.723 23.9723 175.85 24.0418 175.95 24.1416C176.05 24.2413 176.12 24.3673 176.151 24.5049ZM153.464 32.3142C153.502 32.4746 153.486 32.643 153.419 32.7938C153.352 32.9445 153.238 33.0695 153.093 33.1497C152.949 33.2299 152.782 33.261 152.618 33.2383C152.454 33.2155 152.302 33.1402 152.185 33.0236C152.068 32.9071 151.992 32.7558 151.969 32.5925C151.946 32.4293 151.977 32.2631 152.058 32.1192C152.139 31.9752 152.264 31.8613 152.416 31.7948C152.567 31.7283 152.736 31.7127 152.897 31.7505C153.036 31.7816 153.162 31.8511 153.262 31.9509C153.363 32.0506 153.432 32.1766 153.464 32.3142ZM163.419 31.5064C162.379 31.3712 161.412 30.8979 160.67 30.1599C158.694 28.1959 158.903 25.8083 159.949 23.575C160.2 23.0432 160.484 22.5276 160.8 22.0311C161.87 22.8276 162.764 23.8346 163.426 24.9896L163.419 31.5064ZM167.448 30.1599C166.704 30.8979 165.737 31.3712 164.696 31.5064V30.0702C165.671 28.3586 167.145 26.9815 168.923 26.1206C169.009 26.8618 168.921 27.6128 168.665 28.314C168.409 29.0152 167.992 29.6472 167.448 30.1599ZM164.057 41.1899C164.226 41.1899 164.389 41.1229 164.509 41.0038C164.628 40.8846 164.696 40.7229 164.696 40.5544V37.9764C166.572 37.8322 168.335 37.0248 169.666 35.7C172.807 32.5727 172.591 28.8781 171.047 25.4133C171.93 25.2136 172.837 25.1374 173.742 25.1871C173.864 25.5929 174.132 25.9401 174.493 26.1634C174.855 26.3867 175.286 26.4707 175.706 26.3997C176.126 26.3287 176.505 26.1075 176.772 25.7777C177.039 25.448 177.176 25.0324 177.157 24.6091C177.135 24.1704 176.948 23.7562 176.633 23.4483C176.319 23.1404 175.9 22.9614 175.459 22.9467C175.126 22.9391 174.797 23.0268 174.513 23.1993C174.228 23.3717 174 23.6217 173.853 23.9197C172.126 23.8228 170.399 24.1295 168.811 24.8152C167.224 25.501 165.819 26.5468 164.71 27.8692V18.6704C165.962 20.0276 167.347 21.7546 168.187 23.5714C168.324 23.8622 168.447 24.1602 168.548 24.4547L168.616 24.4224C169.143 24.1825 169.688 23.9844 170.247 23.8299C168.623 20.9575 166.279 18.3939 164.508 16.649L164.147 16.2899C164.136 16.278 164.121 16.2685 164.106 16.262C164.091 16.2555 164.074 16.2522 164.057 16.2522C164.04 16.2522 164.024 16.2555 164.008 16.262C163.993 16.2685 163.979 16.278 163.967 16.2899L163.606 16.649C162.712 17.543 161.662 18.6453 160.631 19.8804C161.018 20.1138 161.391 20.3691 161.749 20.6452C162.293 19.9271 162.87 19.2592 163.419 18.6632V22.7743C162.356 21.5059 161.019 20.4922 159.509 19.8086C158.975 19.5642 158.423 19.3637 157.857 19.209C157.843 18.8033 157.687 18.4153 157.416 18.112C157.145 17.8086 156.776 17.6091 156.373 17.5477C155.97 17.4864 155.558 17.5672 155.208 17.7761C154.859 17.985 154.593 18.3089 154.458 18.6919C154.323 19.0748 154.326 19.4928 154.468 19.8734C154.609 20.2541 154.88 20.5736 155.233 20.7768C155.586 20.9799 155.999 21.0539 156.401 20.9859C156.803 20.918 157.169 20.7124 157.435 20.4046C157.965 20.5453 158.483 20.7303 158.982 20.9575C159.181 21.0473 159.375 21.1442 159.566 21.2448C158.638 22.4702 157.837 23.7862 157.175 25.1728C156.281 27.0973 155.786 29.1007 156.039 31.0432C156.494 31.0882 156.946 31.1626 157.391 31.2658C157.141 29.7609 157.308 28.2164 157.875 26.7992C157.928 28.2916 158.517 29.7156 159.534 30.8135C160.551 31.9113 161.929 32.6106 163.419 32.7846V35.5852C162.307 34.2586 160.899 33.2101 159.306 32.5242C157.714 31.8382 155.982 31.5339 154.25 31.6356C154.052 31.2819 153.737 31.008 153.358 30.8611C152.979 30.7142 152.56 30.7036 152.174 30.831C151.789 30.9585 151.459 31.2161 151.244 31.5593C151.028 31.9025 150.94 32.3099 150.994 32.711C151.048 33.1122 151.241 33.4821 151.54 33.7567C151.838 34.0314 152.224 34.1937 152.63 34.2156C153.036 34.2376 153.437 34.1177 153.763 33.8768C154.09 33.6358 154.322 33.2889 154.419 32.8959C155.143 32.8596 155.869 32.903 156.584 33.0251C157.03 34.0232 157.661 34.9283 158.445 35.6929C159.776 37.0176 161.539 37.825 163.415 37.9692V40.5472C163.415 40.6313 163.431 40.7146 163.463 40.7923C163.495 40.8701 163.542 40.9407 163.602 41.0002C163.662 41.0596 163.733 41.1067 163.811 41.1386C163.889 41.1706 163.973 41.1868 164.057 41.1863V41.1899Z" fill="white"/>
<path d="M165.442 16.8753C165.889 17.4282 166.78 18.3689 167.563 19.2773C169.668 20.5419 171.642 22.0103 173.456 23.6613C173.629 23.3243 173.891 23.0411 174.214 22.8427C171.575 20.4672 168.624 18.4597 165.442 16.8753ZM145.961 12.9258C145.748 13.2848 145.532 13.6905 145.337 14.0819C145.889 14.0281 146.419 13.9921 146.982 13.9742C152.356 13.7671 157.71 14.7303 162.672 16.7963C162.728 16.8129 162.783 16.8358 162.834 16.8645L163.675 16.0315C158.635 13.8239 153.171 12.7429 147.667 12.8647C147.086 12.8647 146.534 12.9006 145.961 12.9258ZM182.21 33.1115C181.998 32.7021 181.763 32.2749 181.514 31.8656C180.295 29.7435 178.858 27.7533 177.226 25.9269C177.01 26.246 176.705 26.4955 176.349 26.645C178.066 28.6276 179.593 30.7661 180.908 33.0325C180.941 33.0863 180.959 33.1581 180.995 33.2084C181.193 33.5674 181.356 33.9049 181.568 34.2855C181.603 34.3482 181.633 34.413 181.659 34.4794C181.709 34.4076 181.745 34.3358 181.799 34.2676C181.98 33.9624 182.16 33.6608 182.319 33.3412L182.21 33.1115Z" fill="white"/>
<path d="M183.48 23.4997C181.437 23.3663 179.386 23.4023 177.349 23.6074C177.535 23.936 177.634 24.307 177.634 24.6846C179.569 24.4935 181.518 24.4635 183.459 24.5948C183.924 24.6307 184.386 24.6666 184.851 24.7205C184.851 24.3614 184.887 24.0024 184.887 23.6182C184.407 23.5715 183.953 23.5356 183.48 23.4997Z" fill="white"/>
<path d="M182.053 12.9256C181.479 12.8897 180.924 12.8538 180.372 12.8538C178.599 12.8196 176.826 12.9084 175.066 13.1195C171.439 13.5765 167.895 14.5436 164.541 15.9919L165.317 16.71C168.494 15.4816 171.81 14.6459 175.192 14.2218C177.13 13.9993 179.083 13.9261 181.032 14.0028C181.587 14.0028 182.139 14.0566 182.677 14.0925C182.478 13.6832 182.265 13.3098 182.053 12.9256Z" fill="white"/>
<path d="M180.123 34.2603C177.781 31.141 175.014 28.3616 171.902 26.0022C172.011 26.4653 172.151 27.1583 172.296 27.7974C174.981 29.9636 177.365 32.4749 179.387 35.2656C179.693 35.6247 179.96 36.0304 180.245 36.4397C180.498 36.1201 180.747 35.8185 180.967 35.4774C180.707 35.0574 180.408 34.6516 180.123 34.2603ZM154.055 18.2898C151.76 17.8943 149.434 17.6973 147.105 17.701C146.535 17.701 145.961 17.7189 145.392 17.7369C144.822 17.7548 144.371 17.7907 143.891 17.8446C143.783 18.236 143.675 18.6273 143.603 19.0366C144.083 18.9816 144.564 18.9457 145.045 18.9289H145.063C145.741 18.893 146.42 18.8751 147.098 18.8751C149.356 18.876 151.61 19.067 153.835 19.446C153.826 19.3864 153.826 19.3259 153.835 19.2664C153.825 18.9276 153.901 18.5917 154.055 18.2898Z" fill="white"/>
<path d="M178.102 36.7306C176.36 34.9573 174.454 33.3501 172.411 31.9302C172.324 32.3252 172.203 32.712 172.05 33.0863C173.933 34.4126 175.69 35.9064 177.302 37.5493C177.641 37.8688 177.962 38.2063 178.265 38.5438C178.378 38.4554 178.487 38.3607 178.589 38.2602C178.764 38.0967 178.93 37.9241 179.087 37.7431C178.778 37.3879 178.449 37.0498 178.102 36.7306ZM144.587 24.7743C144.122 24.8066 143.656 24.8605 143.209 24.9323V25.0759L143.317 26.0884C143.764 26.0166 144.23 25.9628 144.695 25.9305C146.077 25.7706 147.467 25.6927 148.857 25.6971C151.333 25.6939 153.803 25.9259 156.234 26.39C156.342 26.0884 156.486 25.733 156.681 25.2878C154.104 24.7871 151.483 24.537 148.857 24.5409C147.431 24.5366 146.005 24.6145 144.587 24.7743Z" fill="white"/>
<path d="M174.867 39.4701C173.235 38.2979 171.516 37.2512 169.724 36.3392C169.399 36.634 169.047 36.8962 168.671 37.1219C170.45 37.9953 172.157 39.0061 173.778 40.1451C174.211 40.4196 174.628 40.7169 175.03 41.0355C175.278 40.874 175.531 40.716 175.751 40.5544C175.859 40.4826 175.949 40.4108 176.036 40.3426C175.667 40.0254 175.276 39.7339 174.867 39.4701ZM150.701 31.8403C149.305 31.8403 147.949 31.9301 146.611 32.0701C146.109 32.124 145.626 32.1778 145.143 32.2496C145.323 32.6087 145.503 32.9677 145.698 33.3268H145.716C146.145 33.255 146.593 33.2011 147.036 33.1652C147.096 33.1562 147.157 33.1562 147.217 33.1652C148.342 33.0431 149.503 32.9893 150.665 32.9713C150.613 32.8039 150.589 32.6294 150.593 32.4543C150.592 32.2452 150.628 32.0376 150.697 31.8403H150.701Z" fill="white"/>
</svg>
