<svg width="24" height="24" viewBox="0 0 24 24" fill="none" xmlns="http://www.w3.org/2000/svg">
<path fill-rule="evenodd" clip-rule="evenodd" d="M8.29847 19.634H14.9403C15.5345 19.634 16.1272 19.6346 16.7189 19.6351C17.8108 19.6362 18.8995 19.6373 19.9893 19.6347C19.9741 19.3525 19.9446 19.0716 19.901 18.7932C19.3848 15.6027 16.7461 13.1351 13.5596 13.4314C10.8868 13.68 8.43663 16.3601 8.29847 19.634ZM20.9967 19.7887C20.9845 19.4021 20.9483 19.0169 20.8885 18.6359C20.3076 15.0381 17.285 12.0807 13.467 12.4357C10.1948 12.74 7.41907 15.9437 7.29661 19.665C7.26908 20.4945 7.38395 20.634 8.1168 20.634H14.9403C15.5324 20.634 16.1239 20.6345 16.7151 20.6351C17.8964 20.6363 19.0764 20.6375 20.2563 20.634C20.88 20.634 21.0224 20.4712 20.9967 19.7887Z" fill="white"/>
<path fill-rule="evenodd" clip-rule="evenodd" d="M14.1697 11.2216C14.6573 11.22 15.1396 11.1108 15.589 10.9005C16.0384 10.6903 16.446 10.3829 16.7881 9.99635C17.1302 9.60977 17.4001 9.15159 17.5822 8.64825C17.7643 8.14492 17.8551 7.60641 17.8492 7.06382C17.8372 5.97683 17.4392 4.9393 16.7421 4.17788C16.045 3.41646 15.1056 2.99303 14.1289 3.00009C13.6413 3.00228 13.1589 3.11188 12.7096 3.32258C12.2602 3.53327 11.8528 3.84089 11.5107 4.2277C11.1687 4.6145 10.8988 5.07284 10.7167 5.57629C10.5345 6.07973 10.4437 6.61833 10.4495 7.16103C10.4612 8.24783 10.8593 9.2852 11.5565 10.0462C12.2537 10.8071 13.1933 11.2298 14.1697 11.2216ZM11.4494 7.1502C11.4449 6.72546 11.5161 6.30587 11.657 5.91649C11.7979 5.5271 12.0043 5.17906 12.2598 4.89013C12.5151 4.60142 12.8134 4.37837 13.1341 4.228C13.4544 4.07781 13.7937 4.0016 14.1334 4.00008L14.1362 4.00006C14.812 3.99517 15.4863 4.28704 16.0045 4.85313C16.5259 5.42268 16.8398 6.21963 16.8493 7.07469C16.8539 7.49928 16.7827 7.91875 16.6419 8.308C16.5011 8.6972 16.2946 9.045 16.0392 9.33364C15.784 9.62207 15.4858 9.84479 15.1652 9.99481C14.845 10.1446 14.5059 10.2205 14.1664 10.2216L14.1697 11.2216L14.1614 10.2216C13.4859 10.2273 12.8119 9.93615 12.2938 9.37064C11.7725 8.80164 11.4587 8.00507 11.4494 7.15041" fill="white"/>
<path fill-rule="evenodd" clip-rule="evenodd" d="M7.95576 9.23718C7.63668 8.87961 7.22772 8.70073 6.82621 8.69777C6.43013 8.7005 6.0267 8.87502 5.70982 9.22442C5.38946 9.57767 5.19072 10.0771 5.1836 10.6199C5.18197 11.1703 5.37732 11.6807 5.69949 12.0431C6.01711 12.4005 6.4244 12.5803 6.82477 12.5851C7.22201 12.579 7.62541 12.4022 7.94263 12.0523C8.26367 11.6981 8.46381 11.1988 8.47403 10.6555C8.47385 10.1065 8.27775 9.59802 7.95576 9.23718ZM9.47402 10.6647C9.47603 9.88062 9.19832 9.1277 8.70188 8.57138C8.20545 8.01505 7.5309 7.70083 6.82645 7.69775C6.13053 7.70046 5.46346 8.0075 4.96907 8.55264C4.47468 9.09779 4.19259 9.83737 4.18363 10.6119C4.18009 11.3962 4.45649 12.1499 4.95206 12.7075C5.44764 13.265 6.12182 13.5807 6.82645 13.5852C7.52265 13.5784 8.18898 13.2694 8.6835 12.7239C9.17803 12.1784 9.46167 11.4396 9.47402 10.6647Z" fill="white"/>
<path fill-rule="evenodd" clip-rule="evenodd" d="M3.01515 19.6338H5.24578C5.28723 18.2773 5.58582 17.0218 6.10014 15.839C4.62637 16.14 3.17616 17.5163 3.01515 19.6338ZM7.20846 15.8235C6.62824 17.0101 6.29254 18.2648 6.24631 19.6338C6.23529 19.9604 6.24074 20.2935 6.26327 20.6338H2.61136C2.23924 20.6338 1.99811 20.4404 2.00001 19.9998C2.01315 16.9345 4.31456 14.8041 6.63171 14.7728C6.99267 14.7679 7.35401 14.814 7.70714 14.9154C7.52506 15.2141 7.35858 15.5165 7.20846 15.8235Z" fill="white"/>
</svg>
