<svg width="24" height="24" viewBox="0 0 24 24" fill="none" xmlns="http://www.w3.org/2000/svg">
<path fill-rule="evenodd" clip-rule="evenodd" d="M2.27148 6.45648C2.27148 4.14543 4.14525 2.27148 6.45548 2.27148H11.3305C13.6416 2.27148 15.5155 4.14534 15.5155 6.45648V7.38948C15.5155 7.66563 15.2916 7.88948 15.0155 7.88948C14.7393 7.88948 14.5155 7.66563 14.5155 7.38948V6.45648C14.5155 4.69763 13.0893 3.27148 11.3305 3.27148H6.45548C4.69772 3.27148 3.27148 4.69754 3.27148 6.45648V17.5865C3.27148 19.3454 4.69772 20.7715 6.45548 20.7715H11.3405C13.0935 20.7715 14.5155 19.3502 14.5155 17.5975V16.6545C14.5155 16.3783 14.7393 16.1545 15.0155 16.1545C15.2916 16.1545 15.5155 16.3783 15.5155 16.6545V17.5975C15.5155 19.9028 13.6454 21.7715 11.3405 21.7715H6.45548C4.14525 21.7715 2.27148 19.8975 2.27148 17.5865V6.45648Z" fill="white"/>
<path fill-rule="evenodd" clip-rule="evenodd" d="M9.26758 12.0215C9.26758 11.7453 9.49144 11.5215 9.76758 11.5215H21.8086C22.0847 11.5215 22.3086 11.7453 22.3086 12.0215C22.3086 12.2976 22.0847 12.5215 21.8086 12.5215H9.76758C9.49144 12.5215 9.26758 12.2976 9.26758 12.0215Z" fill="white"/>
<path fill-rule="evenodd" clip-rule="evenodd" d="M18.5265 8.75344C18.7213 8.55774 19.0379 8.55703 19.2336 8.75186L22.1616 11.6669C22.2559 11.7607 22.3088 11.8882 22.3089 12.0212C22.3089 12.1541 22.2559 12.2816 22.1617 12.3755L19.2337 15.2915C19.038 15.4863 18.7214 15.4857 18.5266 15.29C18.3317 15.0944 18.3324 14.7778 18.528 14.5829L21.1002 12.0213L18.5281 9.46054C18.3324 9.26571 18.3317 8.94913 18.5265 8.75344Z" fill="white"/>
</svg>
