<svg width="24" height="24" viewBox="0 0 24 24" fill="none" xmlns="http://www.w3.org/2000/svg">
<path d="M11.7844 2.50147C11.5756 2.61896 11.5669 2.68423 11.5625 3.97224C11.5625 4.75113 11.5799 5.21673 11.6104 5.282C11.6626 5.39949 11.8627 5.53003 11.9933 5.53003C12.1369 5.53003 12.2848 5.443 12.3588 5.31246C12.4241 5.20803 12.4328 5.03397 12.4328 3.98964C12.4328 3.15418 12.4154 2.7582 12.3806 2.67988C12.2848 2.47101 11.9976 2.38399 11.7844 2.50147Z" fill="white"/>
<path d="M7.64196 3.87225C7.40699 4.10722 7.43745 4.1986 8.12932 5.29515C8.46872 5.83036 8.79508 6.31337 8.856 6.36123C9.01264 6.48307 9.28243 6.45261 9.41732 6.29161C9.61313 6.06534 9.57397 5.95655 8.90386 4.89482C8.56881 4.3596 8.24245 3.88095 8.18153 3.83308C8.01618 3.70254 7.79861 3.71995 7.64196 3.87225Z" fill="white"/>
<path d="M15.8133 3.83308C15.7524 3.88095 15.426 4.3596 15.0909 4.89482C14.4208 5.95655 14.3817 6.06534 14.5775 6.29161C14.7124 6.45261 14.9822 6.48307 15.1388 6.36123C15.1997 6.31337 15.5261 5.83036 15.8655 5.29515C16.3659 4.49884 16.479 4.29433 16.479 4.15944C16.479 3.82438 16.0787 3.62422 15.8133 3.83308Z" fill="white"/>
<path d="M4.95218 6.26543C4.81293 6.31329 4.65193 6.41338 4.5562 6.51346C4.39085 6.68316 1.03159 12.5575 0.914102 12.8839C0.84448 13.0797 0.84448 13.3277 0.90975 13.5453C1.00548 13.8629 1.24045 14.0674 2.0237 14.5026C2.71992 14.8899 2.76344 14.9073 3.05498 14.9203C3.32476 14.9334 3.39003 14.9203 3.5989 14.8115C3.81212 14.6984 3.99487 14.5113 4.14717 14.2502C4.19069 14.1762 4.20374 14.1762 4.3865 14.285C4.63453 14.433 4.94783 14.7027 4.94783 14.7724C4.94783 14.8028 4.88256 14.9421 4.80858 15.0857C4.67804 15.3206 4.66499 15.3729 4.66499 15.734C4.66499 16.043 4.68674 16.1692 4.76072 16.3302C4.93912 16.7218 5.36991 17.0829 5.75283 17.1656C5.87902 17.1917 5.88772 17.2091 5.93559 17.492C5.99216 17.8618 6.1314 18.1577 6.34462 18.371C6.52302 18.5494 6.84067 18.7278 7.0713 18.78C7.20184 18.8061 7.21054 18.8191 7.21054 18.9932C7.21054 19.5937 7.65003 20.1681 8.25487 20.3508L8.4942 20.4205L8.5029 20.6554C8.5203 21.1471 8.89887 21.6867 9.37752 21.9043C9.53417 21.9739 9.66907 21.9956 9.95191 22C10.4349 22 10.6133 21.913 11.3966 21.2777L11.9971 20.7947L12.2929 21.034C12.7847 21.43 12.9065 21.4778 13.4112 21.4778C13.8116 21.4778 13.8638 21.4691 14.077 21.3473C14.3729 21.1863 14.6731 20.8556 14.7689 20.5902L14.8385 20.3856L15.278 20.39C15.6609 20.39 15.7479 20.3769 15.935 20.2812C16.405 20.0506 16.7313 19.5763 16.7749 19.0759C16.7923 18.8148 16.801 18.8061 16.9315 18.7756C17.1534 18.7278 17.4711 18.5494 17.6495 18.371C17.8671 18.1534 17.9976 17.8662 18.0585 17.5007L18.102 17.2004L18.2804 17.1482C18.5763 17.0612 18.7591 16.9481 18.9549 16.7348C19.2464 16.4172 19.3291 16.1953 19.3291 15.734C19.3291 15.3729 19.3161 15.3206 19.1899 15.0857C19.1115 14.9421 19.0463 14.8028 19.0463 14.7724C19.0463 14.7027 19.3596 14.433 19.6076 14.285C19.7904 14.1762 19.8034 14.1762 19.8469 14.2502C20.0079 14.5243 20.182 14.7027 20.3952 14.8115C20.6041 14.9203 20.6737 14.9334 20.9391 14.9203C21.2307 14.9073 21.2742 14.8899 21.9399 14.52C22.3229 14.3068 22.7014 14.0718 22.7798 13.9978C23.0452 13.7498 23.1714 13.3973 23.1192 13.0449C23.0844 12.8273 22.2706 11.3435 22.1183 11.2216C21.9704 11.0998 21.718 11.1216 21.5657 11.2695C21.3656 11.4697 21.3917 11.6046 21.7441 12.2312C22.2402 13.1058 22.2924 13.2233 22.2402 13.3103C22.1793 13.406 21.0087 14.0587 20.8956 14.0587C20.8477 14.0587 20.7868 14.0413 20.7607 14.0239C20.6954 13.9804 17.3057 7.97987 17.3057 7.9059C17.3057 7.81887 17.4145 7.7449 18.0629 7.38373C18.572 7.10089 18.6851 7.05303 18.7634 7.08784C18.82 7.11395 18.9984 7.38373 19.216 7.76665C19.4118 8.11476 19.612 8.44112 19.6642 8.48898C19.8078 8.61952 20.0906 8.60647 20.2386 8.46287C20.4431 8.25401 20.4039 8.10171 19.9601 7.31846C19.7164 6.88332 19.5075 6.57003 19.3987 6.4743C19.1812 6.27848 18.8244 6.16535 18.5502 6.20451C18.3675 6.23497 17.4624 6.69186 16.9533 7.01387C16.5312 7.28365 16.3397 7.79711 16.4964 8.2366L16.5573 8.40195L16.2005 8.51074C16.009 8.57166 15.7392 8.64128 15.6043 8.67174L15.3607 8.7196L14.4077 8.38455C13.185 7.95811 13.0544 7.9233 12.5845 7.9233C12.0884 7.9233 10.0085 8.11911 9.59944 8.20179C9.23393 8.28012 8.84231 8.44982 8.6813 8.60647L8.55947 8.7196L8.28968 8.64563C8.13738 8.60647 7.885 8.5325 7.72835 8.48463L7.44116 8.3976L7.49773 8.2366C7.67614 7.73619 7.44987 7.25319 6.87984 6.91814C5.69191 6.21756 5.38296 6.11313 4.95218 6.26543ZM5.93559 7.38373C6.57524 7.73619 6.68838 7.81452 6.68838 7.9059C6.68838 7.97987 3.29865 13.9804 3.23338 14.0239C3.20728 14.0413 3.15071 14.0587 3.10719 14.0587C3.01146 14.0587 1.8453 13.4278 1.76697 13.3321C1.72781 13.2842 1.72346 13.2363 1.75392 13.1493C1.84094 12.9274 5.09142 7.20533 5.1741 7.127C5.22196 7.08784 5.27853 7.05303 5.30029 7.05303C5.32204 7.05303 5.60923 7.20097 5.93559 7.38373ZM14.1292 9.20261C15.1736 9.57683 15.1997 9.58553 15.4999 9.55942C15.6696 9.54637 16.0699 9.45934 16.3919 9.36361C16.7139 9.26788 16.9924 9.20261 17.0055 9.22001C17.0621 9.27658 19.3204 13.2973 19.3378 13.3625C19.3465 13.406 19.2551 13.4887 19.068 13.6018C18.9114 13.6976 18.6851 13.876 18.5633 13.9978L18.3414 14.2241L17.2883 13.393C16.2179 12.5445 14.9212 11.5698 14.2685 11.1259C13.2154 10.4123 12.541 10.26 11.2573 10.4471C10.5393 10.5515 10.2609 10.5428 9.89969 10.4036C9.52982 10.2643 9.2992 10.0163 9.19042 9.6508C9.11644 9.39842 9.1469 9.30704 9.35577 9.20261C9.57334 9.08947 9.87358 9.01985 10.4044 8.96763C11.8099 8.82404 12.1015 8.80228 12.5627 8.81098L13.0631 8.82404L14.1292 9.20261ZM7.61957 9.35926C7.95463 9.45499 8.23746 9.54637 8.25487 9.56377C8.26792 9.58553 8.30709 9.69431 8.33319 9.81615C8.53336 10.6168 9.16431 11.1868 10.0215 11.3391C10.4828 11.4218 10.6003 11.4218 11.3182 11.313C12.6193 11.1172 12.9413 11.226 14.5165 12.3704C15.6435 13.1885 18.1238 15.1422 18.3457 15.3772C18.4806 15.5252 18.5154 15.8254 18.4197 16.0125C18.263 16.3128 17.8453 16.4128 17.5625 16.2214C17.4798 16.1648 17.1534 15.9124 16.8314 15.6557C16.331 15.2597 16.2222 15.1901 16.0917 15.1901C15.848 15.1944 15.6522 15.3946 15.6522 15.6426C15.6522 15.7949 15.7914 15.9385 16.5007 16.5086C17.0011 16.9089 17.1186 17.0264 17.1665 17.1656C17.2361 17.3832 17.1752 17.6095 17.0011 17.7792C16.8836 17.8923 16.8314 17.9097 16.6139 17.9097H16.3658L15.6174 17.3092C14.7689 16.6348 14.6862 16.6043 14.4251 16.8393C14.3076 16.9437 14.2815 16.9959 14.2815 17.1395C14.2815 17.3614 14.3076 17.3875 15.117 18.0272C15.7871 18.5581 15.9133 18.7017 15.9133 18.9627C15.9133 19.2456 15.6217 19.5415 15.3389 19.5415C15.1387 19.5415 15.0256 19.4762 14.3598 18.941C13.9987 18.6538 13.668 18.3971 13.6158 18.371C13.2502 18.1751 12.8456 18.5972 13.0544 18.9584C13.0849 19.0106 13.2633 19.1803 13.4548 19.337C13.916 19.7068 13.9595 19.7634 13.9856 19.9897C14.0248 20.3421 13.7724 20.6293 13.42 20.6293C13.2111 20.6293 13.1458 20.5945 12.7063 20.2464C12.3495 19.9679 12.3495 19.9679 12.3234 19.7199C12.2668 19.2543 11.9535 18.7582 11.588 18.5537C11.5053 18.5102 11.5053 18.5015 11.6011 18.297C11.8012 17.8705 11.7969 17.3962 11.5924 16.9872C11.4879 16.7871 11.2007 16.4781 11.018 16.378C10.9397 16.3345 10.9397 16.3215 11.0572 16.0647C11.3095 15.5034 11.1746 14.8463 10.7265 14.4243C10.4219 14.1414 10.1782 14.0413 9.77785 14.037C9.59944 14.037 9.37752 14.0544 9.2905 14.0761C9.1469 14.1066 9.12514 14.1023 9.12514 14.0326C9.12514 13.9021 8.88582 13.5192 8.70741 13.3625C8.42457 13.1145 8.10692 12.997 7.73271 12.997C7.27581 12.997 7.06694 13.1014 6.30545 13.715L5.6658 14.2241L5.40472 13.9761C5.26112 13.8368 5.0305 13.6584 4.89561 13.5801C4.75637 13.4974 4.64323 13.4104 4.64323 13.3886C4.64323 13.3538 5.05661 12.6184 6.61005 9.86837C6.82327 9.49415 7.00167 9.1852 7.00603 9.1852C7.01038 9.1852 7.28887 9.26353 7.61957 9.35926ZM7.98073 13.9238C8.08952 13.9761 8.1896 14.0631 8.22876 14.1414C8.32884 14.3329 8.32014 14.6288 8.20701 14.7724C8.11127 14.8899 6.74494 16.0082 6.4447 16.2127C6.14881 16.4128 5.73542 16.3171 5.57442 16.0125C5.4874 15.8385 5.5135 15.5295 5.62664 15.399C5.78764 15.2206 7.44116 13.9151 7.5543 13.8847C7.72835 13.8325 7.78057 13.8368 7.98073 13.9238ZM10.0433 14.9856C10.1216 15.0378 10.213 15.1335 10.2434 15.1901C10.3305 15.3642 10.3131 15.6818 10.2086 15.8123C10.1608 15.8776 9.56028 16.3737 8.87277 16.9176L7.62827 17.9097H7.37589C7.16268 17.9097 7.11046 17.8923 6.99297 17.7792C6.81892 17.6095 6.758 17.3832 6.82762 17.1656C6.87548 17.0177 7.04084 16.8697 8.0373 16.0647C8.6726 15.5556 9.27744 15.0813 9.38188 15.0117C9.6212 14.855 9.83877 14.8463 10.0433 14.9856ZM10.5611 17.1265C10.77 17.2352 10.8657 17.3962 10.8657 17.6443C10.8657 17.7792 10.8396 17.9097 10.7961 17.9706C10.7047 18.1012 9.01636 19.4501 8.87712 19.5023C8.5116 19.6416 8.08082 19.3544 8.08082 18.9758C8.08082 18.693 8.1896 18.5711 9.09469 17.8575C9.57769 17.4746 10.0128 17.1395 10.0607 17.1134C10.1825 17.0438 10.4132 17.0481 10.5611 17.1265ZM11.192 19.3413C11.4401 19.5023 11.5271 19.8896 11.3705 20.1246C11.2704 20.2812 10.2391 21.0993 10.1042 21.1341C9.56463 21.269 9.13385 20.5902 9.50371 20.1855C9.6299 20.0419 10.5393 19.3283 10.6525 19.2804C10.7874 19.2238 11.0572 19.2543 11.192 19.3413Z" fill="white"/>
<path d="M20.5987 9.56804C20.2636 9.91615 20.6552 10.447 21.0904 10.2382C21.2557 10.1598 21.3514 9.95531 21.3166 9.76821C21.2557 9.45491 20.8249 9.33307 20.5987 9.56804Z" fill="white"/>
</svg>
