<svg width="24" height="24" viewBox="0 0 24 24" fill="none" xmlns="http://www.w3.org/2000/svg">
<mask id="path-1-inside-1_359_20360" fill="white">
<path d="M21.0827 7.58112C21.0827 7.18045 20.9447 6.93657 20.604 6.76237C17.7318 5.22067 14.8272 3.66155 11.9876 2.12856C11.6711 1.96307 11.4277 1.95436 11.1275 2.11985C8.25541 3.67026 5.34271 5.22938 2.46246 6.76237C2.12981 6.93657 2 7.18045 2 7.59854C2.00811 8.71344 2.00811 9.85447 2.00811 10.952C2.00811 11.3613 2.00811 11.762 2.00811 12.1714C2.00811 12.5808 2.00811 12.9901 2.00811 13.4082C2.00811 14.5318 2.00811 15.6903 2 16.8313C2 17.2146 2.12981 17.4497 2.45435 17.6239C5.59422 19.2963 8.42579 20.8119 11.1194 22.2752C11.2655 22.3536 11.4034 22.3971 11.5413 22.3971C11.6793 22.3971 11.8253 22.3536 11.9795 22.2665C14.7948 20.7422 17.6994 19.1831 20.604 17.6414C20.9447 17.4584 21.0827 17.2233 21.0827 16.8226C21.0745 13.7305 21.0745 10.6297 21.0827 7.58112ZM11.9876 15.4028C11.9876 14.5231 11.9876 13.6173 11.9957 12.7288C11.9957 12.6156 12.0687 12.4588 12.1174 12.4327C14.5514 11.1174 17.026 9.7935 19.4275 8.51311L20.1821 8.11244C20.1821 8.1647 20.1902 8.21696 20.1902 8.26922V11.1523C20.1902 12.9292 20.1902 14.7147 20.1902 16.5003C20.1902 16.7007 20.1821 16.7878 20.036 16.8749C18.032 17.9375 16.0037 19.0263 14.0402 20.0802C13.3587 20.446 12.6772 20.8119 11.9957 21.1777V16.2129C11.9876 15.9342 11.9876 15.6729 11.9876 15.4028ZM2.90058 9.80221V8.09502C2.91681 8.10373 2.93304 8.11244 2.94926 8.12115C3.09531 8.19083 3.22512 8.26051 3.35493 8.3302C3.53343 8.42601 3.72004 8.53053 3.90664 8.62634C4.27986 8.83538 4.67741 9.04443 5.06686 9.23605C5.22101 9.31444 5.26158 9.38413 5.26158 9.57575C5.25346 10.0635 5.25346 10.56 5.25346 11.0391C5.25346 11.5704 5.25346 12.1191 5.24535 12.6591C5.23724 12.9379 5.30214 13.1295 5.42384 13.2427C5.53743 13.3472 5.6997 13.3821 5.91065 13.3472C6.56783 13.2253 7.07086 13.4605 7.49275 14.0789C7.61445 14.2618 7.76861 14.4186 7.92276 14.5318C8.0039 14.5928 8.26353 14.767 8.45013 14.6799C8.62051 14.6015 8.72599 14.3141 8.72599 14.1486C8.74221 13.4866 8.74221 12.8072 8.7341 12.154C8.7341 11.9362 8.7341 11.7097 8.7341 11.492V11.2133L9.0992 11.4136C9.7645 11.7707 10.3973 12.1104 11.0221 12.4588C11.0464 12.4762 11.0789 12.5633 11.0789 12.6243C11.087 15.1154 11.087 17.5717 11.087 20.1586V21.1603C11.0221 21.1341 10.9734 21.0993 10.9166 21.0732L8.33655 19.6882C6.60028 18.7563 4.86402 17.8243 3.12776 16.8923L3.10342 16.8749C2.94926 16.7965 2.88436 16.7529 2.88436 16.5787C2.90058 14.3402 2.90058 12.1365 2.90058 9.80221ZM7.8254 13.025C7.44407 12.5895 7.02218 12.3717 6.54349 12.3717C6.42179 12.3717 6.29198 12.3891 6.17027 12.4153V9.83705L6.40556 9.959C6.89236 10.2203 7.35483 10.4729 7.81729 10.7255C7.83352 10.7429 7.85786 10.7952 7.85786 10.8213C7.84974 11.4746 7.84974 12.2323 7.8254 13.025ZM9.28581 10.4381C9.35072 10.3945 9.40751 10.351 9.4643 10.3248C10.1783 9.91544 10.8923 9.51478 11.6062 9.1054C13.3263 8.12115 15.1112 7.11077 16.8637 6.10039C17.0665 5.98716 17.1882 5.97845 17.3748 6.09168C17.9428 6.41396 18.5107 6.71882 19.1192 7.04109C19.2896 7.12819 19.46 7.22401 19.6304 7.31111L19.4356 7.41563C19.1679 7.55499 18.9326 7.68564 18.6892 7.8163L17.0909 8.6786C15.3708 9.60188 13.594 10.5513 11.8496 11.5007C11.6143 11.6313 11.4602 11.6313 11.2492 11.5094C10.7624 11.2307 10.2594 10.9694 9.74016 10.6906C9.59412 10.6035 9.43996 10.5252 9.28581 10.4381ZM14.8191 4.72419C15.1518 4.92452 15.4925 5.09873 15.8495 5.29035C15.9388 5.3339 16.028 5.38616 16.1254 5.43842C16.0767 5.47326 16.028 5.49939 15.9875 5.52552C15.2978 5.91748 14.6082 6.30944 13.9185 6.7014C12.1579 7.70306 10.3405 8.73957 8.55561 9.76737C8.35277 9.8806 8.22296 9.8806 8.03635 9.77608C7.69559 9.57575 7.34671 9.39284 6.9735 9.1925C6.87614 9.14024 6.77878 9.08798 6.68142 9.03572L8.07692 8.24309C9.2209 7.58983 10.3324 6.95399 11.4521 6.31815C11.7198 6.17008 11.9876 6.01329 12.2553 5.86522C12.9125 5.49939 13.5859 5.11615 14.2431 4.72419C14.454 4.59354 14.6082 4.59354 14.8191 4.72419ZM3.64701 7.20658C4.34477 6.83205 5.04252 6.45751 5.74027 6.08297C7.54143 5.11615 9.40751 4.11448 11.2411 3.12152C11.4683 2.99958 11.6225 2.99958 11.8415 3.13023C12.2715 3.37411 12.7015 3.60929 13.164 3.85317C13.2857 3.91414 13.4074 3.98383 13.5291 4.0448L11.1762 5.38616C9.47242 6.35299 7.71182 7.36337 5.97555 8.36504C5.75649 8.48698 5.61856 8.49569 5.41573 8.38246C4.92893 8.09502 4.43401 7.83372 3.90664 7.55499C3.7606 7.4766 3.61456 7.39821 3.46852 7.31982C3.53343 7.27627 3.59022 7.24143 3.64701 7.20658Z"/>
</mask>
<path d="M21.0827 7.58112C21.0827 7.18045 20.9447 6.93657 20.604 6.76237C17.7318 5.22067 14.8272 3.66155 11.9876 2.12856C11.6711 1.96307 11.4277 1.95436 11.1275 2.11985C8.25541 3.67026 5.34271 5.22938 2.46246 6.76237C2.12981 6.93657 2 7.18045 2 7.59854C2.00811 8.71344 2.00811 9.85447 2.00811 10.952C2.00811 11.3613 2.00811 11.762 2.00811 12.1714C2.00811 12.5808 2.00811 12.9901 2.00811 13.4082C2.00811 14.5318 2.00811 15.6903 2 16.8313C2 17.2146 2.12981 17.4497 2.45435 17.6239C5.59422 19.2963 8.42579 20.8119 11.1194 22.2752C11.2655 22.3536 11.4034 22.3971 11.5413 22.3971C11.6793 22.3971 11.8253 22.3536 11.9795 22.2665C14.7948 20.7422 17.6994 19.1831 20.604 17.6414C20.9447 17.4584 21.0827 17.2233 21.0827 16.8226C21.0745 13.7305 21.0745 10.6297 21.0827 7.58112ZM11.9876 15.4028C11.9876 14.5231 11.9876 13.6173 11.9957 12.7288C11.9957 12.6156 12.0687 12.4588 12.1174 12.4327C14.5514 11.1174 17.026 9.7935 19.4275 8.51311L20.1821 8.11244C20.1821 8.1647 20.1902 8.21696 20.1902 8.26922V11.1523C20.1902 12.9292 20.1902 14.7147 20.1902 16.5003C20.1902 16.7007 20.1821 16.7878 20.036 16.8749C18.032 17.9375 16.0037 19.0263 14.0402 20.0802C13.3587 20.446 12.6772 20.8119 11.9957 21.1777V16.2129C11.9876 15.9342 11.9876 15.6729 11.9876 15.4028ZM2.90058 9.80221V8.09502C2.91681 8.10373 2.93304 8.11244 2.94926 8.12115C3.09531 8.19083 3.22512 8.26051 3.35493 8.3302C3.53343 8.42601 3.72004 8.53053 3.90664 8.62634C4.27986 8.83538 4.67741 9.04443 5.06686 9.23605C5.22101 9.31444 5.26158 9.38413 5.26158 9.57575C5.25346 10.0635 5.25346 10.56 5.25346 11.0391C5.25346 11.5704 5.25346 12.1191 5.24535 12.6591C5.23724 12.9379 5.30214 13.1295 5.42384 13.2427C5.53743 13.3472 5.6997 13.3821 5.91065 13.3472C6.56783 13.2253 7.07086 13.4605 7.49275 14.0789C7.61445 14.2618 7.76861 14.4186 7.92276 14.5318C8.0039 14.5928 8.26353 14.767 8.45013 14.6799C8.62051 14.6015 8.72599 14.3141 8.72599 14.1486C8.74221 13.4866 8.74221 12.8072 8.7341 12.154C8.7341 11.9362 8.7341 11.7097 8.7341 11.492V11.2133L9.0992 11.4136C9.7645 11.7707 10.3973 12.1104 11.0221 12.4588C11.0464 12.4762 11.0789 12.5633 11.0789 12.6243C11.087 15.1154 11.087 17.5717 11.087 20.1586V21.1603C11.0221 21.1341 10.9734 21.0993 10.9166 21.0732L8.33655 19.6882C6.60028 18.7563 4.86402 17.8243 3.12776 16.8923L3.10342 16.8749C2.94926 16.7965 2.88436 16.7529 2.88436 16.5787C2.90058 14.3402 2.90058 12.1365 2.90058 9.80221ZM7.8254 13.025C7.44407 12.5895 7.02218 12.3717 6.54349 12.3717C6.42179 12.3717 6.29198 12.3891 6.17027 12.4153V9.83705L6.40556 9.959C6.89236 10.2203 7.35483 10.4729 7.81729 10.7255C7.83352 10.7429 7.85786 10.7952 7.85786 10.8213C7.84974 11.4746 7.84974 12.2323 7.8254 13.025ZM9.28581 10.4381C9.35072 10.3945 9.40751 10.351 9.4643 10.3248C10.1783 9.91544 10.8923 9.51478 11.6062 9.1054C13.3263 8.12115 15.1112 7.11077 16.8637 6.10039C17.0665 5.98716 17.1882 5.97845 17.3748 6.09168C17.9428 6.41396 18.5107 6.71882 19.1192 7.04109C19.2896 7.12819 19.46 7.22401 19.6304 7.31111L19.4356 7.41563C19.1679 7.55499 18.9326 7.68564 18.6892 7.8163L17.0909 8.6786C15.3708 9.60188 13.594 10.5513 11.8496 11.5007C11.6143 11.6313 11.4602 11.6313 11.2492 11.5094C10.7624 11.2307 10.2594 10.9694 9.74016 10.6906C9.59412 10.6035 9.43996 10.5252 9.28581 10.4381ZM14.8191 4.72419C15.1518 4.92452 15.4925 5.09873 15.8495 5.29035C15.9388 5.3339 16.028 5.38616 16.1254 5.43842C16.0767 5.47326 16.028 5.49939 15.9875 5.52552C15.2978 5.91748 14.6082 6.30944 13.9185 6.7014C12.1579 7.70306 10.3405 8.73957 8.55561 9.76737C8.35277 9.8806 8.22296 9.8806 8.03635 9.77608C7.69559 9.57575 7.34671 9.39284 6.9735 9.1925C6.87614 9.14024 6.77878 9.08798 6.68142 9.03572L8.07692 8.24309C9.2209 7.58983 10.3324 6.95399 11.4521 6.31815C11.7198 6.17008 11.9876 6.01329 12.2553 5.86522C12.9125 5.49939 13.5859 5.11615 14.2431 4.72419C14.454 4.59354 14.6082 4.59354 14.8191 4.72419ZM3.64701 7.20658C4.34477 6.83205 5.04252 6.45751 5.74027 6.08297C7.54143 5.11615 9.40751 4.11448 11.2411 3.12152C11.4683 2.99958 11.6225 2.99958 11.8415 3.13023C12.2715 3.37411 12.7015 3.60929 13.164 3.85317C13.2857 3.91414 13.4074 3.98383 13.5291 4.0448L11.1762 5.38616C9.47242 6.35299 7.71182 7.36337 5.97555 8.36504C5.75649 8.48698 5.61856 8.49569 5.41573 8.38246C4.92893 8.09502 4.43401 7.83372 3.90664 7.55499C3.7606 7.4766 3.61456 7.39821 3.46852 7.31982C3.53343 7.27627 3.59022 7.24143 3.64701 7.20658Z" fill="white" stroke="white" stroke-width="2" mask="url(#path-1-inside-1_359_20360)"/>
</svg>
