<svg width="24" height="24" viewBox="0 0 21 21" fill="none" xmlns="http://www.w3.org/2000/svg">
<path d="M6.95948 14.4159C6.95948 13.3383 6.96775 12.3574 6.94955 11.3765C6.93787 11.3001 6.91205 11.2273 6.87373 11.1626C6.83541 11.0979 6.78543 11.0428 6.72696 11.0007C4.91811 9.72604 4.58215 8.08938 5.78695 6.14602C6.33887 5.25539 6.88914 4.38687 6.98513 3.26322C6.99588 3.14349 7.19448 2.97863 7.32108 2.95837C7.40383 2.94547 7.59001 3.14257 7.60242 3.26875C7.71082 4.33345 8.1742 5.2029 8.74102 6.03182C9.15476 6.63693 9.45182 7.32125 9.49733 8.09122C9.57594 9.44052 8.90817 10.3081 7.92927 10.939C7.69675 11.0855 7.6049 11.2457 7.61401 11.546C7.63386 12.4753 7.62145 13.4064 7.62145 14.438C7.99961 13.9775 8.3306 13.6745 8.3579 13.0509C8.45471 10.8902 9.75053 9.44973 11.705 9.39539C12.5325 9.37329 13.36 9.60078 14.1874 9.74906C14.3289 9.77485 14.5308 9.96182 14.549 10.099C14.5672 10.2363 14.4067 10.4223 14.3008 10.5651C13.9433 11.0449 13.5561 11.4972 13.2185 11.9964C12.9313 12.4246 12.7278 12.9174 12.4473 13.3558C11.5726 14.7106 10.703 15.0053 9.28881 14.461C8.63924 14.2105 8.64834 14.2179 8.22716 14.8294C7.66283 15.6519 7.56518 16.5858 7.64379 17.586C8.08566 17.6699 8.52091 17.7288 8.94541 17.8366C10.2021 18.155 11.3565 18.8503 12.2834 19.8472C12.4671 20.0406 12.626 20.2542 12.3844 20.5038C12.161 20.7359 11.9847 20.5388 11.8184 20.3648C10.8602 19.3618 9.73647 18.7069 8.43568 18.4748C6.30522 18.0898 4.42962 18.6971 2.80888 20.2966C2.72614 20.3777 2.65332 20.5084 2.56064 20.5287C2.43156 20.5563 2.2371 20.5536 2.16594 20.467C2.09478 20.3804 2.09974 20.1575 2.14525 20.0258C2.19076 19.8941 2.32399 19.7974 2.42659 19.6961C3.59971 18.5113 5.09184 17.7915 6.67069 17.6487C6.73937 17.6422 6.80722 17.6321 6.8759 17.621C6.88749 17.621 6.89659 17.6026 6.92555 17.5768C7.09684 16.3675 6.83618 15.2899 6.03768 14.4021C5.9885 14.3609 5.93192 14.332 5.8718 14.3174C5.81168 14.3028 5.74943 14.3027 5.68931 14.3173C5.36908 14.4021 5.06209 14.5457 4.74268 14.636C3.89121 14.8764 3.13987 14.6434 2.5714 13.9056C2.18225 13.3899 1.83475 12.837 1.53292 12.2533C1.17959 11.5837 0.792338 10.9639 0.223865 10.4988C-0.101331 10.2308 -0.0690606 9.92221 0.299991 9.78498C1.49982 9.33921 2.72117 9.16606 3.95328 9.60078C5.42038 10.1184 6.12456 11.3369 6.23875 12.9671C6.27764 13.5925 6.53829 13.9673 6.95948 14.4159ZM7.62145 10.2206C8.49361 9.84577 9.02815 8.82343 8.79894 7.88491C8.66728 7.4035 8.4795 6.94337 8.2404 6.51628C7.95161 5.96366 7.60656 5.45249 7.30039 4.95054C6.95286 5.52526 6.57139 6.123 6.22468 6.74469C6.05738 7.04344 5.92633 7.36553 5.83494 7.70255C5.55691 8.74054 6.06746 9.87156 6.96279 10.204C6.96279 9.76564 6.96279 9.33829 6.96279 8.91462C6.96279 8.63831 6.97934 8.35463 7.3095 8.362C7.61814 8.362 7.62228 8.63831 7.62145 8.89619C7.61401 9.32631 7.61897 9.76472 7.61897 10.2206H7.62145ZM13.4369 10.2961C11.2027 9.52157 9.06622 10.7778 9.05132 12.922C9.17627 12.8299 9.28798 12.7461 9.40548 12.6696C9.88128 12.362 10.3488 12.036 10.842 11.7679C10.9611 11.7025 11.1663 11.8315 11.3318 11.8711C11.2673 12.047 11.2301 12.2469 11.1291 12.3915C11.0521 12.5011 10.89 12.5333 10.7725 12.6125C10.2859 12.9395 9.80267 13.272 9.27722 13.6256C10.3786 14.2446 11.1043 14.0788 11.796 13.1016C11.9657 12.8621 12.1146 12.6024 12.2627 12.3445C12.6533 11.6703 13.0397 10.9878 13.4344 10.2961H13.4369ZM5.51223 12.8612C5.66366 10.8561 3.16635 9.42486 1.15973 10.3127C1.49072 10.8792 1.82171 11.453 2.15849 12.0249C2.38439 12.409 2.59209 12.8087 2.8486 13.1661C3.51058 14.0954 4.29337 14.2436 5.33101 13.6174C4.71786 13.2149 4.13863 12.8354 3.5594 12.4615C3.34757 12.3261 3.11008 12.1944 3.26647 11.872C3.42287 11.5497 3.65704 11.6795 3.87053 11.8158L5.51223 12.8612Z" fill="#226A47"/>
<path fill-rule="evenodd" clip-rule="evenodd" d="M6.05004 14.4159C6.19308 14.5764 6.31863 14.7431 6.42732 14.9156C6.49938 15.0299 6.56403 15.1469 6.62145 15.2663C6.6817 15.3915 6.73398 15.5195 6.77852 15.6501C6.78447 15.6676 6.7903 15.6851 6.79598 15.7026C6.90879 16.0513 6.96709 16.4183 6.97481 16.8012C6.97854 16.9865 6.97044 17.1755 6.95095 17.368C6.94395 17.4371 6.93547 17.5068 6.92555 17.5768C6.91388 17.5872 6.90543 17.5964 6.89875 17.6037C6.88885 17.6145 6.88282 17.621 6.8759 17.621C6.80722 17.6321 6.73937 17.6422 6.67069 17.6487C6.6624 17.6494 6.65411 17.6502 6.64582 17.651C5.13343 17.7937 3.70182 18.4659 2.55554 19.569C2.51214 19.6107 2.46916 19.6531 2.42659 19.6961C2.41472 19.7078 2.40243 19.7195 2.38992 19.7311C2.38891 19.7321 2.3879 19.733 2.38688 19.734C2.37652 19.7436 2.36602 19.7532 2.35547 19.7629C2.34333 19.7741 2.33114 19.7852 2.31905 19.7965C2.31841 19.7971 2.31776 19.7977 2.31712 19.7983C2.24426 19.8665 2.17545 19.9384 2.14525 20.0258C2.09974 20.1575 2.09478 20.3804 2.16594 20.467C2.2371 20.5536 2.43156 20.5563 2.56064 20.5287C2.62416 20.5148 2.67836 20.449 2.73281 20.3829C2.7578 20.3525 2.78285 20.3221 2.80888 20.2966C2.81928 20.2863 2.8297 20.2761 2.84012 20.2659C2.86551 20.2411 2.89096 20.2166 2.91648 20.1922C2.91838 20.1904 2.92028 20.1886 2.92218 20.1868C2.97072 20.1406 3.01949 20.0953 3.06848 20.0509C4.1669 19.0547 5.37857 18.4994 6.7035 18.385C6.71468 18.3841 6.72586 18.3831 6.73705 18.3822C6.73787 18.3822 6.7387 18.3821 6.73953 18.382C6.78486 18.3784 6.83031 18.3753 6.8759 18.3727C6.91581 18.3704 6.95583 18.3685 6.99595 18.367C7.16071 18.3609 7.32718 18.3614 7.49536 18.3686C7.51107 18.3693 7.5268 18.37 7.54254 18.3708C7.8351 18.3854 8.13282 18.4201 8.43568 18.4748C8.54705 18.4947 8.65712 18.5177 8.7659 18.5437C8.76601 18.5437 8.76579 18.5437 8.7659 18.5437C9.80115 18.7914 10.7198 19.3156 11.5275 20.0759C11.6112 20.1547 11.6938 20.236 11.7751 20.3198C11.7768 20.3216 11.7785 20.3233 11.7802 20.3251C11.793 20.3382 11.8057 20.3515 11.8184 20.3648C11.8227 20.3692 11.8269 20.3737 11.8312 20.3782C11.9938 20.5487 12.1667 20.73 12.3844 20.5038C12.61 20.2708 12.4865 20.0691 12.3196 19.886C12.3196 19.8859 12.3196 19.886 12.3196 19.886C12.3077 19.8729 12.2956 19.86 12.2834 19.8472C12.2108 19.769 12.1368 19.6928 12.0614 19.6184C11.175 18.7436 10.1037 18.13 8.94541 17.8366C8.81995 17.8047 8.69355 17.7771 8.56632 17.7519C8.56579 17.7518 8.56526 17.7517 8.56473 17.7516C8.39928 17.7188 8.23243 17.69 8.0644 17.661C8.01851 17.6531 7.97253 17.6452 7.92647 17.6371C7.83258 17.6208 7.73834 17.604 7.64379 17.586C7.63821 17.515 7.63352 17.4443 7.62982 17.374C7.61592 17.1097 7.61602 16.8504 7.63566 16.5968C7.65562 16.3392 7.69574 16.0876 7.76183 15.8428C7.77961 15.7769 7.79927 15.7116 7.82092 15.6468C7.86029 15.5288 7.90625 15.4126 7.95948 15.2983C8.0228 15.1622 8.09642 15.0286 8.18145 14.8978C8.19634 14.8749 8.21157 14.8521 8.22716 14.8294C8.2343 14.8191 8.24132 14.8089 8.24822 14.7988C8.26915 14.7684 8.289 14.7396 8.3079 14.7123C8.39075 14.5927 8.45551 14.5026 8.51466 14.438C8.53565 14.4151 8.55594 14.3954 8.57608 14.3787C8.59122 14.3662 8.60628 14.3554 8.62149 14.3462C8.68773 14.3063 8.75688 14.2976 8.84853 14.3138C8.86066 14.3159 8.8732 14.3185 8.88617 14.3215C8.91066 14.3272 8.93671 14.3344 8.96465 14.343C9.0515 14.3697 9.15649 14.41 9.28881 14.461C10.6525 14.9859 11.5099 14.7306 12.3537 13.4966C12.3538 13.4966 12.3537 13.4967 12.3537 13.4966C12.3849 13.4511 12.4161 13.404 12.4473 13.3558C12.58 13.1483 12.6955 12.9287 12.8108 12.7095C12.8172 12.6974 12.8236 12.6852 12.8299 12.6731C12.8303 12.6724 12.8307 12.6717 12.8311 12.6709C12.9527 12.4399 13.0752 12.2101 13.2185 11.9964C13.4301 11.6834 13.6613 11.3889 13.8924 11.0944C13.9894 10.9709 14.0863 10.8474 14.1818 10.7226C14.2217 10.6704 14.2615 10.6179 14.3008 10.5651C14.3148 10.5462 14.3298 10.5265 14.3452 10.5063C14.4461 10.3739 14.5648 10.2181 14.549 10.099C14.5308 9.96182 14.3289 9.77485 14.1874 9.74906C14.0293 9.72071 13.8711 9.68947 13.7129 9.65764C13.6959 9.65421 13.6789 9.65078 13.6619 9.64735C13.6377 9.64247 13.6136 9.63759 13.5894 9.63271C13.5386 9.62242 13.4878 9.61214 13.4369 9.60193C13.4361 9.60177 13.4353 9.6016 13.4344 9.60144C13.2067 9.55572 12.9789 9.51157 12.7512 9.47582C12.4025 9.42109 12.0537 9.38608 11.705 9.39539C11.1617 9.4105 10.6693 9.53271 10.2394 9.74773C9.4851 10.125 8.92321 10.788 8.61644 11.6594C8.61282 11.6697 8.60924 11.68 8.60569 11.6903C8.56103 11.8205 8.52201 11.9552 8.48883 12.0943C8.48494 12.1106 8.48113 12.1269 8.4774 12.1434C8.42172 12.3886 8.38405 12.647 8.36548 12.9172C8.36272 12.9574 8.36038 12.9979 8.35847 13.0386C8.35827 13.0427 8.35809 13.0468 8.3579 13.0509C8.35243 13.1759 8.33477 13.2879 8.30698 13.391C8.25282 13.5918 8.16019 13.7583 8.04437 13.9191C8.01737 13.9565 7.98911 13.9937 7.95978 14.0309C7.95951 14.0312 7.95925 14.0316 7.95898 14.0319C7.89864 14.1084 7.83381 14.1851 7.76615 14.2651C7.72491 14.3139 7.68262 14.3639 7.63967 14.4159C7.6381 14.4178 7.63653 14.4197 7.63496 14.4216C7.6347 14.4219 7.63443 14.4222 7.63417 14.4225C7.62993 14.4277 7.6257 14.4328 7.62145 14.438C7.62145 14.4306 7.62145 14.4232 7.62145 14.4159C7.62145 14.4152 7.62146 14.4145 7.62146 14.4138C7.62146 14.4133 7.62146 14.4128 7.62146 14.4123C7.62149 14.2567 7.62179 14.1033 7.62222 13.9519C7.62232 13.9154 7.62243 13.8791 7.62255 13.8429C7.6226 13.8263 7.62265 13.8097 7.62271 13.7931C7.62285 13.7488 7.623 13.7047 7.62315 13.6608C7.62324 13.6347 7.62334 13.6087 7.62343 13.5827C7.62349 13.5662 7.62354 13.5497 7.6236 13.5333C7.62421 13.3597 7.62478 13.1885 7.62508 13.0188C7.62508 13.0186 7.62508 13.0191 7.62508 13.0188C7.62595 12.5183 7.62438 12.0315 7.61401 11.546C7.61366 11.5346 7.61346 11.5234 7.61341 11.5124C7.6134 11.5109 7.6134 11.5094 7.61339 11.5079C7.61334 11.4558 7.61663 11.4081 7.62351 11.364C7.6287 11.3307 7.63594 11.2995 7.64532 11.2701C7.65076 11.253 7.65692 11.2366 7.66382 11.2206C7.69032 11.1594 7.72772 11.106 7.77715 11.0569C7.80655 11.0276 7.84022 10.9999 7.87836 10.9729C7.89452 10.9615 7.91148 10.9502 7.92927 10.939C7.92952 10.9389 7.92902 10.9392 7.92927 10.939C7.94023 10.932 7.9519 10.9244 7.96279 10.9172C8.66472 10.4576 9.2017 9.8729 9.40966 9.07092C9.48629 8.7754 9.51825 8.45038 9.49733 8.09122C9.48997 7.96672 9.47604 7.84447 9.45609 7.72442C9.45508 7.71828 9.45404 7.71215 9.45299 7.70603C9.35895 7.15783 9.13979 6.6559 8.85012 6.19764C8.84659 6.19206 8.84305 6.18647 8.83949 6.1809C8.80749 6.13068 8.77464 6.08099 8.74102 6.03182C8.42236 5.5658 8.13639 5.08698 7.92781 4.56785C7.88775 4.46815 7.85054 4.36696 7.81651 4.26409C7.77403 4.13569 7.73649 4.00466 7.7045 3.87064C7.68337 3.78209 7.66466 3.69223 7.64856 3.60095C7.63225 3.50852 7.61862 3.41463 7.60783 3.31917C7.60773 3.31824 7.60763 3.31732 7.60752 3.31639C7.60574 3.30055 7.60404 3.28467 7.60242 3.26875C7.59001 3.14257 7.40383 2.94547 7.32108 2.95837C7.19448 2.97863 6.99588 3.14349 6.98513 3.26322C6.98321 3.28561 6.98112 3.3079 6.97885 3.33009C6.97878 3.33081 6.9787 3.33154 6.97863 3.33226C6.96875 3.42833 6.95556 3.52254 6.93934 3.61508C6.92566 3.69315 6.90982 3.77003 6.89201 3.84582C6.85861 3.98794 6.81826 4.12622 6.77212 4.26138C6.7373 4.36334 6.69919 4.46353 6.65827 4.56224C6.43517 5.10043 6.12867 5.59482 5.81889 6.0945C5.80825 6.11167 5.7976 6.12884 5.78695 6.14602C5.73158 6.23533 5.67947 6.324 5.6306 6.41201C5.63041 6.41235 5.63021 6.4127 5.63002 6.41305C5.41756 6.79587 5.26655 7.16633 5.17645 7.52399C5.17628 7.52467 5.17611 7.52535 5.17594 7.52603C5.03675 8.07991 5.04367 8.60307 5.19468 9.09389C5.40133 9.76554 5.87781 10.3766 6.61897 10.9229C6.63895 10.9376 6.65911 10.9523 6.67947 10.9669C6.68297 10.9695 6.68646 10.972 6.68997 10.9745C6.70223 10.9832 6.71456 10.992 6.72696 11.0007C6.77954 11.0385 6.82525 11.0869 6.8618 11.1433C6.86589 11.1496 6.86987 11.1561 6.87373 11.1626C6.88481 11.1813 6.89484 11.2007 6.90379 11.2206C6.9087 11.2316 6.91328 11.2427 6.91754 11.254C6.93233 11.2932 6.9431 11.3343 6.94955 11.3765C6.94961 11.38 6.94968 11.3835 6.94974 11.387C6.9508 11.4447 6.95177 11.5024 6.95265 11.5601C6.95268 11.5621 6.95271 11.5641 6.95274 11.566C6.95953 12.0119 6.96131 12.459 6.96135 12.9165C6.96135 12.9184 6.96135 12.9203 6.96135 12.9222C6.96136 13.1098 6.96108 13.2992 6.96073 13.4909C6.96064 13.5434 6.96054 13.596 6.96044 13.6488C6.96042 13.6556 6.96041 13.6625 6.9604 13.6693C6.96031 13.7134 6.96023 13.7577 6.96015 13.8021C6.96009 13.8329 6.96004 13.8638 6.95999 13.8948C6.95996 13.911 6.95993 13.9272 6.95991 13.9434C6.95966 14.099 6.95948 14.2564 6.95948 14.4159C6.83163 14.2797 6.71858 14.1504 6.62202 14.0187C6.61989 14.0158 6.61777 14.0129 6.61566 14.01C6.59673 13.984 6.57844 13.9579 6.56082 13.9316C6.54141 13.9026 6.5228 13.8735 6.505 13.844C6.48511 13.8111 6.46623 13.7778 6.44841 13.744C6.39339 13.6397 6.34832 13.5307 6.31393 13.4131C6.27864 13.2923 6.25459 13.1625 6.24258 13.0195C6.24112 13.0022 6.23985 12.9848 6.23875 12.9671C6.23755 12.95 6.23628 12.9328 6.23495 12.9158C6.20116 12.4831 6.12522 12.0799 6.00385 11.7117C5.98759 11.6624 5.97052 11.6137 5.95262 11.5657C5.66071 10.782 5.1498 10.1691 4.38561 9.78427C4.24959 9.71577 4.10554 9.6545 3.95328 9.60078C2.90743 9.23177 1.86933 9.30075 0.845557 9.60267C0.663235 9.65644 0.481367 9.7176 0.299991 9.78498C-0.0690606 9.92221 -0.101331 10.2308 0.223865 10.4988C0.308857 10.5683 0.389797 10.6413 0.467179 10.7174C0.907375 11.1503 1.23242 11.6838 1.53292 12.2533C1.55137 12.289 1.56999 12.3246 1.58878 12.36C1.58883 12.3601 1.58873 12.3599 1.58878 12.36C1.80743 12.7725 2.04921 13.1694 2.31237 13.548C2.31282 13.5487 2.31328 13.5493 2.31373 13.55C2.39746 13.6704 2.48336 13.789 2.5714 13.9056C3.13987 14.6434 3.89121 14.8764 4.74268 14.636C4.89474 14.593 5.04398 14.538 5.19318 14.4829C5.33876 14.4292 5.4843 14.3755 5.63236 14.333C5.6513 14.3276 5.67028 14.3224 5.68931 14.3173C5.70861 14.3126 5.72814 14.3095 5.74774 14.3078C5.78919 14.3043 5.83099 14.3074 5.8718 14.3174C5.90209 14.3247 5.93149 14.3357 5.95949 14.3501C5.97549 14.3583 5.99104 14.3676 6.00604 14.378C6.01688 14.3855 6.02744 14.3935 6.03768 14.4021C6.04181 14.4067 6.04593 14.4113 6.05004 14.4159ZM5.14803 11.4438C4.82272 10.9342 4.30887 10.5304 3.71012 10.29C3.71012 10.29 3.71012 10.29 3.71012 10.29C3.23243 10.0982 2.7007 10.0103 2.16756 10.0558C1.90297 10.0783 1.63804 10.1337 1.37919 10.2254C1.3055 10.2515 1.23229 10.2806 1.15973 10.3127C1.19986 10.3814 1.23998 10.4502 1.28011 10.519C1.36722 10.6685 1.45438 10.8184 1.5417 10.9686C1.58358 11.0406 1.6255 11.1127 1.66747 11.1848C1.81517 11.4387 1.96346 11.6932 2.11284 11.9473C2.11376 11.9489 2.11469 11.9504 2.11561 11.952C2.12989 11.9763 2.14419 12.0006 2.15849 12.0249C2.17828 12.0585 2.19792 12.0923 2.21747 12.1261C2.25842 12.197 2.29896 12.2683 2.33949 12.3395C2.50056 12.6225 2.66161 12.9056 2.8486 13.1661C2.86122 13.1838 2.87389 13.2012 2.8866 13.2184C2.96042 13.318 3.03575 13.408 3.11278 13.4885C3.11438 13.4901 3.11599 13.4918 3.11759 13.4935C3.41021 13.7974 3.72731 13.9635 4.07882 13.9922C4.22927 14.0045 4.38602 13.9917 4.54987 13.9537C4.54981 13.9537 4.54992 13.9537 4.54987 13.9537C4.7146 13.9155 4.88667 13.8519 5.06652 13.7629C5.15283 13.7202 5.24096 13.6717 5.33101 13.6174C5.25998 13.5707 5.18941 13.5244 5.11924 13.4784C5.10872 13.4715 5.09821 13.4646 5.08771 13.4577C4.83691 13.2932 4.59118 13.1322 4.34807 12.9736C4.16479 12.854 3.98301 12.7357 3.80169 12.6182C3.73124 12.5725 3.66085 12.527 3.59048 12.4815C3.58012 12.4749 3.56976 12.4682 3.5594 12.4615C3.55022 12.4556 3.54099 12.4497 3.53174 12.4439C3.51725 12.4347 3.50272 12.4254 3.48829 12.4161C3.48853 12.4163 3.48804 12.416 3.48829 12.4161C3.30921 12.3006 3.14472 12.1716 3.24808 11.9135C3.25348 11.9 3.25959 11.8862 3.26647 11.872C3.42287 11.5497 3.65704 11.6795 3.87053 11.8158L5.51223 12.8612C5.52041 12.7528 5.52086 12.6462 5.51407 12.5414C5.48817 12.1421 5.357 11.7711 5.14803 11.4438ZM7.61848 9.93845C7.61874 10.0264 7.61895 10.1149 7.61897 10.204C7.61897 10.2076 7.61897 10.2112 7.61897 10.2148C7.61897 10.2168 7.61897 10.2187 7.61897 10.2206H7.62145C7.634 10.2152 7.64648 10.2097 7.65888 10.204C7.76573 10.1553 7.8673 10.0968 7.96279 10.0299C8.23822 9.83691 8.463 9.57412 8.61766 9.27494C8.79844 8.92525 8.88343 8.52583 8.84157 8.12998C8.84159 8.13017 8.84155 8.1298 8.84157 8.12998C8.83289 8.04816 8.81874 7.96595 8.79894 7.88491C8.66728 7.4035 8.4795 6.94337 8.2404 6.51628C8.22215 6.48136 8.20368 6.44661 8.18501 6.41202C8.18502 6.41203 8.18501 6.41201 8.18501 6.41202C8.0912 6.23822 7.99232 6.06837 7.89143 5.90149C7.78571 5.72662 7.67777 5.55498 7.57112 5.38538C7.53508 5.32806 7.49918 5.27098 7.46357 5.21409C7.40833 5.12585 7.35377 5.03805 7.30039 4.95054C7.24334 5.04489 7.18537 5.13986 7.12679 5.23546C7.08346 5.30617 7.03979 5.37722 6.99592 5.44861C6.90332 5.5993 6.80978 5.75152 6.71645 5.90528C6.59717 6.10179 6.47825 6.30084 6.36209 6.50243C6.36211 6.5024 6.36207 6.50247 6.36209 6.50243C6.31582 6.58274 6.26992 6.66357 6.22468 6.74469C6.05738 7.04344 5.92633 7.36553 5.83494 7.70255C5.69504 8.22485 5.75481 8.7707 5.96279 9.22652C6.11172 9.55293 6.33665 9.83317 6.6187 10.0255C6.72554 10.0984 6.84058 10.1587 6.96279 10.204V8.91462C6.96279 8.90777 6.9628 8.90093 6.96282 8.89408C6.96283 8.89098 6.96285 8.88789 6.96286 8.88479C6.96438 8.61828 6.99121 8.3549 7.3095 8.362C7.61814 8.362 7.62228 8.63831 7.62145 8.89619C7.62135 8.90233 7.62124 8.90847 7.62114 8.91462C7.62074 8.9392 7.62037 8.96381 7.62004 8.98845C7.61879 9.08227 7.61806 9.17652 7.61769 9.27128C7.61696 9.45543 7.61755 9.64153 7.61815 9.83028C7.61826 9.86624 7.61838 9.90229 7.61848 9.93845ZM9.55524 13.7688C9.46528 13.727 9.37273 13.6793 9.27737 13.6257C9.34311 13.5815 9.40825 13.5373 9.47276 13.4937C9.4832 13.4867 9.49363 13.4796 9.50404 13.4726C9.6027 13.4058 9.70005 13.3398 9.79642 13.2743C9.79698 13.2739 9.79755 13.2735 9.79812 13.2731C9.87494 13.2209 9.95114 13.1691 10.0269 13.1176C10.1022 13.0664 10.177 13.0155 10.2515 12.9649C10.4261 12.8463 10.5991 12.729 10.7725 12.6125C10.8156 12.5835 10.8647 12.5607 10.9134 12.5382C10.9425 12.5247 10.9714 12.5113 10.9989 12.4966C11.0508 12.469 11.0972 12.4369 11.1291 12.3915C11.139 12.3773 11.1482 12.3627 11.157 12.3476C11.1575 12.3466 11.158 12.3457 11.1585 12.3448C11.2062 12.2614 11.2382 12.1643 11.2687 12.066C11.272 12.0554 11.2753 12.0447 11.2786 12.034C11.2955 11.979 11.3124 11.924 11.3318 11.8711C11.2797 11.8586 11.2237 11.8373 11.1677 11.816C11.0457 11.7696 10.9236 11.7231 10.842 11.7679C10.7305 11.8285 10.6204 11.892 10.5112 11.9576C10.5106 11.958 10.5099 11.9584 10.5093 11.9588C10.4675 11.9839 10.4259 12.0093 10.3843 12.035C10.3841 12.0351 10.3838 12.0353 10.3835 12.0355C10.3295 12.0689 10.2757 12.1027 10.222 12.1368C10.0636 12.2375 9.90655 12.341 9.74944 12.4445C9.63495 12.5199 9.52046 12.5953 9.40548 12.6696C9.40212 12.6718 9.39876 12.674 9.3954 12.6762C9.29484 12.7422 9.19815 12.8136 9.09329 12.891C9.07945 12.9012 9.06547 12.9116 9.05132 12.922C9.05219 12.7966 9.06032 12.6742 9.07531 12.5551C9.08854 12.4499 9.10711 12.3473 9.13075 12.2473C9.1309 12.2467 9.13106 12.2461 9.13121 12.2454C9.20143 11.9495 9.31609 11.6773 9.46793 11.433C9.9366 10.6788 10.7595 10.1899 11.7235 10.0865C11.7237 10.0864 11.7232 10.0865 11.7235 10.0865C11.9448 10.0628 12.1743 10.0593 12.4079 10.0777C12.6946 10.1003 12.9887 10.1557 13.2853 10.2467C13.3337 10.2615 13.3821 10.2772 13.4306 10.294C13.4319 10.2944 13.4332 10.2948 13.4344 10.2953C13.3786 10.3932 13.3229 10.4917 13.2674 10.5892C13.2229 10.6673 13.1785 10.7452 13.1342 10.823C13.0655 10.9436 12.997 11.0639 12.9286 11.1839C12.8439 11.3325 12.7593 11.4808 12.6747 11.6286C12.6742 11.6294 12.6738 11.6301 12.6733 11.6309C12.5366 11.8698 12.3999 12.1077 12.2627 12.3445L12.2595 12.35C12.2355 12.3919 12.2115 12.4337 12.1873 12.4755C12.0974 12.6312 12.0059 12.7862 11.9086 12.9357C11.9081 12.9364 11.9077 12.9371 11.9072 12.9378C11.8966 12.9541 11.8859 12.9703 11.8751 12.9864C11.8746 12.9872 11.8741 12.988 11.8736 12.9887C11.8482 13.0268 11.8224 13.0644 11.796 13.1016C11.7664 13.1435 11.7367 13.1839 11.7068 13.2228C11.3436 13.697 10.9671 13.95 10.5286 13.9857C10.2419 14.0091 9.92866 13.9395 9.5753 13.7781C9.56877 13.7751 9.56179 13.7719 9.55524 13.7688C9.55539 13.7689 9.55509 13.7688 9.55524 13.7688ZM13.5947 10.3876C13.5936 10.3845 13.5926 10.3814 13.5915 10.3783L13.6423 10.0766L14.0699 10.3938L14.0262 10.6338L13.5947 10.3876Z" fill="#226A47"/>
<path d="M16.255 3.42804H15.3257C15.0378 3.42804 14.8955 3.26871 14.8963 2.94543C14.8963 2.13186 14.8963 1.3189 14.8963 0.506562C14.8963 0.158416 15.0485 0 15.3522 0C16.7722 0 18.1918 0 19.6112 0C19.9116 0 20.0804 0.142755 20.0804 0.491823C20.0804 1.30509 20.0804 2.11835 20.0804 2.93161C20.0804 3.27791 19.9281 3.43541 19.6211 3.43081C19.3141 3.4262 19.0212 3.43081 18.6902 3.43081C18.6811 3.62791 18.6671 3.77619 18.6671 3.9254C18.6671 6.80912 18.6671 9.69376 18.6596 12.5775C18.6596 12.9155 18.7531 13.1015 19.0212 13.2572C19.502 13.5381 19.9861 13.691 20.5297 13.5556C20.8491 13.4764 21.0005 13.6652 20.9997 14.0069C20.9997 15.3878 20.9936 16.7694 20.9815 18.1515C20.9774 18.7041 20.7548 19.1481 20.4023 19.533C18.9194 21.1586 16.1292 21.1743 14.6331 19.5653C14.2608 19.1646 14.0307 18.705 14.0316 18.1082C14.0316 16.7589 14.0183 15.4087 14.0117 14.0557C14.0117 13.6735 14.1483 13.4699 14.5214 13.5648C15.1164 13.7168 15.6394 13.5086 16.1185 13.1402C16.1695 13.096 16.2118 13.0404 16.2424 12.977C16.273 12.9135 16.2914 12.8436 16.2964 12.7718C16.3046 9.71955 16.3046 6.66666 16.2964 3.61317C16.2884 3.55002 16.2745 3.48797 16.255 3.42804ZM14.6969 14.3385C14.6969 15.6141 14.6712 16.8538 14.7142 18.0907C14.7425 18.4369 14.8762 18.7618 15.0932 19.0117C16.2931 20.3702 18.6886 20.361 19.919 19.0357C20.0517 18.902 20.1572 18.7384 20.2285 18.5558C20.2999 18.3731 20.3354 18.1756 20.3328 17.9765C20.3328 16.8262 20.3328 15.674 20.3328 14.5254C20.3231 14.4621 20.3067 14.4003 20.2839 14.3412C19.5938 14.4168 19.0312 14.0705 18.4437 13.7499C18.1584 13.5983 17.8473 13.5166 17.5312 13.5103C17.2152 13.5039 16.9016 13.5731 16.6116 13.7131C15.996 13.9995 15.4259 14.4011 14.6969 14.3385ZM17.9861 12.8215V3.46673H16.9931V12.8215H17.9861ZM15.5723 2.66175H19.3878V0.769973H15.5723V2.66175Z" fill="#226A47"/>
</svg>
