<svg width="24" height="24" viewBox="0 0 22 22" fill="none" xmlns="http://www.w3.org/2000/svg">
<mask id="path-1-inside-1_359_20315" fill="white">
<path d="M21.2059 21.0924C20.3336 20.1123 19.4631 19.1312 18.5725 18.1725C18.3639 17.9454 18.1129 17.7723 17.8373 17.6657C17.5432 17.5587 17.5031 17.3867 17.5031 17.0891C17.5123 15.3995 17.5073 13.7107 17.5073 12.022V11.5571C17.6844 11.545 17.808 11.5394 17.9317 11.5273C19.8432 11.3413 21.1198 9.58472 20.8825 7.48869C20.8366 7.08139 20.6628 6.87681 20.3061 6.83124C19.6268 6.74569 18.9693 6.82101 18.3636 7.19763C18.0804 7.37338 17.8206 7.59377 17.5073 7.82624C17.5073 7.17066 17.5223 6.56714 17.5014 5.96642C17.493 5.82284 17.5142 5.67903 17.5633 5.54592C17.6123 5.41281 17.6881 5.29393 17.7846 5.19831C18.8849 3.9606 18.7179 1.87852 17.463 0.868636C17.1998 0.656616 16.9809 0.647317 16.7111 0.863057C15.427 1.88596 15.2908 3.98012 16.4195 5.27084C16.5674 5.44009 16.6317 5.6986 16.7353 5.9162L16.6092 6.0092C16.5331 5.95154 16.4546 5.89668 16.3811 5.8353C15.7595 5.31734 15.0619 5.14345 14.2924 5.22993C13.9257 5.27177 13.7494 5.46799 13.6967 5.86413C13.4595 7.63097 14.6425 9.30481 16.2424 9.44244C16.3752 9.45359 16.5081 9.46847 16.6442 9.48242V11.2632C15.6918 10.2291 14.6224 9.81905 13.3525 10.0673C13.1019 9.05373 12.4619 8.75151 11.5981 8.7915C10.9447 8.82218 10.2889 8.81847 9.63642 8.78406C9.44222 8.76267 9.2628 8.65915 9.13515 8.49485C8.5921 7.73604 8.07745 6.95027 7.54777 6.16263C8.70823 5.54796 8.72994 4.31118 8.6723 3.09392C9.07165 2.91724 9.69991 3.29292 9.71077 2.55922C9.7208 1.9399 9.15603 2.17051 8.78258 2.05148C8.78258 1.85992 8.78258 1.66185 8.78258 1.46471C8.76336 0.551533 8.29634 0.043798 7.46673 0.0382185C6.86854 0.0382185 6.26952 0.0307792 5.67133 0.0382185C4.93613 0.0493774 4.4524 0.585938 4.42399 1.40984C4.41647 1.62279 4.42399 1.83575 4.42399 2.07659C4.23518 2.08589 4.08479 2.08682 3.93608 2.10356C3.6679 2.13332 3.47825 2.27745 3.4958 2.60292C3.51084 2.90235 3.6913 3.02882 3.95029 3.02882H4.64706C4.63118 4.10752 4.54012 5.16204 5.40482 5.9162C4.16583 6.5067 3.7197 7.5482 3.75229 8.94307C3.7857 10.4142 3.76147 11.8872 3.7598 13.3592C3.7598 14.4212 4.11571 15.2823 4.88683 15.9258C4.97456 15.9993 5.07565 16.1332 5.07732 16.242C5.09236 17.1533 5.08567 18.0646 5.08567 19.0512H4.49668C3.42478 19.0512 2.35205 19.0373 1.281 19.068C0.639364 19.0875 0.111355 19.6371 0.0704179 20.248C0.00441668 21.1426 0.3528 21.7712 1.04957 21.9349C1.25081 21.9841 1.45704 22.0032 1.6628 21.9916C1.74709 21.9871 1.83091 21.9749 1.91344 21.9554C1.92994 21.9514 1.94594 21.9451 1.96106 21.9368C2.02722 21.895 2.0822 21.8344 2.12038 21.7612C2.15855 21.688 2.17853 21.6048 2.17828 21.5202C2.17858 21.3958 2.13509 21.2763 2.05714 21.1872C2.00174 21.14 1.94109 21.1009 1.87668 21.071C1.83893 21.0546 1.79926 21.0442 1.75888 21.0403H1.75303C1.70269 21.0361 1.65215 21.0361 1.60181 21.0403C1.50087 21.0491 1.39947 21.0491 1.29854 21.0403C1.22602 21.0347 1.15552 21.0113 1.09211 20.9717C1.02869 20.9322 0.973934 20.8775 0.931776 20.8116C0.929349 20.8085 0.927374 20.8051 0.925927 20.8013C0.917579 20.7865 0.910849 20.7705 0.905877 20.7539C0.901872 20.7461 0.899047 20.7376 0.897519 20.7288C0.876323 20.6671 0.865559 20.6015 0.865771 20.5354C0.865771 20.3859 0.919115 20.2426 1.01406 20.1369C1.10901 20.0312 1.23778 19.9718 1.37206 19.9718H1.40799C1.49738 19.9635 1.60432 19.9839 1.69705 19.983C2.88006 19.983 4.06391 19.983 5.24692 19.983C5.83174 19.983 5.92197 19.8807 5.92281 19.2261C5.92281 18.2961 5.92281 17.3737 5.92281 16.4782H7.22946C7.22946 17.5634 7.26789 18.6002 7.21777 19.6315C7.17766 20.4554 6.55775 21.0264 5.80584 21.0478C5.62454 21.0543 5.44325 21.0478 5.26279 21.0524C4.98458 21.0626 4.8083 21.2096 4.81749 21.5369C4.82585 21.84 5.0038 21.9572 5.25861 21.9823C6.99637 22.1544 8.07662 21.0524 8.07745 19.0996C8.07745 18.2357 8.07745 17.3727 8.07745 16.4958H9.59297C9.59297 17.7977 9.59297 19.0615 9.59297 20.3289C9.59297 21.3016 10.1218 21.9674 10.8921 21.9805C11.6833 21.9935 12.2288 21.3295 12.2347 20.3299C12.2405 18.7648 12.2447 17.1988 12.2347 15.6338C12.2238 14.0037 11.2814 12.964 9.8244 12.9566C9.21618 12.9566 8.60797 12.9566 7.98639 12.9566V11.7802C9.07248 11.7802 10.1293 11.797 11.1845 11.7728C11.7543 11.7607 12.3224 11.6798 12.9047 11.6259C12.9414 12.1198 13.0655 12.6007 13.2698 13.041C13.4741 13.4813 13.7547 13.8723 14.0953 14.1915C14.8213 14.8936 15.6876 15.1568 16.6618 15.1168C16.6618 15.8347 16.6501 16.4986 16.6676 17.1626C16.6752 17.4416 16.5916 17.5662 16.346 17.6517C16.1061 17.7338 15.886 17.8749 15.7018 18.0646C14.7611 19.0763 13.8354 20.1104 12.9148 21.1407C12.6808 21.4039 12.7184 21.7247 12.9657 21.8921C13.2289 22.0697 13.4102 21.9005 13.5856 21.7061C14.3921 20.8066 15.1997 19.9077 16.0085 19.0094C16.7242 18.2177 17.4396 18.2199 18.1548 19.0159C18.9635 19.9123 19.7613 20.8209 20.5859 21.7006C20.7204 21.8438 20.9845 21.9554 21.1541 21.9126C21.4665 21.8363 21.4816 21.4067 21.2059 21.0924ZM20.0362 7.78068C20.235 9.34665 18.9434 10.7908 17.5783 10.5583C17.2341 9.11325 18.5666 7.58354 20.0304 7.78068H20.0362ZM16.6309 8.47905C16.3539 8.51388 16.0734 8.47974 15.8097 8.3791C15.546 8.27845 15.3057 8.11381 15.1062 7.89709C14.9067 7.68037 14.753 7.417 14.6562 7.12603C14.5594 6.83507 14.5219 6.52378 14.5464 6.21471C15.6183 5.92551 16.7311 7.11579 16.625 8.47905H16.6309ZM7.8218 4.3586C7.75246 5.01791 7.21777 5.47449 6.61206 5.44939C6.32392 5.44319 6.04863 5.31553 5.84177 5.09219C5.63491 4.86885 5.51189 4.56645 5.49755 4.24608C5.47917 3.86202 5.49755 3.47704 5.49755 3.02882H7.50433C7.59873 3.02882 7.69314 3.03812 7.8218 3.04556C7.82431 3.50308 7.86023 3.93549 7.81595 4.3586H7.8218ZM5.28785 2.07008C5.28033 1.89898 5.26697 1.74926 5.26864 1.59955C5.26864 1.07973 5.36639 0.969996 5.82255 0.966276C6.30712 0.966276 6.79168 0.966276 7.27625 0.966276C7.90619 0.966276 7.9655 1.03323 7.95213 1.73252C7.95213 1.83667 7.93877 1.94082 7.92958 2.07008H5.28785ZM10.0951 13.9023C10.7985 13.9125 11.3733 14.5616 11.3909 15.3902C11.426 17.0761 11.4084 18.7648 11.4034 20.4526C11.4034 20.7855 11.253 21.0357 10.9305 21.0366C10.588 21.0366 10.4418 20.7837 10.441 20.4247C10.441 19.0298 10.441 17.635 10.441 16.2401C10.441 15.6319 10.3574 15.5306 9.81437 15.5287C8.71574 15.5287 7.61628 15.5371 6.51765 15.5287C5.53599 15.5166 4.83671 14.8973 4.68465 13.8939C6.50178 13.8939 8.29551 13.8763 10.0892 13.9023H10.0951ZM12.0283 10.8336C10.8311 10.8457 9.63391 10.8485 8.43587 10.8336C8.31222 10.8336 8.1727 10.6913 8.07077 10.5797C7.85355 10.3407 7.68311 10.0376 7.44 9.84323C7.35697 9.79276 7.26419 9.76548 7.1696 9.76369C7.07502 9.76191 6.98146 9.78569 6.89695 9.833C6.7992 9.90274 6.75075 10.298 6.82761 10.3826C7.20022 10.7741 7.12252 11.2558 7.12586 11.7263C7.12586 12.1122 7.12586 12.4991 7.12586 12.9352H4.60194V11.8193C4.60194 10.7499 4.59777 9.68049 4.60194 8.61202C4.60696 7.71001 5.00296 7.06279 5.68219 6.82008C6.36142 6.57738 7.00222 6.83868 7.49263 7.57982C7.87193 8.15358 8.25958 8.72176 8.618 9.31225C8.81182 9.63214 9.04408 9.74652 9.38578 9.73815C10.2212 9.71583 11.0567 9.72978 11.8922 9.73164C12.2213 9.73164 12.4845 9.86462 12.5062 10.2682C12.5221 10.6132 12.3366 10.8345 12.0225 10.8373L12.0283 10.8336ZM16.6125 14.1394C15.0677 14.3143 13.746 13.0087 13.7527 11.3357C13.7527 11.1395 13.716 10.9238 14.0034 10.9191C15.7946 10.8912 16.8615 12.7315 16.6108 14.1432L16.6125 14.1394ZM17.0762 1.76693C17.8757 2.55922 17.8774 3.8239 17.0979 4.6227C16.3986 4.21075 16.1931 2.54713 17.0762 1.76693Z"/>
</mask>
<path d="M21.2059 21.0924C20.3336 20.1123 19.4631 19.1312 18.5725 18.1725C18.3639 17.9454 18.1129 17.7723 17.8373 17.6657C17.5432 17.5587 17.5031 17.3867 17.5031 17.0891C17.5123 15.3995 17.5073 13.7107 17.5073 12.022V11.5571C17.6844 11.545 17.808 11.5394 17.9317 11.5273C19.8432 11.3413 21.1198 9.58472 20.8825 7.48869C20.8366 7.08139 20.6628 6.87681 20.3061 6.83124C19.6268 6.74569 18.9693 6.82101 18.3636 7.19763C18.0804 7.37338 17.8206 7.59377 17.5073 7.82624C17.5073 7.17066 17.5223 6.56714 17.5014 5.96642C17.493 5.82284 17.5142 5.67903 17.5633 5.54592C17.6123 5.41281 17.6881 5.29393 17.7846 5.19831C18.8849 3.9606 18.7179 1.87852 17.463 0.868636C17.1998 0.656616 16.9809 0.647317 16.7111 0.863057C15.427 1.88596 15.2908 3.98012 16.4195 5.27084C16.5674 5.44009 16.6317 5.6986 16.7353 5.9162L16.6092 6.0092C16.5331 5.95154 16.4546 5.89668 16.3811 5.8353C15.7595 5.31734 15.0619 5.14345 14.2924 5.22993C13.9257 5.27177 13.7494 5.46799 13.6967 5.86413C13.4595 7.63097 14.6425 9.30481 16.2424 9.44244C16.3752 9.45359 16.5081 9.46847 16.6442 9.48242V11.2632C15.6918 10.2291 14.6224 9.81905 13.3525 10.0673C13.1019 9.05373 12.4619 8.75151 11.5981 8.7915C10.9447 8.82218 10.2889 8.81847 9.63642 8.78406C9.44222 8.76267 9.2628 8.65915 9.13515 8.49485C8.5921 7.73604 8.07745 6.95027 7.54777 6.16263C8.70823 5.54796 8.72994 4.31118 8.6723 3.09392C9.07165 2.91724 9.69991 3.29292 9.71077 2.55922C9.7208 1.9399 9.15603 2.17051 8.78258 2.05148C8.78258 1.85992 8.78258 1.66185 8.78258 1.46471C8.76336 0.551533 8.29634 0.043798 7.46673 0.0382185C6.86854 0.0382185 6.26952 0.0307792 5.67133 0.0382185C4.93613 0.0493774 4.4524 0.585938 4.42399 1.40984C4.41647 1.62279 4.42399 1.83575 4.42399 2.07659C4.23518 2.08589 4.08479 2.08682 3.93608 2.10356C3.6679 2.13332 3.47825 2.27745 3.4958 2.60292C3.51084 2.90235 3.6913 3.02882 3.95029 3.02882H4.64706C4.63118 4.10752 4.54012 5.16204 5.40482 5.9162C4.16583 6.5067 3.7197 7.5482 3.75229 8.94307C3.7857 10.4142 3.76147 11.8872 3.7598 13.3592C3.7598 14.4212 4.11571 15.2823 4.88683 15.9258C4.97456 15.9993 5.07565 16.1332 5.07732 16.242C5.09236 17.1533 5.08567 18.0646 5.08567 19.0512H4.49668C3.42478 19.0512 2.35205 19.0373 1.281 19.068C0.639364 19.0875 0.111355 19.6371 0.0704179 20.248C0.00441668 21.1426 0.3528 21.7712 1.04957 21.9349C1.25081 21.9841 1.45704 22.0032 1.6628 21.9916C1.74709 21.9871 1.83091 21.9749 1.91344 21.9554C1.92994 21.9514 1.94594 21.9451 1.96106 21.9368C2.02722 21.895 2.0822 21.8344 2.12038 21.7612C2.15855 21.688 2.17853 21.6048 2.17828 21.5202C2.17858 21.3958 2.13509 21.2763 2.05714 21.1872C2.00174 21.14 1.94109 21.1009 1.87668 21.071C1.83893 21.0546 1.79926 21.0442 1.75888 21.0403H1.75303C1.70269 21.0361 1.65215 21.0361 1.60181 21.0403C1.50087 21.0491 1.39947 21.0491 1.29854 21.0403C1.22602 21.0347 1.15552 21.0113 1.09211 20.9717C1.02869 20.9322 0.973934 20.8775 0.931776 20.8116C0.929349 20.8085 0.927374 20.8051 0.925927 20.8013C0.917579 20.7865 0.910849 20.7705 0.905877 20.7539C0.901872 20.7461 0.899047 20.7376 0.897519 20.7288C0.876323 20.6671 0.865559 20.6015 0.865771 20.5354C0.865771 20.3859 0.919115 20.2426 1.01406 20.1369C1.10901 20.0312 1.23778 19.9718 1.37206 19.9718H1.40799C1.49738 19.9635 1.60432 19.9839 1.69705 19.983C2.88006 19.983 4.06391 19.983 5.24692 19.983C5.83174 19.983 5.92197 19.8807 5.92281 19.2261C5.92281 18.2961 5.92281 17.3737 5.92281 16.4782H7.22946C7.22946 17.5634 7.26789 18.6002 7.21777 19.6315C7.17766 20.4554 6.55775 21.0264 5.80584 21.0478C5.62454 21.0543 5.44325 21.0478 5.26279 21.0524C4.98458 21.0626 4.8083 21.2096 4.81749 21.5369C4.82585 21.84 5.0038 21.9572 5.25861 21.9823C6.99637 22.1544 8.07662 21.0524 8.07745 19.0996C8.07745 18.2357 8.07745 17.3727 8.07745 16.4958H9.59297C9.59297 17.7977 9.59297 19.0615 9.59297 20.3289C9.59297 21.3016 10.1218 21.9674 10.8921 21.9805C11.6833 21.9935 12.2288 21.3295 12.2347 20.3299C12.2405 18.7648 12.2447 17.1988 12.2347 15.6338C12.2238 14.0037 11.2814 12.964 9.8244 12.9566C9.21618 12.9566 8.60797 12.9566 7.98639 12.9566V11.7802C9.07248 11.7802 10.1293 11.797 11.1845 11.7728C11.7543 11.7607 12.3224 11.6798 12.9047 11.6259C12.9414 12.1198 13.0655 12.6007 13.2698 13.041C13.4741 13.4813 13.7547 13.8723 14.0953 14.1915C14.8213 14.8936 15.6876 15.1568 16.6618 15.1168C16.6618 15.8347 16.6501 16.4986 16.6676 17.1626C16.6752 17.4416 16.5916 17.5662 16.346 17.6517C16.1061 17.7338 15.886 17.8749 15.7018 18.0646C14.7611 19.0763 13.8354 20.1104 12.9148 21.1407C12.6808 21.4039 12.7184 21.7247 12.9657 21.8921C13.2289 22.0697 13.4102 21.9005 13.5856 21.7061C14.3921 20.8066 15.1997 19.9077 16.0085 19.0094C16.7242 18.2177 17.4396 18.2199 18.1548 19.0159C18.9635 19.9123 19.7613 20.8209 20.5859 21.7006C20.7204 21.8438 20.9845 21.9554 21.1541 21.9126C21.4665 21.8363 21.4816 21.4067 21.2059 21.0924ZM20.0362 7.78068C20.235 9.34665 18.9434 10.7908 17.5783 10.5583C17.2341 9.11325 18.5666 7.58354 20.0304 7.78068H20.0362ZM16.6309 8.47905C16.3539 8.51388 16.0734 8.47974 15.8097 8.3791C15.546 8.27845 15.3057 8.11381 15.1062 7.89709C14.9067 7.68037 14.753 7.417 14.6562 7.12603C14.5594 6.83507 14.5219 6.52378 14.5464 6.21471C15.6183 5.92551 16.7311 7.11579 16.625 8.47905H16.6309ZM7.8218 4.3586C7.75246 5.01791 7.21777 5.47449 6.61206 5.44939C6.32392 5.44319 6.04863 5.31553 5.84177 5.09219C5.63491 4.86885 5.51189 4.56645 5.49755 4.24608C5.47917 3.86202 5.49755 3.47704 5.49755 3.02882H7.50433C7.59873 3.02882 7.69314 3.03812 7.8218 3.04556C7.82431 3.50308 7.86023 3.93549 7.81595 4.3586H7.8218ZM5.28785 2.07008C5.28033 1.89898 5.26697 1.74926 5.26864 1.59955C5.26864 1.07973 5.36639 0.969996 5.82255 0.966276C6.30712 0.966276 6.79168 0.966276 7.27625 0.966276C7.90619 0.966276 7.9655 1.03323 7.95213 1.73252C7.95213 1.83667 7.93877 1.94082 7.92958 2.07008H5.28785ZM10.0951 13.9023C10.7985 13.9125 11.3733 14.5616 11.3909 15.3902C11.426 17.0761 11.4084 18.7648 11.4034 20.4526C11.4034 20.7855 11.253 21.0357 10.9305 21.0366C10.588 21.0366 10.4418 20.7837 10.441 20.4247C10.441 19.0298 10.441 17.635 10.441 16.2401C10.441 15.6319 10.3574 15.5306 9.81437 15.5287C8.71574 15.5287 7.61628 15.5371 6.51765 15.5287C5.53599 15.5166 4.83671 14.8973 4.68465 13.8939C6.50178 13.8939 8.29551 13.8763 10.0892 13.9023H10.0951ZM12.0283 10.8336C10.8311 10.8457 9.63391 10.8485 8.43587 10.8336C8.31222 10.8336 8.1727 10.6913 8.07077 10.5797C7.85355 10.3407 7.68311 10.0376 7.44 9.84323C7.35697 9.79276 7.26419 9.76548 7.1696 9.76369C7.07502 9.76191 6.98146 9.78569 6.89695 9.833C6.7992 9.90274 6.75075 10.298 6.82761 10.3826C7.20022 10.7741 7.12252 11.2558 7.12586 11.7263C7.12586 12.1122 7.12586 12.4991 7.12586 12.9352H4.60194V11.8193C4.60194 10.7499 4.59777 9.68049 4.60194 8.61202C4.60696 7.71001 5.00296 7.06279 5.68219 6.82008C6.36142 6.57738 7.00222 6.83868 7.49263 7.57982C7.87193 8.15358 8.25958 8.72176 8.618 9.31225C8.81182 9.63214 9.04408 9.74652 9.38578 9.73815C10.2212 9.71583 11.0567 9.72978 11.8922 9.73164C12.2213 9.73164 12.4845 9.86462 12.5062 10.2682C12.5221 10.6132 12.3366 10.8345 12.0225 10.8373L12.0283 10.8336ZM16.6125 14.1394C15.0677 14.3143 13.746 13.0087 13.7527 11.3357C13.7527 11.1395 13.716 10.9238 14.0034 10.9191C15.7946 10.8912 16.8615 12.7315 16.6108 14.1432L16.6125 14.1394ZM17.0762 1.76693C17.8757 2.55922 17.8774 3.8239 17.0979 4.6227C16.3986 4.21075 16.1931 2.54713 17.0762 1.76693Z" fill="#226A47" stroke="#226A47" stroke-width="2" mask="url(#path-1-inside-1_359_20315)"/>
</svg>
