<svg width="24" height="24" viewBox="0 0 18 24" fill="none" xmlns="http://www.w3.org/2000/svg">
<path d="M6.24417 0.632225C5.43127 0.815351 4.65856 1.50766 4.3995 2.28483C4.35037 2.43223 4.24318 3.0352 4.16278 3.62478L4.01538 4.69674L3.12655 4.71907C2.15732 4.74141 2.08139 4.76374 1.98313 5.00046C1.9072 5.17912 1.96079 5.60791 2.09032 5.89823C2.24218 6.22875 2.5727 6.57267 2.90323 6.7424C3.13102 6.85853 3.23821 6.88086 3.61787 6.90319L4.06452 6.92999L4.07792 7.34538C4.09131 7.75183 4.08685 7.76523 3.94839 7.93942C3.74739 8.19848 3.68933 8.39501 3.68486 8.85506C3.68486 9.20791 3.69826 9.28831 3.80993 9.49823C3.95732 9.78856 4.18958 9.98508 4.47097 10.0565L4.68089 10.1101L4.75682 10.4853C4.97122 11.526 5.58313 12.4729 6.4005 13.0268L6.63275 13.1831V13.5092C6.63275 13.8173 6.54789 14.1434 6.46749 14.1434C6.44963 14.1434 6.2531 14.1747 6.03871 14.2104L5.64566 14.2819L5.51613 14.1702C5.3196 14.0049 5.17221 13.996 4.56923 14.0987C3.91265 14.2149 3.77419 14.2729 3.6268 14.4962C3.52407 14.6526 3.49727 14.666 3.17568 14.7151C2.7201 14.7866 2.39404 14.9072 1.96973 15.1618C1.25062 15.5905 0.594045 16.3498 0.294789 17.1002C0 17.8327 0 17.8193 0 20.3295V22.6074L0.133995 22.8486C0.205459 22.9781 0.326055 23.1345 0.401985 23.1925C0.741439 23.4471 0.218859 23.4337 9 23.4337C17.7767 23.4337 17.2541 23.4471 17.5935 23.1881C17.6739 23.1255 17.799 22.9692 17.8705 22.8441L18 22.6074V20.3295C18 17.8193 18 17.8327 17.7052 17.1002C17.3479 16.2025 16.5261 15.3493 15.6372 14.9474C15.3782 14.8268 14.7886 14.6794 14.5876 14.6794C14.5295 14.6794 14.4491 14.6124 14.3777 14.5052C14.2258 14.2729 14.0918 14.2149 13.4308 14.0987C12.8278 13.996 12.6804 14.0049 12.4839 14.1702L12.3543 14.2819L11.9613 14.2104C11.7469 14.1747 11.5504 14.1434 11.5325 14.1434C11.4521 14.1434 11.3672 13.8173 11.3672 13.5092L11.3717 13.1831L11.5995 13.0268C12.4079 12.4819 13.0332 11.5171 13.2432 10.4853L13.3191 10.1101L13.529 10.0565C13.8104 9.98508 14.0427 9.78856 14.1945 9.49823C14.3017 9.28831 14.3151 9.20791 14.3151 8.85506C14.3107 8.39501 14.2526 8.19848 14.0516 7.93942C13.9132 7.76523 13.9087 7.75183 13.9221 7.34538L13.9355 6.92999L14.3598 6.90766C14.6993 6.88533 14.8422 6.85853 15.061 6.7558C15.4005 6.59947 15.7489 6.25109 15.9097 5.89823C16.0392 5.60791 16.0928 5.17912 16.0169 5.00046C15.9186 4.76374 15.8427 4.74141 14.8734 4.71907L13.9846 4.69674L13.8372 3.62478C13.6407 2.1955 13.5201 1.86051 12.9797 1.32453C12.4615 0.806419 11.7692 0.533962 11.0993 0.578627C10.9161 0.592028 10.5543 0.636692 10.2953 0.681356C9.64764 0.788553 8.34789 0.788553 7.70471 0.681356C7.06154 0.569695 6.57916 0.556295 6.24417 0.632225ZM7.34739 1.3022C8.41935 1.49426 9.50471 1.48979 10.7107 1.29327C11.1082 1.23074 11.2422 1.22627 11.4834 1.26647C12.2427 1.396 12.8457 1.95878 13.0154 2.68682C13.069 2.91908 13.2878 4.48682 13.2878 4.63421C13.2878 4.71907 13.2074 4.71907 10.0496 4.71907H6.80695L6.69975 4.83074C6.55682 4.9692 6.55682 5.13893 6.69975 5.27739L6.80695 5.38905H11.0993H15.3916L15.3648 5.48731C15.3156 5.64364 15.1861 5.84463 15.0432 5.97863C14.7573 6.25109 15.1191 6.23769 9 6.23769C2.88089 6.23769 3.24268 6.25109 2.95682 5.97863C2.8139 5.84463 2.68437 5.64364 2.63524 5.48731L2.60844 5.38905H4.04218H5.47593L5.58313 5.27739C5.64566 5.21932 5.69479 5.11659 5.69479 5.05406C5.69479 4.99153 5.64566 4.8888 5.58313 4.83074C5.48486 4.72801 5.4402 4.71907 5.09181 4.71907C4.72556 4.71907 4.71216 4.71461 4.71216 4.61634C4.71216 4.46448 4.92655 2.94141 4.98462 2.68682C5.13648 2.03024 5.66352 1.48086 6.3201 1.30667C6.64169 1.2218 6.88288 1.2218 7.34739 1.3022ZM5.2928 7.39898V7.89476L5.17221 7.82776C5.10074 7.7965 4.98015 7.75183 4.90422 7.73396L4.75682 7.7027V7.30518V6.90766H5.02481H5.2928V7.39898ZM12.0372 7.64463C12.0372 8.45307 12.0685 8.58707 12.2829 8.68533C12.4749 8.77466 12.6268 8.74786 12.8501 8.58707C12.9663 8.50667 13.1583 8.41287 13.27 8.38161C13.471 8.32354 13.4844 8.32801 13.5648 8.42181C13.6273 8.5022 13.6452 8.60046 13.6452 8.85059C13.6452 9.30171 13.5826 9.37317 13.1494 9.41337C12.7429 9.4491 12.6849 9.50716 12.6447 9.94935C12.5419 10.9588 12.1087 11.7672 11.3404 12.3791C10.2864 13.2233 8.84367 13.4332 7.60645 12.924C6.28883 12.3836 5.4938 11.334 5.35533 9.94935C5.31514 9.50716 5.25707 9.4491 4.85062 9.41337C4.41737 9.37317 4.35484 9.30171 4.35484 8.85059C4.35484 8.60493 4.3727 8.5022 4.43524 8.42627C4.5067 8.33694 4.52903 8.33247 4.72556 8.38161C4.83722 8.41287 5.02928 8.50667 5.14541 8.58707C5.37767 8.75233 5.53846 8.77466 5.73499 8.6764C5.93598 8.5692 5.96278 8.44414 5.96278 7.64463V6.90766H9H12.0372V7.64463ZM13.2432 7.30518V7.7027L13.1002 7.73396C13.0199 7.75183 12.8993 7.7965 12.8323 7.82776L12.7072 7.89476V7.39898V6.90766H12.9752H13.2432V7.30518ZM7.86104 13.7235C8.22729 13.8352 8.33002 13.8441 9 13.8441C9.7459 13.8441 9.88883 13.8218 10.6213 13.5761C10.6839 13.5583 10.6973 13.5806 10.6973 13.7057C10.6973 13.7861 10.7285 13.9737 10.7643 14.1121C10.8 14.2551 10.8313 14.3801 10.8313 14.3891C10.8313 14.4203 9.03573 16.064 9 16.064C8.96427 16.064 7.16873 14.4203 7.16873 14.3891C7.16873 14.3801 7.2 14.2551 7.23573 14.1121C7.27146 13.9737 7.30273 13.7861 7.30273 13.7057C7.30273 13.5806 7.31613 13.5583 7.38313 13.5761C7.42332 13.594 7.64218 13.6565 7.86104 13.7235ZM5.06948 16.4883V18.2972H4.64516H4.22084L4.22978 16.5687L4.24318 14.8402L4.64516 14.7642C4.86849 14.724 5.05161 14.6883 5.06055 14.6838C5.06501 14.6838 5.06948 15.4923 5.06948 16.4883ZM13.7792 15.5235C13.8015 16.1757 13.806 16.2114 13.9087 16.2918C14.0427 16.4034 14.2481 16.399 14.3598 16.2873C14.4357 16.2114 14.4491 16.1399 14.4491 15.7692V15.3359L14.6769 15.3672C15.6551 15.4967 16.66 16.3186 17.0799 17.3325C17.33 17.9399 17.3568 18.2347 17.3434 20.4814L17.33 22.5047L17.1826 22.6342L17.0397 22.7637H16.3027H15.5658V22.0134C15.5658 20.9235 15.4362 20.4635 14.9851 19.9275C14.7707 19.6729 14.6501 19.4541 14.534 19.1057C14.467 18.9092 14.4491 18.7305 14.4491 18.1588V17.4531L14.333 17.3637C14.1722 17.2387 14.065 17.2476 13.9087 17.3995C13.7836 17.5245 13.7792 17.5513 13.7792 17.9131V18.2972H13.3548H12.9305V16.4972V14.6972L13.3459 14.7687L13.7568 14.8402L13.7792 15.5235ZM7.45459 15.5816C8.0129 16.0953 8.26749 16.3588 8.23176 16.3811C8.11117 16.4481 7.61092 16.5151 7.44566 16.4838C7.2134 16.4436 6.99007 16.323 6.82481 16.1444C6.64615 15.9568 5.98958 14.9474 6.02531 14.9161C6.05658 14.8848 6.34243 14.8268 6.50323 14.8178C6.59702 14.8134 6.79801 14.9742 7.45459 15.5816ZM11.7603 14.8536C11.863 14.8759 11.9613 14.9027 11.9747 14.9161C12.0194 14.9563 11.26 16.0774 11.0859 16.2292C10.9921 16.3096 10.8089 16.4079 10.666 16.4481C10.4516 16.5106 10.3667 16.5151 10.1166 16.4704C9.95583 16.4392 9.7995 16.399 9.76824 16.3811C9.69231 16.332 11.3494 14.8134 11.4744 14.8134C11.528 14.8178 11.6531 14.8357 11.7603 14.8536ZM3.55087 17.0958C3.55087 19.2531 3.53747 19.3245 2.96129 19.9856C2.7737 20.2044 2.56824 20.6377 2.49677 20.9727C2.46104 21.1558 2.43424 21.5489 2.43424 22.0134V22.7637H1.69727H0.960298L0.81737 22.6342L0.669975 22.5047L0.656576 20.4814C0.647643 18.8198 0.656576 18.391 0.71464 18.0605C0.875434 17.1225 1.40695 16.3186 2.21092 15.8005C2.59504 15.5503 3.09529 15.3717 3.45261 15.3538L3.55087 15.3493V17.0958ZM6.41836 16.6893C6.66402 16.9216 7.01687 17.0913 7.39653 17.1493C7.66005 17.1895 7.74938 17.1806 8.24516 17.0645C8.54888 16.993 8.88834 16.9394 9 16.9394C9.11166 16.9394 9.45112 16.993 9.75484 17.0645C10.2506 17.1806 10.3399 17.1895 10.6035 17.1493C11.2065 17.0556 11.5816 16.7876 12.0149 16.1399L12.2605 15.7737L12.2516 17.0243L12.2382 18.2749H9H5.76179L5.74839 17.0243L5.73945 15.7737L5.98511 16.1399C6.11911 16.3409 6.31563 16.5866 6.41836 16.6893ZM13.7345 19.0119C13.7836 19.0387 13.8506 19.1637 13.8908 19.3111C13.9935 19.6551 14.1409 19.9454 14.3732 20.2268C14.8288 20.7895 14.8958 21.0218 14.8958 22.0357V22.7637H9H3.10422V22.0357C3.10422 21.0218 3.17122 20.7895 3.6268 20.2268C3.85906 19.9454 4.00645 19.6551 4.10918 19.3111C4.14938 19.1727 4.21638 19.0387 4.25658 19.0119C4.3593 18.9538 13.6228 18.9493 13.7345 19.0119Z" fill="#226A47"/>
<path d="M5.18198 19.6595C5.11944 19.7175 5.07031 19.8203 5.07031 19.8828C5.07031 20.0302 5.25344 20.2178 5.39637 20.2178C5.57056 20.2178 5.74029 20.057 5.74029 19.8873C5.74029 19.5835 5.3919 19.4451 5.18198 19.6595Z" fill="#226A47"/>
<path d="M12.359 19.6505C12.158 19.8649 12.3099 20.2178 12.6047 20.2178C12.7476 20.2178 12.9308 20.0302 12.9308 19.8828C12.9308 19.7265 12.7432 19.5478 12.5824 19.5478C12.5064 19.5478 12.4171 19.588 12.359 19.6505Z" fill="#226A47"/>
</svg>
