<svg width="84" height="26" viewBox="0 0 84 26" fill="none" xmlns="http://www.w3.org/2000/svg">
<path fill-rule="evenodd" clip-rule="evenodd" d="M83.9252 13L83.9245 14.3L83.9239 14.8384L83.9219 15.2515L83.92 15.5997L83.9167 15.9063L83.9135 16.1834L83.9089 16.438L83.9037 16.675L83.8985 16.8973L83.892 17.1075L83.8849 17.3073L83.8771 17.4979L83.8686 17.6806L83.8602 17.8562L83.8504 18.0254L83.84 18.1889L83.829 18.3472L83.8173 18.5006L83.8049 18.6495L83.7919 18.7944L83.7783 18.9355L83.764 19.073L83.749 19.2071L83.7328 19.3381L83.7165 19.4661L83.6996 19.5914L83.6821 19.714L83.6632 19.834L83.6444 19.9517L83.6249 20.0671L83.6041 20.1802L83.5833 20.2912L83.5612 20.4002L83.5384 20.5073L83.5157 20.6125L83.4916 20.7158L83.4669 20.8175L83.4416 20.9174L83.4156 21.0157L83.3889 21.1125L83.3616 21.2076L83.3337 21.3013L83.3051 21.3935L83.2758 21.4843L83.2453 21.5738L83.2147 21.6618L83.1829 21.7486L83.151 21.8341L83.1179 21.9183L83.0841 22.0013L83.0496 22.083L83.0145 22.1636L82.9788 22.2431L82.9424 22.3215L82.9047 22.3986L82.867 22.4747L82.828 22.5497L82.7883 22.6237L82.748 22.6966L82.7071 22.7685L82.6655 22.8394L82.6232 22.9093L82.5797 22.9783L82.5361 23.0462L82.4913 23.1132L82.4458 23.1793L82.3996 23.2443L82.3522 23.3085L82.3047 23.3719L82.256 23.4342L82.2066 23.4957L82.1565 23.5563L82.1052 23.6161L82.0532 23.6749L82.0012 23.733L81.9472 23.7902L81.8933 23.8465L81.838 23.9021L81.7821 23.9567L81.7256 24.0106L81.6677 24.0636L81.6092 24.1159L81.5501 24.1674L81.4896 24.218L81.4285 24.2679L81.3668 24.317L81.3037 24.3654L81.24 24.4129L81.1757 24.4597L81.11 24.5058L81.0431 24.551L80.9755 24.5955L80.9072 24.6393L80.8377 24.6824L80.7675 24.7246L80.696 24.7662L80.6232 24.807L80.5497 24.8471L80.475 24.8865L80.3996 24.9252L80.3229 24.9631L80.2449 25.0002L80.1662 25.0368L80.0863 25.0725L80.005 25.1076L79.9225 25.142L79.8386 25.1757L79.7541 25.2086L79.6677 25.2409L79.5806 25.2725L79.4915 25.3034L79.4018 25.3336L79.3102 25.3631L79.2172 25.3919L79.123 25.42L79.0274 25.4475L78.9299 25.4743L78.8311 25.5003L78.731 25.5258L78.6283 25.5505L78.525 25.5746L78.419 25.5979L78.3118 25.6207L78.2019 25.6427L78.0908 25.6641L77.977 25.6847L77.8613 25.7048L77.7437 25.7242L77.6234 25.7429L77.5006 25.7609L77.3758 25.7783L77.2477 25.7951L77.1164 25.8111L76.9825 25.8265L76.846 25.8412L76.7056 25.8553L76.5613 25.8688L76.4131 25.8815L76.261 25.8936L76.1044 25.9051L75.9432 25.9159L75.7761 25.926L75.6032 25.9355L75.4238 25.9444L75.2379 25.9525L75.0429 25.9601L74.8395 25.967L74.6256 25.9732L74.3988 25.9788L74.1576 25.9837L73.8983 25.988L73.6168 25.9916L73.3061 25.9946L72.9532 25.9969L72.5372 25.9986L72.0009 25.9996L64.4574 26L62.8053 25.9997L62.2379 25.9988L61.808 25.9972L61.4475 25.995L61.1308 25.9921L60.8451 25.9886L60.5827 25.9845L60.3389 25.9796L60.1102 25.9741L59.8942 25.968L59.6889 25.9612L59.4931 25.9538L59.3055 25.9457L59.1252 25.9369L58.9515 25.9276L58.7836 25.9175L58.6213 25.9069L58.4639 25.8955L58.311 25.8835L58.1624 25.8708L58.0178 25.8575L57.8767 25.8435L57.7392 25.8289L57.6048 25.8136L57.4735 25.7977L57.3451 25.781L57.2194 25.7637L57.0963 25.7458L56.9757 25.7272L56.8574 25.708L56.7415 25.688L56.6276 25.6674L56.5159 25.6461L56.4061 25.6242L56.2983 25.6016L56.1924 25.5783L56.0882 25.5544L55.9858 25.5297L55.885 25.5044L55.7859 25.4784L55.6883 25.4518L55.5923 25.4244L55.4978 25.3964L55.4048 25.3677L55.3131 25.3383L55.2228 25.3082L55.1339 25.2775L55.0463 25.246L54.96 25.2138L54.8749 25.181L54.7912 25.1474L54.7085 25.1131L54.6272 25.0782L54.5469 25.0425L54.4678 25.0061L54.3898 24.969L54.3129 24.9312L54.2371 24.8927L54.1623 24.8534L54.0887 24.8134L54.016 24.7727L53.9444 24.7313L53.8738 24.6891L53.8042 24.6462L53.7355 24.6026L53.6678 24.5582L53.6011 24.513L53.5354 24.4671L53.4705 24.4204L53.4065 24.373L53.3435 24.3248L53.2814 24.2758L53.2202 24.226L53.1598 24.1755L53.1004 24.1242L53.0418 24.072L52.984 24.0191L52.9271 23.9654L52.8711 23.9108L52.8159 23.8554L52.7615 23.7992L52.708 23.7422L52.6552 23.6842L52.6033 23.6255L52.5522 23.5659L52.5019 23.5054L52.4523 23.4441L52.4036 23.3818L52.3556 23.3187L52.3084 23.2547L52.262 23.1897L52.2164 23.1237L52.1715 23.0569L52.1274 22.9891L52.084 22.9204L52.0415 22.8506L51.9996 22.7799L51.9585 22.7081L51.9182 22.6354L51.8786 22.5616L51.8396 22.4867L51.8015 22.4108L51.7641 22.3338L51.7274 22.2557L51.6914 22.1764L51.6562 22.096L51.6217 22.0144L51.5879 21.9316L51.5548 21.8475L51.5224 21.7623L51.4907 21.6757L51.4598 21.5879L51.4295 21.4987L51.4 21.4081L51.3711 21.3161L51.343 21.2226L51.3155 21.1277L51.2888 21.0312L51.2627 20.9332L51.2373 20.8335L51.2126 20.7321L51.1886 20.629L51.1653 20.5241L51.1427 20.4174L51.1208 20.3087L51.0995 20.198L51.0789 20.0852L51.059 19.9702L51.0399 19.8529L51.0213 19.7333L51.0035 19.6111L50.9863 19.4863L50.9698 19.3587L50.954 19.2282L50.9389 19.0945L50.9244 18.9576L50.9106 18.8171L50.8975 18.6729L50.885 18.5245L50.8733 18.3719L50.8622 18.2144L50.8517 18.0519L50.8419 17.8836L50.8328 17.7091L50.8244 17.5275L50.8167 17.3382L50.8095 17.14L50.8031 16.9316L50.7974 16.7113L50.7922 16.4769L50.7878 16.2253L50.784 15.9522L50.7809 15.6509L50.7785 15.3105L50.7768 14.9102L50.7757 14.3996L50.7752 13.5188L50.7755 11.808L50.7763 11.2363L50.7779 10.809L50.7801 10.4526L50.783 10.1403L50.7865 9.85907L50.7907 9.60121L50.7957 9.36169L50.8012 9.13718L50.8074 8.92521L50.8143 8.72391L50.8219 8.53183L50.8301 8.34795L50.839 8.17128L50.8485 8.00111L50.8587 7.83672L50.8696 7.67773L50.8812 7.52355L50.8934 7.37392L50.9064 7.22839L50.9199 7.08675L50.9342 6.94869L50.9491 6.81401L50.9647 6.68252L50.981 6.55402L50.9979 6.42835L51.0156 6.30535L51.0339 6.1849L51.0529 6.06688L51.0726 5.95118L51.0929 5.83769L51.1139 5.72632L51.1356 5.61699L51.158 5.50963L51.1811 5.40415L51.2049 5.30048L51.2293 5.19858L51.2545 5.09837L51.2804 4.99981L51.3069 4.90285L51.3341 4.80743L51.3621 4.71351L51.3907 4.62106L51.4201 4.53003L51.4501 4.44038L51.4808 4.35209L51.5122 4.26513L51.5444 4.17945L51.5772 4.09503L51.6108 4.01185L51.6452 3.92987L51.6801 3.84908L51.7159 3.76945L51.7523 3.69095L51.7895 3.61358L51.8274 3.53731L51.8661 3.46211L51.9055 3.38797L51.9456 3.31488L51.9865 3.24282L52.0281 3.17177L52.0704 3.10172L52.1135 3.03265L52.1574 2.96455L52.202 2.89741L52.2474 2.83121L52.2935 2.76594L52.3405 2.70161L52.3882 2.63817L52.4367 2.57564L52.486 2.51401L52.536 2.45326L52.5869 2.39337L52.6385 2.33435L52.6911 2.27618L52.7444 2.21887L52.7985 2.16239L52.8534 2.10674L52.9092 2.05192L52.9658 1.99792L53.0233 1.94472L53.0817 1.89233L53.1408 1.84075L53.2009 1.78995L53.2618 1.73994L53.3236 1.69071L53.3864 1.64226L53.45 1.59458L53.5146 1.54767L53.5801 1.50151L53.6465 1.45612L53.7138 1.41147L53.7822 1.36759L53.8515 1.32443L53.9218 1.28203L53.9931 1.24036L54.0654 1.19942L54.1388 1.15921L54.2132 1.11972L54.2886 1.08096L54.3652 1.04293L54.4428 1.0056L54.5215 0.968987L54.6015 0.933088L54.6825 0.897897L54.7647 0.863414L54.8482 0.829627L54.9328 0.796549L55.0187 0.764159L55.1059 0.732472L55.1943 0.70148L55.2842 0.671177L55.3754 0.641558L55.468 0.612631L55.5621 0.584388L55.6576 0.55683L55.7546 0.529952L55.8533 0.503755L55.9535 0.478236L56.0554 0.453394L56.159 0.429227L56.2644 0.405733L56.3716 0.382912L56.4807 0.360762L56.5918 0.339282L56.705 0.318469L56.8203 0.298325L56.9378 0.278845L57.0576 0.260031L57.1799 0.241881L57.3048 0.224394L57.4323 0.207568L57.5626 0.191404L57.696 0.175898L57.8326 0.161053L57.9725 0.146866L58.1159 0.133336L58.2633 0.120463L58.4147 0.108246L58.5706 0.0966855L58.7314 0.0857799L58.8974 0.075528L59.0691 0.0659301L59.2473 0.0569856L59.4325 0.048694L59.6256 0.0410548L59.8277 0.0340678L60.0401 0.0277324L60.2645 0.0220485L60.5032 0.0170157L60.7593 0.0126338L61.0369 0.00890246L61.3426 0.00582158L61.6873 0.003391L62.0909 0.0016106L62.6008 0.000480288L63.4315 0L71.7793 0.000169717L72.3844 0.000989449L72.8297 0.00245923L73.1989 0.00457914L73.5213 0.00734929L73.8118 0.0107698L74.077 0.0148409L74.324 0.0195627L74.5548 0.0249355L74.7725 0.0309595L74.9792 0.0376351L75.1768 0.0449626L75.3653 0.0529424L75.5467 0.061575L75.7215 0.0708604L75.8905 0.0807995L76.0537 0.0913932L76.2116 0.102641L76.365 0.114544L76.5145 0.127104L76.6601 0.140319L76.8012 0.154192L76.9396 0.168723L77.0742 0.183913L77.2061 0.199762L77.3348 0.216272L77.4609 0.233443L77.5844 0.251276L77.7053 0.269773L77.8243 0.288935L77.9406 0.308761L78.055 0.329254L78.1668 0.350416L78.2767 0.372245L78.3852 0.394746L78.4912 0.417917L78.5958 0.441763L78.6985 0.466282L78.7993 0.491477L78.8987 0.517351L78.9969 0.543902L79.0931 0.571135L79.1873 0.599052L79.2809 0.627652L79.3726 0.656935L79.4629 0.686913L79.5526 0.71758L79.6404 0.748936L79.7268 0.780988L79.812 0.813735L79.8958 0.847184L79.979 0.881335L80.0603 0.916188L80.1409 0.951749L80.2202 0.988019L80.2982 1.025L80.3755 1.0627L80.4516 1.10111L80.5263 1.14025L80.5998 1.18011L80.6726 1.22071L80.7447 1.26203L80.8156 1.30408L80.8851 1.34688L80.954 1.39041L81.0216 1.4347L81.0886 1.47973L81.1549 1.52552L81.2199 1.57207L81.2836 1.61938L81.3466 1.66746L81.409 1.71632L81.4708 1.76596L81.5312 1.81637L81.5904 1.86759L81.6495 1.91959L81.7074 1.9724L81.7639 2.02602L81.8205 2.08044L81.8757 2.1357L81.9303 2.19177L81.9836 2.24869L82.0369 2.30645L82.0889 2.36506L82.1403 2.42453L82.1903 2.48487L82.2404 2.54609L82.2891 2.60819L82.3372 2.67119L82.3847 2.73509L82.4308 2.79991L82.477 2.86566L82.5218 2.93234L82.566 2.99999L82.6096 3.06859L82.6525 3.13817L82.6941 3.20874L82.7357 3.28032L82.776 3.35292L82.8156 3.42655L82.8546 3.50124L82.893 3.577L82.93 3.65385L82.9671 3.73181L83.0035 3.81089L83.0386 3.89112L83.073 3.97253L83.1075 4.05514L83.1406 4.13896L83.1731 4.22403L83.2043 4.31038L83.2355 4.39804L83.2661 4.48703L83.296 4.57739L83.3246 4.66916L83.3532 4.76237L83.3805 4.85706L83.4071 4.95329L83.4338 5.05108L83.4591 5.15049L83.4838 5.25158L83.5079 5.35439L83.5313 5.459L83.554 5.56546L83.5761 5.67384L83.5976 5.78422L83.6184 5.89668L83.6379 6.01132L83.6574 6.12822L83.6762 6.24749L83.6938 6.36925L83.7113 6.49363L83.7282 6.62077L83.7438 6.75083L83.7594 6.88396L83.7737 7.02032L83.7874 7.16027L83.801 7.30385L83.8134 7.45153L83.8251 7.6035L83.8368 7.76015L83.8472 7.92187L83.8569 8.08918L83.866 8.26273L83.8745 8.44304L83.8823 8.63109L83.8895 8.82778L83.8966 9.03442L83.9024 9.25268L83.9076 9.48467L83.9122 9.73329L83.9161 10.0027L83.9187 10.2989L83.9213 10.632L83.9232 11.0206L83.9245 11.5073L83.9252 12.2663V13ZM64.4252 20.15H69.6252C74.5515 20.15 77.4252 17.0857 77.4252 12.9591C77.4252 8.7917 74.5905 5.85 69.7032 5.85H64.4252V20.15ZM61.8252 20.15H57.9252V5.85H61.8252V20.15ZM14.3456 13C14.3456 16.944 11.4875 20.475 7.19016 20.475C2.8928 20.475 0.0751953 16.9853 0.0751953 13C0.0751953 9.05599 2.93334 5.525 7.23072 5.525C11.5281 5.525 14.3456 9.01472 14.3456 13ZM1.1698 13C1.1698 16.5723 3.72389 19.5045 7.23072 19.5045C10.7375 19.5045 13.251 16.6136 13.251 13C13.251 9.42766 10.697 6.49551 7.19016 6.49551C3.68335 6.49551 1.1698 9.38639 1.1698 13ZM19.2806 20.15H18.2752V5.85H19.2605L28.9725 18.291V5.85H29.9779V20.15H29.1936L19.2806 7.44341V20.15ZM44.2752 20.15H34.1611V5.85H44.1746V6.83059H35.2067V12.4484H43.2698V13.429H35.2067V19.1694H44.2752V20.15ZM70.4039 17.6439C70.7874 17.6329 71.2242 17.5828 71.6688 17.4703C71.7221 17.457 71.776 17.4428 71.8319 17.4274C72.1751 17.3322 72.5469 17.1921 72.9291 16.9575C73.0227 16.9018 73.1137 16.8419 73.2034 16.7777L73.2002 16.7763C73.4725 16.5783 73.7481 16.3278 74.0218 16.0076C74.1336 15.8762 74.3266 15.5986 74.4358 15.3832C74.183 15.115 73.7982 14.8946 73.4374 14.7007L73.3991 14.6799C73.232 14.5898 72.9291 14.4267 72.647 14.3162C72.6171 14.3045 72.5853 14.293 72.5534 14.2811C72.3097 14.1913 72.0243 14.0861 71.9957 13.7964C71.9736 13.5729 72.0867 13.4333 72.2219 13.2669C72.2544 13.2269 72.2882 13.1854 72.3214 13.1408C72.7153 12.6148 73.0858 11.8973 73.0188 10.9258C72.9532 9.9723 72.3428 9.23182 71.3217 9.11755C71.2034 9.10435 71.0883 9.09863 70.9765 9.10026C70.8647 9.09863 70.749 9.10435 70.6307 9.11755C69.6096 9.23182 68.9992 9.9723 68.9336 10.9258C68.8666 11.8973 69.2371 12.6148 69.631 13.1408C69.6648 13.1854 69.698 13.2269 69.7305 13.2669C69.8657 13.4333 69.9788 13.5729 69.9567 13.7964C69.9281 14.0861 69.6427 14.1913 69.399 14.2811V14.2812C69.3671 14.293 69.3359 14.3045 69.306 14.3162C69.0233 14.4267 68.721 14.5898 68.5533 14.6799L68.515 14.7007C67.9794 14.9884 67.3918 15.3346 67.2598 15.8081C67.098 16.3874 67.0109 17.1146 67.0271 17.6439H67.9417C68.1965 17.6439 68.4584 17.6465 68.7256 17.6492H68.7262C69.2748 17.6546 69.8429 17.6601 70.4039 17.6439Z" fill="#6D51CE"/>
</svg>
