<svg width="24" height="28" viewBox="0 0 24 28" fill="none" xmlns="http://www.w3.org/2000/svg">
<path d="M22.0588 28H1.94118C0.869095 28 0 27.1046 0 26V2C0 0.895431 0.869095 0 1.94118 0H15L24 9.27273V26C24 27.1046 23.1309 28 22.0588 28Z" fill="#FF7981"/>
<path d="M5.49043 19.7628C5.40214 19.7628 5.32779 19.7317 5.26738 19.6694C5.20696 19.6072 5.17676 19.5306 5.17676 19.4396V15.0444C5.17676 14.9534 5.20696 14.8768 5.26738 14.8145C5.32779 14.7475 5.40214 14.714 5.49043 14.714H7.07973C7.5212 14.714 7.88135 14.7906 8.16017 14.9438C8.43899 15.097 8.63882 15.2933 8.75964 15.5327C8.88046 15.7721 8.94088 16.0307 8.94088 16.3084C8.94088 16.586 8.88046 16.8446 8.75964 17.084C8.63882 17.3234 8.43899 17.5197 8.16017 17.6729C7.88135 17.8261 7.5212 17.9027 7.07973 17.9027H5.81108V19.4396C5.81108 19.5306 5.77855 19.6072 5.71349 19.6694C5.65308 19.7317 5.57873 19.7628 5.49043 19.7628ZM7.01699 17.2851C7.49099 17.2851 7.82326 17.1917 8.01379 17.005C8.20896 16.8183 8.30655 16.586 8.30655 16.3084C8.30655 16.0307 8.20896 15.7984 8.01379 15.6117C7.82326 15.425 7.49099 15.3316 7.01699 15.3316H5.81108V17.2851H7.01699Z" fill="white"/>
<path d="M10.6617 19.7269C10.5734 19.7269 10.4991 19.6958 10.4387 19.6335C10.3783 19.5713 10.3481 19.4947 10.3481 19.4037V15.0444C10.3481 14.9534 10.3783 14.8768 10.4387 14.8145C10.4991 14.7475 10.5734 14.714 10.6617 14.714H12.0628C12.5926 14.714 13.041 14.8361 13.4082 15.0803C13.7799 15.3197 14.0587 15.6309 14.2446 16.0139C14.4305 16.3969 14.5234 16.7991 14.5234 17.2204C14.5234 17.6418 14.4305 18.044 14.2446 18.427C14.0587 18.81 13.7799 19.1236 13.4082 19.3678C13.041 19.6072 12.5926 19.7269 12.0628 19.7269H10.6617ZM11.9862 19.1164C12.3672 19.1164 12.7018 19.0374 12.9899 18.8794C13.278 18.7167 13.5011 18.494 13.6591 18.2115C13.8171 17.9243 13.8961 17.5939 13.8961 17.2204C13.8961 16.847 13.8171 16.519 13.6591 16.2365C13.5011 15.9493 13.278 15.7266 12.9899 15.5686C12.7018 15.4058 12.3672 15.3244 11.9862 15.3244H10.9824V19.1164H11.9862Z" fill="white"/>
<path d="M16.3844 19.7628C16.2961 19.7628 16.2218 19.7317 16.1614 19.6694C16.101 19.6072 16.0708 19.5306 16.0708 19.4396V15.0444C16.0708 14.9534 16.101 14.8768 16.1614 14.8145C16.2218 14.7475 16.2961 14.714 16.3844 14.714H19.096C19.1796 14.714 19.2493 14.7451 19.3051 14.8074C19.3655 14.8648 19.3957 14.9366 19.3957 15.0228C19.3957 15.109 19.3655 15.1808 19.3051 15.2383C19.2493 15.2957 19.1796 15.3244 19.096 15.3244H16.7051V16.9116H18.852C18.9357 16.9116 19.0054 16.9427 19.0611 17.005C19.1215 17.0624 19.1518 17.1343 19.1518 17.2204C19.1518 17.3066 19.1215 17.3784 19.0611 17.4359C19.0054 17.4934 18.9357 17.5221 18.852 17.5221H16.7051V19.4396C16.7051 19.5306 16.6725 19.6072 16.6075 19.6694C16.5471 19.7317 16.4727 19.7628 16.3844 19.7628Z" fill="white"/>
<path fill-rule="evenodd" clip-rule="evenodd" d="M7.89264 16.8725L7.89342 16.8717C8.05215 16.7199 8.12979 16.5362 8.12979 16.3083C8.12979 16.0805 8.05215 15.8968 7.89342 15.7449L7.89264 15.7442L7.89187 15.7434C7.75205 15.6064 7.47835 15.5134 7.01671 15.5134H5.98726V17.1033H7.01671C7.47835 17.1033 7.75205 17.0103 7.89187 16.8732L7.89264 16.8725ZM5.81079 17.2851V15.3316H7.01671C7.49071 15.3316 7.82297 15.425 8.0135 15.6117C8.20868 15.7984 8.30626 16.0306 8.30626 16.3083C8.30626 16.586 8.20868 16.8183 8.0135 17.005C7.82297 17.1917 7.49071 17.2851 7.01671 17.2851H5.81079ZM13.5027 19.5211L13.5022 19.5214C13.1013 19.7829 12.6184 19.9087 12.0625 19.9087H10.6615C10.5281 19.9087 10.4083 19.8597 10.3136 19.7621C10.2189 19.6645 10.1713 19.5411 10.1713 19.4037V15.0443C10.1713 14.9081 10.2181 14.7856 10.3113 14.6884C10.4046 14.5861 10.5249 14.5322 10.6615 14.5322H12.0625C12.6185 14.5322 13.1015 14.6604 13.5025 14.9268C13.8997 15.1828 14.2011 15.5183 14.4022 15.9326C14.6001 16.3404 14.6996 16.7704 14.6996 17.2204C14.6996 17.6705 14.6001 18.1004 14.4022 18.5083C14.2011 18.9226 13.8997 19.2604 13.5027 19.5211ZM13.4079 15.0803C13.0407 14.8361 12.5923 14.714 12.0625 14.714H10.6615C10.5732 14.714 10.4988 14.7475 10.4384 14.8145C10.378 14.8768 10.3478 14.9534 10.3478 15.0443V19.4037C10.3478 19.4947 10.378 19.5713 10.4384 19.6335C10.4988 19.6958 10.5732 19.7269 10.6615 19.7269H12.0625C12.5923 19.7269 13.0407 19.6072 13.4079 19.3678C13.7796 19.1236 14.0585 18.81 14.2443 18.427C14.4302 18.044 14.5232 17.6418 14.5232 17.2204C14.5232 16.7991 14.4302 16.3969 14.2443 16.0139C14.0585 15.6309 13.7796 15.3197 13.4079 15.0803ZM13.5056 16.3267L13.5053 16.3262C13.3641 16.0695 13.1658 15.8712 12.9067 15.7291L12.9057 15.7286L12.9048 15.728C12.6466 15.5821 12.342 15.5063 11.9859 15.5063H11.1586V18.9346H11.9859C12.3424 18.9346 12.6473 18.8609 12.9057 18.7195C13.166 18.5722 13.3646 18.3732 13.5056 18.1213C13.6465 17.8649 13.7193 17.5664 13.7193 17.2204C13.7193 16.8741 13.6463 16.5784 13.5059 16.3273L13.5056 16.3267ZM13.6588 18.2115C13.5008 18.494 13.2777 18.7166 12.9896 18.8794C12.7015 19.0374 12.3669 19.1164 11.9859 19.1164H10.9821V15.3244H11.9859C12.3669 15.3244 12.7015 15.4058 12.9896 15.5686C13.2777 15.7266 13.5008 15.9493 13.6588 16.2365C13.8168 16.519 13.8958 16.847 13.8958 17.2204C13.8958 17.5939 13.8168 17.9243 13.6588 18.2115ZM5.49015 19.9446C5.3568 19.9446 5.23703 19.8956 5.1423 19.798C5.04758 19.7004 5 19.577 5 19.4396V15.0443C5 14.9081 5.04681 14.7856 5.14 14.6884C5.23328 14.5861 5.35356 14.5322 5.49015 14.5322H7.07944C7.53901 14.5322 7.93042 14.6117 8.24293 14.7834C8.5466 14.9502 8.77551 15.1706 8.91592 15.4488C9.05021 15.7149 9.11706 16.0023 9.11706 16.3083C9.11706 16.6144 9.05021 16.9018 8.91592 17.1679C8.77551 17.4461 8.5466 17.6665 8.24293 17.8333C7.93042 18.005 7.53901 18.0845 7.07944 18.0845H5.98726V19.4396C5.98726 19.5803 5.93491 19.7043 5.83567 19.8004C5.74131 19.8964 5.62241 19.9446 5.49015 19.9446ZM5.71321 19.6694C5.65279 19.7317 5.57844 19.7628 5.49015 19.7628C5.40185 19.7628 5.3275 19.7317 5.26709 19.6694C5.20668 19.6072 5.17647 19.5306 5.17647 19.4396V15.0443C5.17647 14.9534 5.20668 14.8768 5.26709 14.8145C5.3275 14.7475 5.40185 14.714 5.49015 14.714H7.07944C7.52091 14.714 7.88106 14.7906 8.15988 14.9438C8.43871 15.097 8.63853 15.2933 8.75935 15.5327C8.88018 15.7721 8.94059 16.0306 8.94059 16.3083C8.94059 16.586 8.88018 16.8446 8.75935 17.084C8.63853 17.3234 8.43871 17.5197 8.15988 17.6729C7.88106 17.8261 7.52091 17.9027 7.07944 17.9027H5.81079V19.4396C5.81079 19.5306 5.77826 19.6072 5.71321 19.6694ZM16.3841 19.9446C16.2508 19.9446 16.131 19.8956 16.0363 19.798C15.9416 19.7004 15.894 19.577 15.894 19.4396V15.0443C15.894 14.9081 15.9408 14.7856 16.034 14.6884C16.1273 14.5861 16.2476 14.5322 16.3841 14.5322H19.0957C19.2253 14.5322 19.3405 14.5819 19.4297 14.6787C19.5236 14.7706 19.5719 14.8893 19.5719 15.0228C19.5719 15.1575 19.5227 15.2772 19.4271 15.3694C19.3365 15.4614 19.2218 15.5063 19.0957 15.5063H16.8813V16.7298H18.8517C18.9813 16.7298 19.0965 16.7796 19.1857 16.8764C19.2796 16.9682 19.3279 17.0869 19.3279 17.2204C19.3279 17.3552 19.2787 17.4748 19.1831 17.567C19.0925 17.6591 18.9779 17.7039 18.8517 17.7039H16.8813V19.4396C16.8813 19.5803 16.8289 19.7043 16.7297 19.8004C16.6353 19.8964 16.5164 19.9446 16.3841 19.9446ZM16.6072 19.6694C16.6723 19.6072 16.7048 19.5306 16.7048 19.4396V17.5221H18.8517C18.9354 17.5221 19.0051 17.4933 19.0608 17.4359C19.1213 17.3784 19.1515 17.3066 19.1515 17.2204C19.1515 17.1343 19.1213 17.0624 19.0608 17.005C19.0051 16.9427 18.9354 16.9116 18.8517 16.9116H16.7048V15.3244H19.0957C19.1793 15.3244 19.2491 15.2957 19.3048 15.2383C19.3652 15.1808 19.3954 15.109 19.3954 15.0228C19.3954 14.9366 19.3652 14.8648 19.3048 14.8073C19.2491 14.7451 19.1793 14.714 19.0957 14.714H16.3841C16.2958 14.714 16.2215 14.7475 16.1611 14.8145C16.1007 14.8768 16.0705 14.9534 16.0705 15.0443V19.4396C16.0705 19.5306 16.1007 19.6072 16.1611 19.6694C16.2215 19.7317 16.2958 19.7628 16.3841 19.7628C16.4724 19.7628 16.5468 19.7317 16.6072 19.6694Z" fill="white"/>
<g opacity="0.7" filter="url(#filter0_d_4138_101)">
<path d="M24 9.27273H16.9412C15.8691 9.27273 15 8.3773 15 7.27273V0L24 9.27273Z" fill="#D03954"/>
</g>
<defs>
<filter id="filter0_d_4138_101" x="-8" y="-24" width="59" height="59.2727" filterUnits="userSpaceOnUse" color-interpolation-filters="sRGB">
<feFlood flood-opacity="0" result="BackgroundImageFix"/>
<feColorMatrix in="SourceAlpha" type="matrix" values="0 0 0 0 0 0 0 0 0 0 0 0 0 0 0 0 0 0 127 0" result="hardAlpha"/>
<feOffset dx="2" dy="1"/>
<feGaussianBlur stdDeviation="12.5"/>
<feColorMatrix type="matrix" values="0 0 0 0 0 0 0 0 0 0 0 0 0 0 0 0 0 0 0.33 0"/>
<feBlend mode="normal" in2="BackgroundImageFix" result="effect1_dropShadow_4138_101"/>
<feBlend mode="normal" in="SourceGraphic" in2="effect1_dropShadow_4138_101" result="shape"/>
</filter>
</defs>
</svg>
