<svg width="34" height="34" viewBox="0 0 34 34" fill="none" xmlns="http://www.w3.org/2000/svg">
<g clip-path="url(#clip0_100_3053)">
<path d="M-1.66699 22.3333V28.5809C-1.66699 31.1713 -1.66699 30.7777 -1.66699 32.9999H43.6663C43.6663 30.7777 43.6663 31.1713 43.6663 28.5809V22.3333H-1.66699Z" fill="#1EB53A"/>
<path d="M43.6663 1H-1.66699C-1.66699 3.22221 -1.66699 2.82857 -1.66699 5.41905V11.6667H43.6663V5.41905C43.6663 2.82857 43.6663 2.23809 43.6663 1Z" fill="#0099B5"/>
<path d="M43.6663 11.6667H-1.66699V22.3334H43.6663V11.6667Z" fill="white"/>
<path d="M43.6663 13H-1.66699C-1.66699 12.7222 -1.66699 12.7714 -1.66699 12.4476V11.6667H43.6663V12.4476C43.6663 12.7714 43.6663 12.8452 43.6663 13Z" fill="#CE1126"/>
<path d="M43.6663 23.6667H-1.66699C-1.66699 23.389 -1.66699 23.4382 -1.66699 23.1144V22.3334H43.6663V23.1144C43.6663 23.4382 43.6663 23.512 43.6663 23.6667Z" fill="#CE1126"/>
<path d="M9.58803 5.00428C9.48425 5.00428 9.38047 4.95239 9.27668 4.95239C8.18697 4.95239 7.25293 5.83455 7.25293 6.97616C7.25293 8.11777 8.13508 8.99992 9.27668 8.99992C9.38047 8.99992 9.48425 8.99992 9.58803 8.94803C8.65399 8.79235 7.92751 7.96209 7.92751 6.97616C7.92751 5.93833 8.65399 5.15996 9.58803 5.00428Z" fill="white"/>
<path d="M10.5735 8.42889L10.4697 8.16943L10.3659 8.42889H10.1064L10.314 8.63645L10.2621 8.89591L10.4697 8.74024L10.7291 8.89591L10.6254 8.63645L10.8848 8.42889H10.5735Z" fill="white"/>
<path d="M12.1819 8.42889L12.0781 8.16943L11.9743 8.42889H11.7148L11.9224 8.63645L11.8705 8.89591L12.0781 8.74024L12.3375 8.89591L12.2338 8.63645L12.4413 8.42889H12.1819Z" fill="white"/>
<path d="M13.7893 8.42938L13.6855 8.16992L13.5817 8.42938H13.3223L13.5298 8.63694L13.426 8.8964L13.6855 8.74073L13.945 8.8964L13.8412 8.63694L14.0487 8.42938H13.7893Z" fill="white"/>
<path d="M15.4026 8.42938L15.2988 8.16992L15.195 8.42938H14.9355L15.1431 8.63694L15.0393 8.8964L15.2988 8.74073L15.5582 8.8964L15.4545 8.63694L15.662 8.42938H15.4026Z" fill="white"/>
<path d="M17.009 8.42889L16.9052 8.16943L16.8014 8.42889H16.542L16.7496 8.63645L16.6458 8.89591L16.9052 8.74024L17.1128 8.89591L17.0609 8.63645L17.2685 8.42889H17.009Z" fill="white"/>
<path d="M12.0781 6.56128L12.0262 6.82073H11.7148L11.9743 7.0283L11.8705 7.28776L12.0781 7.13208L12.3375 7.28776L12.2338 7.0283L12.4932 6.82073H12.1819L12.0781 6.56128Z" fill="white"/>
<path d="M13.6855 6.56128L13.6336 6.82073H13.3223L13.5817 7.0283L13.4779 7.28776L13.6855 7.13208L13.945 7.28776L13.8412 7.0283L14.1006 6.82073H13.7893L13.6855 6.56128Z" fill="white"/>
<path d="M15.2988 6.56128L15.2469 6.82073H14.9355L15.195 7.0283L15.0912 7.28776L15.2988 7.13208L15.5582 7.28776L15.4545 7.0283L15.7139 6.82073H15.4026L15.2988 6.56128Z" fill="white"/>
<path d="M17.009 6.82073L16.9052 6.56128L16.8533 6.82073H16.542L16.7496 7.0283L16.6977 7.28776L16.9052 7.13208L17.1647 7.28776L17.0609 7.0283L17.3204 6.82073H17.009Z" fill="white"/>
<path d="M13.5339 5.41941L13.4301 5.67887L13.6895 5.5232L13.8971 5.67887L13.8452 5.41941L14.0528 5.21185H13.7933L13.6895 4.95239L13.5858 5.21185H13.2744L13.5339 5.41941Z" fill="white"/>
<path d="M15.1413 5.41941L15.0375 5.67887L15.297 5.5232L15.5045 5.67887L15.4526 5.41941L15.6602 5.21185H15.4007L15.297 4.95239L15.1932 5.21185H14.8818L15.1413 5.41941Z" fill="white"/>
<path d="M16.7497 5.41941L16.6459 5.67887L16.9054 5.5232L17.1129 5.67887L17.061 5.41941L17.2686 5.21185H16.9573L16.9054 4.95239L16.8016 5.21185H16.4902L16.7497 5.41941Z" fill="white"/>
</g>
<rect x="1" y="1" width="32" height="32" rx="16" stroke="#E9E9E9"/>
<defs>
<clipPath id="clip0_100_3053">
<rect x="1" y="1" width="32" height="32" rx="16" fill="white"/>
</clipPath>
</defs>
</svg>
