<svg width="24" height="24" viewBox="0 0 24 24" fill="none" xmlns="http://www.w3.org/2000/svg">
<path fill-rule="evenodd" clip-rule="evenodd" d="M18.2062 0.159375C18.0914 0.274219 18.0469 0.360656 18.0469 0.46875C18.0469 0.576844 18.0914 0.663281 18.2062 0.778125L18.3656 0.9375H19.3193H20.2731L17.9538 3.25716L15.6345 5.57686L14.6935 4.63997C13.754 3.70448 13.7523 3.70312 13.5448 3.70312H13.337L9.01753 8.02734C6.02086 11.0273 4.69256 12.3875 4.68014 12.4688C4.63069 12.7933 4.81964 13.0312 5.12686 13.0312H5.31905L9.43237 8.91891L13.5457 4.80661L14.472 5.72798C15.3981 6.64908 15.5306 6.74705 15.7583 6.67913C15.8182 6.66127 17.001 5.51531 18.3867 4.1325L20.9062 1.61836L20.9089 2.39123C20.912 3.29362 20.9496 3.45248 21.1903 3.58148C21.3892 3.68803 21.5638 3.65925 21.7306 3.49242L21.8438 3.37927V1.85063C21.8438 0.891797 21.8258 0.288328 21.7955 0.231797C21.6785 0.0131719 21.5719 0 19.9195 0H18.3656L18.2062 0.159375ZM17.8125 6.98808C17.5293 7.11609 17.3087 7.33364 17.1744 7.61719L17.0634 7.85156L17.063 15.457L17.0625 23.0625H15.75H14.4375L14.4372 18.9023C14.4371 16.2123 14.42 14.6812 14.389 14.5696C14.3082 14.2784 14.0595 13.9681 13.78 13.8096L13.5234 13.6641H12.0234C10.5739 13.6641 10.5171 13.6675 10.3335 13.7658C10.0765 13.9033 9.85247 14.1362 9.73237 14.3906C9.63347 14.6002 9.63272 14.63 9.61987 18.832L9.60699 23.0625H8.322H7.03702L7.02239 20.8242C7.00791 18.603 7.00697 18.5842 6.90005 18.3516C6.75211 18.0299 6.49805 17.7833 6.19936 17.6716C5.97113 17.5862 5.83341 17.5781 4.60036 17.5781C3.11311 17.5781 2.98083 17.5976 2.65748 17.8642C2.56223 17.9427 2.4263 18.1056 2.35542 18.2261L2.22656 18.4453L2.21316 20.7539L2.19975 23.0625H1.6132C0.841594 23.0625 0.65625 23.1533 0.65625 23.5312C0.65625 23.7274 0.724547 23.8438 0.889687 23.9292C1.01067 23.9917 2.30414 24 12 24C21.6959 24 22.9893 23.9917 23.1103 23.9292C23.2755 23.8438 23.3438 23.7274 23.3438 23.5312C23.3438 23.1564 23.1565 23.0625 22.4086 23.0625H21.8438L21.8433 15.457L21.8428 7.85156L21.7328 7.61719C21.5935 7.32028 21.4141 7.14089 21.1172 7.00153C20.8872 6.89362 20.856 6.89156 19.4531 6.89213C18.1164 6.89264 18.0097 6.89887 17.8125 6.98808ZM20.8205 7.9057C20.9029 7.98023 20.9062 8.27817 20.9062 15.5229V23.0625H19.4531H18V15.531C18 8.58872 18.006 7.99284 18.0776 7.91386C18.1492 7.83473 18.255 7.82812 19.445 7.82812C20.5794 7.82812 20.7451 7.83745 20.8205 7.9057ZM13.3915 14.68L13.5 14.782V18.9222V23.0625H12.0234H10.5469V18.9354V14.8082L10.662 14.6932L10.777 14.5781H12.03C13.252 14.5781 13.2857 14.5807 13.3915 14.68ZM5.94267 18.5886L6.04688 18.6615V20.862V23.0625H4.59375H3.14062V20.8828C3.14062 18.7656 3.1433 18.7005 3.23438 18.6094C3.32344 18.5203 3.39061 18.5156 4.5833 18.5156C5.64352 18.5156 5.85469 18.527 5.94267 18.5886Z" fill="#226A47"/>
</svg>
