<svg width="40" height="40" viewBox="0 0 40 40" fill="none" xmlns="http://www.w3.org/2000/svg">
<g clip-path="url(#clip0_107_3030)">
<path d="M38.3655 18.7411C38.3655 22.1446 35.6013 24.9038 32.1903 24.9038H9.84538C5.31109 24.9038 1.63477 21.2355 1.63477 16.7085C1.63477 12.1829 5.31109 8.51326 9.84538 8.51326C10.252 8.51326 10.6517 8.54442 11.0436 8.60111C12.8979 4.92583 16.7112 2.40381 21.1163 2.40381C26.4465 2.40381 30.9119 6.0977 32.085 11.0604C32.202 11.5559 32.2866 12.0635 32.3351 12.5806V12.5819C35.6776 12.6581 38.3655 15.3861 38.3655 18.7411Z" fill="#BAC7CB" fill-opacity="0.4"/>
<g filter="url(#filter0_b_107_3030)">
<path d="M38.3655 18.7411C38.3655 22.1446 35.6013 24.9038 32.1903 24.9038H9.84538C5.31109 24.9038 1.63477 21.2355 1.63477 16.7085C1.63477 12.1829 5.31109 8.51326 9.84538 8.51326C10.252 8.51326 10.6517 8.54442 11.0436 8.60111C12.8979 4.92583 16.7112 2.40381 21.1163 2.40381C26.4465 2.40381 30.9119 6.0977 32.085 11.0604C32.202 11.5559 32.2866 12.0635 32.3351 12.5806V12.5819C35.6776 12.6581 38.3655 15.3861 38.3655 18.7411Z" fill="url(#paint0_linear_107_3030)"/>
</g>
<g filter="url(#filter1_b_107_3030)">
<path fill-rule="evenodd" clip-rule="evenodd" d="M11.153 8.81124L11.0161 8.79144C10.6327 8.73597 10.2422 8.70557 9.84538 8.70557C5.41697 8.70557 1.82707 12.2895 1.82707 16.7085C1.82707 21.1289 5.41695 24.7115 9.84538 24.7115H32.1903C35.4955 24.7115 38.1732 22.0381 38.1732 18.7411C38.1732 15.4912 35.5694 12.848 32.3308 12.7742L32.1428 12.7699V12.5897C32.095 12.0847 32.0122 11.5888 31.8978 11.1046C30.7448 6.22694 26.3555 2.59612 21.1163 2.59612C16.7864 2.59612 13.0381 5.07485 11.2153 8.68773L11.153 8.81124ZM32.3351 12.5806V12.5819C35.6776 12.6581 38.3655 15.3861 38.3655 18.7411C38.3655 22.1446 35.6013 24.9038 32.1903 24.9038H9.84538C5.31109 24.9038 1.63477 21.2355 1.63477 16.7085C1.63477 12.1829 5.31109 8.51326 9.84538 8.51326C10.252 8.51326 10.6517 8.54442 11.0436 8.60111C12.8979 4.92583 16.7112 2.40381 21.1163 2.40381C26.4465 2.40381 30.9119 6.0977 32.085 11.0604C32.202 11.5559 32.2866 12.0635 32.3351 12.5806Z" fill="url(#paint1_linear_107_3030)"/>
</g>
<path d="M38.3655 18.7411C38.3655 22.1446 35.6013 24.9038 32.1903 24.9038H9.84538C5.31109 24.9038 1.63477 21.2355 1.63477 16.7085C1.63477 12.1829 5.31109 8.51326 9.84538 8.51326C10.252 8.51326 10.6517 8.54442 11.0436 8.60111C12.8979 4.92583 16.7112 2.40381 21.1163 2.40381C26.4465 2.40381 30.9119 6.0977 32.085 11.0604C32.202 11.5559 32.2866 12.0635 32.3351 12.5806V12.5819C35.6776 12.6581 38.3655 15.3861 38.3655 18.7411Z" fill="white"/>
<path d="M28.6334 24.3162C28.6334 26.818 26.6017 28.8461 24.0944 28.8461H7.66992C4.33702 28.8461 1.63477 26.1497 1.63477 22.8222C1.63477 19.4957 4.33702 16.7983 7.66992 16.7983C7.96882 16.7983 8.26263 16.8212 8.5507 16.8629C9.91362 14.1614 12.7166 12.3076 15.9545 12.3076C19.8725 12.3076 23.1547 15.0228 24.017 18.6706C24.103 19.0348 24.1652 19.4079 24.2009 19.788V19.789C26.6577 19.8449 28.6334 21.8501 28.6334 24.3162Z" fill="#BAC7CB"/>
<g filter="url(#filter2_b_107_3030)">
<path d="M28.6334 24.3162C28.6334 26.818 26.6017 28.8461 24.0944 28.8461H7.66992C4.33702 28.8461 1.63477 26.1497 1.63477 22.8222C1.63477 19.4957 4.33702 16.7983 7.66992 16.7983C7.96882 16.7983 8.26263 16.8212 8.5507 16.8629C9.91362 14.1614 12.7166 12.3076 15.9545 12.3076C19.8725 12.3076 23.1547 15.0228 24.017 18.6706C24.103 19.0348 24.1652 19.4079 24.2009 19.788V19.789C26.6577 19.8449 28.6334 21.8501 28.6334 24.3162Z" fill="url(#paint2_linear_107_3030)"/>
</g>
<g filter="url(#filter3_b_107_3030)">
<path fill-rule="evenodd" clip-rule="evenodd" d="M8.66008 17.073L8.52317 17.0532C8.24357 17.0128 7.95898 16.9906 7.66992 16.9906C4.4429 16.9906 1.82707 19.6022 1.82707 22.8222C1.82707 26.0431 4.44288 28.6538 7.66992 28.6538H24.0944C26.4958 28.6538 28.4411 26.7114 28.4411 24.3162C28.4411 21.9553 26.5495 20.0348 24.1965 19.9812L24.0085 19.9769V19.7971C23.9736 19.4291 23.9132 19.0677 23.8298 18.7148C22.9876 15.152 19.7815 12.4999 15.9545 12.4999C12.7918 12.4999 10.0538 14.3104 8.72239 16.9495L8.66008 17.073ZM24.2009 19.788V19.789C26.6577 19.8449 28.6334 21.8501 28.6334 24.3162C28.6334 26.818 26.6017 28.8461 24.0944 28.8461H7.66992C4.33702 28.8461 1.63477 26.1497 1.63477 22.8222C1.63477 19.4957 4.33702 16.7983 7.66992 16.7983C7.96882 16.7983 8.26263 16.8212 8.5507 16.8629C9.91362 14.1614 12.7166 12.3076 15.9545 12.3076C19.8725 12.3076 23.1547 15.0228 24.017 18.6706C24.103 19.0348 24.1652 19.4079 24.2009 19.788Z" fill="url(#paint3_linear_107_3030)"/>
</g>
<g filter="url(#filter4_d_107_3030)">
<path d="M28.6334 24.3162C28.6334 26.818 26.6017 28.8461 24.0944 28.8461H7.66992C4.33702 28.8461 1.63477 26.1497 1.63477 22.8222C1.63477 19.4957 4.33702 16.7983 7.66992 16.7983C7.96882 16.7983 8.26263 16.8212 8.5507 16.8629C9.91362 14.1614 12.7166 12.3076 15.9545 12.3076C19.8725 12.3076 23.1547 15.0228 24.017 18.6706C24.103 19.0348 24.1652 19.4079 24.2009 19.788V19.789C26.6577 19.8449 28.6334 21.8501 28.6334 24.3162Z" fill="white"/>
</g>
<path d="M12.4486 31.4426C12.3435 31.2621 12.111 31.2004 11.9291 31.3044L11.1491 31.751V30.8581C11.1491 30.6498 10.9788 30.481 10.7688 30.481C10.5588 30.481 10.3885 30.6498 10.3885 30.8581V31.751L9.60856 31.3044C9.42666 31.2002 9.19415 31.2621 9.08906 31.4426C8.98416 31.6229 9.04633 31.8535 9.22822 31.9577L10.0081 32.404L9.22822 32.8504C9.04633 32.9546 8.98416 33.1851 9.08906 33.3655C9.1595 33.4865 9.28731 33.5542 9.41877 33.5542C9.48325 33.5542 9.54869 33.5378 9.60856 33.5036L10.3885 33.0571V33.95C10.3885 34.1582 10.5588 34.3271 10.7688 34.3271C10.9788 34.3271 11.1491 34.1582 11.1491 33.95V33.0571L11.9291 33.5036C11.9889 33.5378 12.0544 33.5542 12.1189 33.5542C12.2503 33.5542 12.3781 33.4865 12.4486 33.3655C12.5537 33.1851 12.4913 32.9546 12.3094 32.8504L11.5295 32.404L12.3094 31.9577C12.4913 31.8535 12.5537 31.6229 12.4486 31.4426Z" fill="white"/>
<path d="M19.9995 30.7693C19.0801 31.2523 18.4609 32.1543 18.4609 33.1882C18.4609 33.2253 18.4615 33.2619 18.4632 33.2985C18.5382 35.0544 21.4606 35.0544 21.5356 33.2985C21.5373 33.2619 21.5379 33.2253 21.5379 33.1882C21.5381 32.1543 20.919 31.2523 19.9995 30.7693Z" fill="#00A3FF"/>
<path d="M29.9995 27.6924C29.0801 28.1754 28.4609 29.0774 28.4609 30.1113C28.4609 30.1484 28.4615 30.185 28.4632 30.2216C28.5382 31.9775 31.4606 31.9775 31.5356 30.2216C31.5373 30.185 31.5379 30.1484 31.5379 30.1113C31.5381 29.0774 30.919 28.1754 29.9995 27.6924Z" fill="#00A3FF"/>
<path d="M16.9681 34.8078C16.863 34.6273 16.6305 34.5657 16.4486 34.6697L15.6687 35.1162V34.2233C15.6687 34.0151 15.4983 33.8462 15.2883 33.8462C15.0784 33.8462 14.908 34.0151 14.908 34.2233V35.1162L14.1281 34.6697C13.9462 34.5655 13.7137 34.6273 13.6086 34.8078C13.5037 34.9882 13.5659 35.2187 13.7478 35.3229L14.5277 35.7693L13.7478 36.2156C13.5659 36.3198 13.5037 36.5504 13.6086 36.7307C13.679 36.8517 13.8068 36.9194 13.9383 36.9194C14.0028 36.9194 14.0682 36.903 14.1281 36.8689L14.908 36.4223V37.3152C14.908 37.5235 15.0784 37.6923 15.2883 37.6923C15.4983 37.6923 15.6687 37.5235 15.6687 37.3152V36.4223L16.4486 36.8689C16.5085 36.903 16.5739 36.9194 16.6384 36.9194C16.7698 36.9194 16.8977 36.8517 16.9681 36.7307C17.0732 36.5504 17.0108 36.3198 16.8289 36.2156L16.049 35.7693L16.8289 35.3229C17.0108 35.2187 17.0732 34.9882 16.9681 34.8078Z" fill="white"/>
<path d="M34.8094 34.6771L34.0295 34.2307L34.8094 33.7843C34.9913 33.6801 35.0537 33.4496 34.9486 33.2693C34.8435 33.0887 34.611 33.0271 34.4291 33.1311L33.6491 33.5776V32.6847C33.6491 32.4765 33.4788 32.3076 33.2688 32.3076C33.0588 32.3076 32.8885 32.4765 32.8885 32.6847V33.5776L32.1086 33.1311C31.9267 33.0269 31.6942 33.0887 31.5891 33.2693C31.4842 33.4496 31.5463 33.6801 31.7282 33.7843L32.5081 34.2307L31.7282 34.6771C31.5463 34.7813 31.4842 35.0118 31.5891 35.1921C31.6595 35.3131 31.7873 35.3809 31.9188 35.3809C31.9833 35.3809 32.0487 35.3645 32.1086 35.3303L32.8885 34.8837V35.7767C32.8885 35.9849 33.0588 36.1538 33.2688 36.1538C33.4788 36.1538 33.6491 35.9849 33.6491 35.7767V34.8837L34.4291 35.3303C34.4889 35.3645 34.5544 35.3809 34.6189 35.3809C34.7503 35.3809 34.8781 35.3131 34.9486 35.1921C35.0537 35.0118 34.9913 34.7813 34.8094 34.6771Z" fill="white"/>
<path d="M26.1995 34.8078C26.0945 34.6275 25.8619 34.5657 25.6801 34.6697L24.9002 35.1162V34.2233C24.9002 34.0151 24.7298 33.8462 24.5198 33.8462C24.3098 33.8462 24.1395 34.0151 24.1395 34.2233V35.1162L23.3596 34.6697C23.1777 34.5657 22.9452 34.6275 22.8401 34.8078C22.735 34.9882 22.7974 35.2187 22.9793 35.3229L23.7592 35.7693L22.9793 36.2156C22.7974 36.3198 22.735 36.5504 22.8401 36.7307C22.9106 36.8517 23.0384 36.9194 23.1698 36.9194C23.2343 36.9194 23.2997 36.903 23.3596 36.8689L24.1395 36.4223V37.3152C24.1395 37.5235 24.3098 37.6923 24.5198 37.6923C24.7298 37.6923 24.9002 37.5235 24.9002 37.3152V36.4225L25.6801 36.8689C25.7399 36.9032 25.8054 36.9194 25.8698 36.9194C26.0013 36.9194 26.1291 36.8517 26.1995 36.7309C26.3044 36.5506 26.2423 36.3198 26.0604 36.2158L25.2805 35.7693L26.0604 35.3229C26.2423 35.2187 26.3046 34.9882 26.1995 34.8078Z" fill="white"/>
</g>
<defs>
<filter id="filter0_b_107_3030" x="-4.61523" y="-3.84619" width="49.2305" height="35" filterUnits="userSpaceOnUse" color-interpolation-filters="sRGB">
<feFlood flood-opacity="0" result="BackgroundImageFix"/>
<feGaussianBlur in="BackgroundImage" stdDeviation="3.125"/>
<feComposite in2="SourceAlpha" operator="in" result="effect1_backgroundBlur_107_3030"/>
<feBlend mode="normal" in="SourceGraphic" in2="effect1_backgroundBlur_107_3030" result="shape"/>
</filter>
<filter id="filter1_b_107_3030" x="-4.61523" y="-3.84619" width="49.2305" height="35" filterUnits="userSpaceOnUse" color-interpolation-filters="sRGB">
<feFlood flood-opacity="0" result="BackgroundImageFix"/>
<feGaussianBlur in="BackgroundImage" stdDeviation="3.125"/>
<feComposite in2="SourceAlpha" operator="in" result="effect1_backgroundBlur_107_3030"/>
<feBlend mode="normal" in="SourceGraphic" in2="effect1_backgroundBlur_107_3030" result="shape"/>
</filter>
<filter id="filter2_b_107_3030" x="-4.61523" y="6.05762" width="39.499" height="29.0386" filterUnits="userSpaceOnUse" color-interpolation-filters="sRGB">
<feFlood flood-opacity="0" result="BackgroundImageFix"/>
<feGaussianBlur in="BackgroundImage" stdDeviation="3.125"/>
<feComposite in2="SourceAlpha" operator="in" result="effect1_backgroundBlur_107_3030"/>
<feBlend mode="normal" in="SourceGraphic" in2="effect1_backgroundBlur_107_3030" result="shape"/>
</filter>
<filter id="filter3_b_107_3030" x="-4.61523" y="6.05762" width="39.499" height="29.0386" filterUnits="userSpaceOnUse" color-interpolation-filters="sRGB">
<feFlood flood-opacity="0" result="BackgroundImageFix"/>
<feGaussianBlur in="BackgroundImage" stdDeviation="3.125"/>
<feComposite in2="SourceAlpha" operator="in" result="effect1_backgroundBlur_107_3030"/>
<feBlend mode="normal" in="SourceGraphic" in2="effect1_backgroundBlur_107_3030" result="shape"/>
</filter>
<filter id="filter4_d_107_3030" x="-2.36523" y="9.30762" width="34.999" height="24.5386" filterUnits="userSpaceOnUse" color-interpolation-filters="sRGB">
<feFlood flood-opacity="0" result="BackgroundImageFix"/>
<feColorMatrix in="SourceAlpha" type="matrix" values="0 0 0 0 0 0 0 0 0 0 0 0 0 0 0 0 0 0 127 0" result="hardAlpha"/>
<feOffset dy="1"/>
<feGaussianBlur stdDeviation="2"/>
<feComposite in2="hardAlpha" operator="out"/>
<feColorMatrix type="matrix" values="0 0 0 0 0 0 0 0 0 0 0 0 0 0 0 0 0 0 0.21 0"/>
<feBlend mode="normal" in2="BackgroundImageFix" result="effect1_dropShadow_107_3030"/>
<feBlend mode="normal" in="SourceGraphic" in2="effect1_dropShadow_107_3030" result="shape"/>
</filter>
<linearGradient id="paint0_linear_107_3030" x1="7.45207" y1="6.34612" x2="33.5098" y2="24.9038" gradientUnits="userSpaceOnUse">
<stop offset="0.416176" stop-color="white" stop-opacity="0.7"/>
<stop offset="1" stop-color="white" stop-opacity="0"/>
</linearGradient>
<linearGradient id="paint1_linear_107_3030" x1="-1.17795" y1="8.33286" x2="11.9733" y2="17.792" gradientUnits="userSpaceOnUse">
<stop stop-color="white"/>
<stop offset="1" stop-color="white" stop-opacity="0"/>
</linearGradient>
<linearGradient id="paint2_linear_107_3030" x1="5.91073" y1="15.2054" x2="25.0643" y2="28.8461" gradientUnits="userSpaceOnUse">
<stop offset="0.416176" stop-color="white" stop-opacity="0.7"/>
<stop offset="1" stop-color="white" stop-opacity="0"/>
</linearGradient>
<linearGradient id="paint3_linear_107_3030" x1="-0.432701" y1="16.6657" x2="9.234" y2="23.6186" gradientUnits="userSpaceOnUse">
<stop stop-color="white"/>
<stop offset="1" stop-color="white" stop-opacity="0"/>
</linearGradient>
<clipPath id="clip0_107_3030">
<rect width="40" height="40" fill="white"/>
</clipPath>
</defs>
</svg>
